SplineFontDB: 3.0
FontName: TulpenOne-Regular
FullName: Tulpen One
FamilyName: Tulpen One
Weight: Book
Copyright: Copyright (c) 2011, Naima Ben Ayed, with Reserved Font Names "Tulpen" and "Tulpen One".
Version: 1.002
ItalicAngle: 0
UnderlinePosition: -50
UnderlineWidth: 50
Ascent: 1638
Descent: 410
sfntRevision: 0x00010000
LayerCount: 2
Layer: 0 1 "Back"  1
Layer: 1 1 "Fore"  0
XUID: [1021 288 713564382 9691451]
FSType: 0
OS2Version: 2
OS2_WeightWidthSlopeOnly: 0
OS2_UseTypoMetrics: 1
CreationTime: 1295538180
ModificationTime: 1311977222
PfmFamily: 17
TTFWeight: 400
TTFWidth: 5
LineGap: 0
VLineGap: 0
Panose: 2 0 5 6 0 0 0 2 0 4
OS2TypoAscent: 129
OS2TypoAOffset: 1
OS2TypoDescent: -55
OS2TypoDOffset: 1
OS2TypoLinegap: 0
OS2WinAscent: 0
OS2WinAOffset: 1
OS2WinDescent: 0
OS2WinDOffset: 1
HheadAscent: 0
HheadAOffset: 1
HheadDescent: 0
HheadDOffset: 1
OS2SubXSize: 1434
OS2SubYSize: 1331
OS2SubXOff: 0
OS2SubYOff: 287
OS2SupXSize: 1434
OS2SupYSize: 1331
OS2SupXOff: 0
OS2SupYOff: 977
OS2StrikeYSize: 102
OS2StrikeYPos: 512
OS2Vendor: 'KORK'
OS2CodePages: 00000001.00000000
OS2UnicodeRanges: 800000af.40000042.00000000.00000000
Lookup: 258 0 0 "'kern' Horizontal Kerning in Latin lookup 0"  {"'kern' Horizontal Kerning in Latin lookup 0 subtable"  } ['kern' ('DFLT' <'dflt' > 'latn' <'dflt' > ) ]
DEI: 91125
TtTable: prep
PUSHW_1
 511
SCANCTRL
PUSHB_1
 4
SCANTYPE
EndTTInstrs
ShortTable: maxp 16
  1
  0
  233
  101
  7
  77
  4
  2
  0
  1
  1
  0
  64
  0
  2
  1
EndShort
LangName: 1033 "" "" "" "1.002;KORK;Tulpen;29.07.2011" "" "Version 1.002" "" "Tulpen is a trademark of Naima Ben Ayed." "Naima Ben Ayed, Anton Koovit" "Naima Ben Ayed" "" "" "" "This Font Software is licensed under the SIL Open Font License, Version 1.1. This license is available with a FAQ at: http://scripts.sil.org/OFL" "http://scripts.sil.org/OFL" 
GaspTable: 1 65535 15
Encoding: UnicodeBmp
UnicodeInterp: none
NameList: Adobe Glyph List
DisplaySize: -36
AntiAlias: 1
FitToEm: 1
WinInfo: 34 34 12

StartChar: .notdef
Encoding: 65536 -1 0
Width: 271
Flags: W
LayerCount: 2
Fore
SplineSet
0 0 m 0,0,-1
EndSplineSet
EndChar

StartChar: .null
Encoding: 65537 -1 1
Width: 0
Flags: W
LayerCount: 2
Fore
SplineSet
0 0 m 0,0,-1
EndSplineSet
EndChar

StartChar: space
Encoding: 32 32 3
AltUni2: 0000a0.ffffffff.0
Width: 271
Flags: W
LayerCount: 2
Fore
SplineSet
0 0 m 0,0,-1
EndSplineSet
EndChar

StartChar: exclam
Encoding: 33 33 4
Width: 237
Flags: W
LayerCount: 2
Fore
SplineSet
154 374 m 1,0,-1
 83 374 l 1,1,-1
 81 1478 l 1,2,-1
 156 1478 l 1,3,-1
 154 374 l 1,0,-1
70 26 m 0,4,5
 70 42 70 42 82.5 56 c 128,-1,6
 95 70 95 70 118 70 c 256,7,8
 141 70 141 70 154 56 c 128,-1,9
 167 42 167 42 167 26 c 0,10,11
 167 6 167 6 154 -7 c 128,-1,12
 141 -20 141 -20 118 -20 c 0,13,14
 98 -20 98 -20 84 -7 c 128,-1,15
 70 6 70 6 70 26 c 0,4,5
EndSplineSet
EndChar

StartChar: quotedbl
Encoding: 34 34 5
Width: 343
Flags: W
LayerCount: 2
Fore
SplineSet
71 1179 m 1,0,-1
 70 1478 l 1,1,-1
 145 1478 l 1,2,-1
 144 1179 l 1,3,-1
 71 1179 l 1,0,-1
209 1179 m 1,4,-1
 208 1478 l 1,5,-1
 283 1478 l 1,6,-1
 282 1179 l 1,7,-1
 209 1179 l 1,4,-1
EndSplineSet
EndChar

StartChar: numbersign
Encoding: 35 35 6
Width: 750
Flags: W
LayerCount: 2
Fore
SplineSet
510 403 m 1,0,-1
 257 403 l 1,1,-1
 257 224 l 1,2,-1
 182 224 l 1,3,-1
 182 403 l 1,4,-1
 70 403 l 1,5,-1
 70 470 l 1,6,-1
 182 470 l 1,7,-1
 182 951 l 1,8,-1
 70 951 l 1,9,-1
 70 1018 l 1,10,-1
 182 1018 l 1,11,-1
 182 1198 l 1,12,-1
 257 1198 l 1,13,-1
 257 1018 l 1,14,-1
 510 1018 l 1,15,-1
 510 1198 l 1,16,-1
 585 1198 l 1,17,-1
 585 1018 l 1,18,-1
 680 1018 l 1,19,-1
 680 951 l 1,20,-1
 585 951 l 1,21,-1
 585 470 l 1,22,-1
 680 470 l 1,23,-1
 680 403 l 1,24,-1
 585 403 l 1,25,-1
 585 224 l 1,26,-1
 510 224 l 1,27,-1
 510 403 l 1,0,-1
257 470 m 1,28,-1
 510 470 l 1,29,-1
 510 951 l 1,30,-1
 257 951 l 1,31,-1
 257 470 l 1,28,-1
EndSplineSet
EndChar

StartChar: dollar
Encoding: 36 36 7
Width: 523
Flags: W
LayerCount: 2
Fore
SplineSet
228 -132 m 1,0,-1
 228 -17 l 1,1,2
 186 -11 186 -11 151.5 7.5 c 128,-1,3
 117 26 117 26 92.5 54.5 c 128,-1,4
 68 83 68 83 54 119.5 c 128,-1,5
 40 156 40 156 40 198 c 2,6,-1
 40 414 l 1,7,-1
 115 414 l 1,8,-1
 115 199 l 2,9,10
 115 166 115 166 126 138.5 c 128,-1,11
 137 111 137 111 156 90.5 c 128,-1,12
 175 70 175 70 201.5 58.5 c 128,-1,13
 228 47 228 47 260 47 c 0,14,15
 294 47 294 47 321 59 c 128,-1,16
 348 71 348 71 367.5 91.5 c 128,-1,17
 387 112 387 112 397.5 139.5 c 128,-1,18
 408 167 408 167 408 199 c 2,19,-1
 408 366 l 2,20,21
 408 401 408 401 394 432 c 128,-1,22
 380 463 380 463 356.5 492 c 128,-1,23
 333 521 333 521 303 548 c 128,-1,24
 273 575 273 575 242 601 c 0,25,26
 205 632 205 632 168.5 664 c 128,-1,27
 132 696 132 696 103.5 732 c 128,-1,28
 75 768 75 768 57.5 809 c 128,-1,29
 40 850 40 850 40 900 c 2,30,-1
 40 991 l 2,31,32
 40 1035 40 1035 54.5 1072 c 128,-1,33
 69 1109 69 1109 94.5 1137 c 128,-1,34
 120 1165 120 1165 154 1183 c 128,-1,35
 188 1201 188 1201 228 1207 c 1,36,-1
 228 1321 l 1,37,-1
 291 1321 l 1,38,-1
 291 1207 l 1,39,40
 333 1202 333 1202 368 1183 c 128,-1,41
 403 1164 403 1164 428.5 1135.5 c 128,-1,42
 454 1107 454 1107 468.5 1070 c 128,-1,43
 483 1033 483 1033 483 991 c 2,44,-1
 483 786 l 1,45,-1
 408 786 l 1,46,-1
 408 990 l 2,47,48
 408 1023 408 1023 397 1050.5 c 128,-1,49
 386 1078 386 1078 367 1098.5 c 128,-1,50
 348 1119 348 1119 321 1130.5 c 128,-1,51
 294 1142 294 1142 263 1142 c 0,52,53
 229 1142 229 1142 201.5 1130 c 128,-1,54
 174 1118 174 1118 155 1097.5 c 128,-1,55
 136 1077 136 1077 125.5 1049.5 c 128,-1,56
 115 1022 115 1022 115 990 c 2,57,-1
 115 900 l 2,58,59
 115 863 115 863 130 830.5 c 128,-1,60
 145 798 145 798 169.5 768.5 c 128,-1,61
 194 739 194 739 225 712 c 128,-1,62
 256 685 256 685 288 658 c 0,63,64
 324 628 324 628 359 596 c 128,-1,65
 394 564 394 564 421.5 528 c 128,-1,66
 449 492 449 492 466 452 c 128,-1,67
 483 412 483 412 483 366 c 2,68,-1
 483 198 l 2,69,70
 483 154 483 154 468 116.5 c 128,-1,71
 453 79 453 79 427.5 51 c 128,-1,72
 402 23 402 23 366.5 5 c 128,-1,73
 331 -13 331 -13 291 -18 c 1,74,-1
 291 -132 l 1,75,-1
 228 -132 l 1,0,-1
EndSplineSet
EndChar

StartChar: percent
Encoding: 37 37 8
Width: 922
Flags: W
LayerCount: 2
Fore
SplineSet
600 1393 m 1,0,-1
 669 1393 l 1,1,-1
 322 0 l 1,2,-1
 253 0 l 1,3,-1
 600 1393 l 1,0,-1
324 557 m 2,4,5
 324 491 324 491 284 450.5 c 128,-1,6
 244 410 244 410 179 410 c 0,7,8
 113 410 113 410 74 450.5 c 128,-1,9
 35 491 35 491 35 557 c 2,10,-1
 35 1266 l 2,11,12
 35 1332 35 1332 74 1372.5 c 128,-1,13
 113 1413 113 1413 179 1413 c 0,14,15
 244 1413 244 1413 284 1372.5 c 128,-1,16
 324 1332 324 1332 324 1266 c 2,17,-1
 324 557 l 2,4,5
259 1267 m 2,18,19
 259 1306 259 1306 237 1330.5 c 128,-1,20
 215 1355 215 1355 179 1355 c 256,21,22
 143 1355 143 1355 121.5 1330.5 c 128,-1,23
 100 1306 100 1306 100 1267 c 2,24,-1
 100 556 l 2,25,26
 100 517 100 517 121.5 492.5 c 128,-1,27
 143 468 143 468 179 468 c 256,28,29
 215 468 215 468 237 492.5 c 128,-1,30
 259 517 259 517 259 556 c 2,31,-1
 259 1267 l 2,18,19
887 127 m 2,32,33
 887 61 887 61 847 20.5 c 128,-1,34
 807 -20 807 -20 742 -20 c 0,35,36
 676 -20 676 -20 637 20.5 c 128,-1,37
 598 61 598 61 598 127 c 2,38,-1
 598 836 l 2,39,40
 598 902 598 902 637 942.5 c 128,-1,41
 676 983 676 983 742 983 c 0,42,43
 807 983 807 983 847 942.5 c 128,-1,44
 887 902 887 902 887 836 c 2,45,-1
 887 127 l 2,32,33
822 837 m 2,46,47
 822 876 822 876 800 900.5 c 128,-1,48
 778 925 778 925 742 925 c 256,49,50
 706 925 706 925 684.5 900.5 c 128,-1,51
 663 876 663 876 663 837 c 2,52,-1
 663 126 l 2,53,54
 663 87 663 87 684.5 62.5 c 128,-1,55
 706 38 706 38 742 38 c 256,56,57
 778 38 778 38 800 62.5 c 128,-1,58
 822 87 822 87 822 126 c 2,59,-1
 822 837 l 2,46,47
EndSplineSet
EndChar

StartChar: ampersand
Encoding: 38 38 9
Width: 682
Flags: W
LayerCount: 2
Fore
SplineSet
70 1196 m 2,0,1
 70 1241 70 1241 84.5 1280.5 c 128,-1,2
 99 1320 99 1320 126.5 1349.5 c 128,-1,3
 154 1379 154 1379 194 1396 c 128,-1,4
 234 1413 234 1413 286 1413 c 256,5,6
 338 1413 338 1413 379.5 1396 c 128,-1,7
 421 1379 421 1379 450 1350 c 128,-1,8
 479 1321 479 1321 494 1281.5 c 128,-1,9
 509 1242 509 1242 509 1196 c 2,10,-1
 509 1083 l 1,11,-1
 434 1083 l 1,12,-1
 434 1194 l 2,13,14
 434 1260 434 1260 396 1303 c 128,-1,15
 358 1346 358 1346 289 1346 c 256,16,17
 220 1346 220 1346 182.5 1303 c 128,-1,18
 145 1260 145 1260 145 1194 c 2,19,-1
 145 898 l 2,20,21
 145 888 145 888 147.5 872 c 128,-1,22
 150 856 150 856 161 840.5 c 128,-1,23
 172 825 172 825 193.5 814 c 128,-1,24
 215 803 215 803 253 803 c 1,25,-1
 253 736 l 1,26,27
 215 736 215 736 193.5 725 c 128,-1,28
 172 714 172 714 161 699 c 128,-1,29
 150 684 150 684 147.5 667.5 c 128,-1,30
 145 651 145 651 145 640 c 2,31,-1
 145 198 l 2,32,33
 145 132 145 132 182.5 89.5 c 128,-1,34
 220 47 220 47 289 47 c 256,35,36
 358 47 358 47 396 89.5 c 128,-1,37
 434 132 434 132 434 198 c 2,38,-1
 434 640 l 1,39,-1
 283 566 l 1,40,-1
 243 625 l 1,41,-1
 633 813 l 1,42,-1
 672 756 l 1,43,-1
 509 674 l 1,44,-1
 509 196 l 2,45,46
 509 151 509 151 494 111.5 c 128,-1,47
 479 72 479 72 450 42.5 c 128,-1,48
 421 13 421 13 379.5 -3.5 c 128,-1,49
 338 -20 338 -20 286 -20 c 256,50,51
 234 -20 234 -20 194 -3 c 128,-1,52
 154 14 154 14 126.5 43.5 c 128,-1,53
 99 73 99 73 84.5 112 c 128,-1,54
 70 151 70 151 70 196 c 2,55,-1
 70 637 l 2,56,57
 70 653 70 653 72 670.5 c 128,-1,58
 74 688 74 688 80 705.5 c 128,-1,59
 86 723 86 723 97 739.5 c 128,-1,60
 108 756 108 756 126 770 c 1,61,62
 90 799 90 799 80 832.5 c 128,-1,63
 70 866 70 866 70 897 c 2,64,-1
 70 1196 l 2,0,1
EndSplineSet
EndChar

StartChar: quotesingle
Encoding: 39 39 10
Width: 216
Flags: W
LayerCount: 2
Fore
SplineSet
71 1179 m 1,0,-1
 70 1478 l 1,1,-1
 146 1478 l 1,2,-1
 145 1179 l 1,3,-1
 71 1179 l 1,0,-1
EndSplineSet
EndChar

StartChar: parenleft
Encoding: 40 40 11
Width: 336
Flags: W
LayerCount: 2
Fore
SplineSet
30 543 m 0,0,1
 30 634 30 634 41 720 c 128,-1,2
 52 806 52 806 69.5 884 c 128,-1,3
 87 962 87 962 110 1031.5 c 128,-1,4
 133 1101 133 1101 157 1160 c 0,5,6
 212 1298 212 1298 284 1413 c 1,7,-1
 326 1413 l 1,8,-1
 326 1374 l 1,9,10
 266 1268 266 1268 218 1138 c 0,11,12
 198 1082 198 1082 178.5 1016 c 128,-1,13
 159 950 159 950 144 875 c 128,-1,14
 129 800 129 800 119.5 716.5 c 128,-1,15
 110 633 110 633 110 543 c 0,16,17
 110 451 110 451 119.5 367 c 128,-1,18
 129 283 129 283 144 207.5 c 128,-1,19
 159 132 159 132 178.5 66 c 128,-1,20
 198 0 198 0 218 -55 c 0,21,22
 266 -184 266 -184 326 -288 c 1,23,-1
 326 -327 l 1,24,-1
 284 -327 l 1,25,26
 212 -213 212 -213 157 -75 c 0,27,28
 133 -16 133 -16 110 53.5 c 128,-1,29
 87 123 87 123 69.5 201.5 c 128,-1,30
 52 280 52 280 41 365.5 c 128,-1,31
 30 451 30 451 30 543 c 0,0,1
EndSplineSet
EndChar

StartChar: parenright
Encoding: 41 41 12
Width: 336
Flags: W
LayerCount: 2
Fore
SplineSet
306 543 m 0,0,1
 306 451 306 451 295 365.5 c 128,-1,2
 284 280 284 280 266 201.5 c 128,-1,3
 248 123 248 123 225.5 53.5 c 128,-1,4
 203 -16 203 -16 179 -75 c 0,5,6
 123 -213 123 -213 52 -327 c 1,7,-1
 10 -327 l 1,8,-1
 10 -288 l 1,9,10
 70 -184 70 -184 118 -55 c 0,11,12
 138 0 138 0 157.5 66 c 128,-1,13
 177 132 177 132 192 207.5 c 128,-1,14
 207 283 207 283 216.5 367 c 128,-1,15
 226 451 226 451 226 543 c 0,16,17
 226 633 226 633 216.5 716.5 c 128,-1,18
 207 800 207 800 192 875 c 128,-1,19
 177 950 177 950 157.5 1016 c 128,-1,20
 138 1082 138 1082 118 1138 c 0,21,22
 70 1268 70 1268 10 1374 c 1,23,-1
 10 1413 l 1,24,-1
 52 1413 l 1,25,26
 123 1298 123 1298 179 1160 c 0,27,28
 203 1101 203 1101 225.5 1031.5 c 128,-1,29
 248 962 248 962 266 884 c 128,-1,30
 284 806 284 806 295 720 c 128,-1,31
 306 634 306 634 306 543 c 0,0,1
EndSplineSet
EndChar

StartChar: asterisk
Encoding: 42 42 13
Width: 392
Flags: W
LayerCount: 2
Fore
SplineSet
225 1265 m 1,0,-1
 225 1155 l 1,1,-1
 164 1155 l 1,2,-1
 164 1263 l 1,3,-1
 161 1266 l 1,4,-1
 70 1210 l 1,5,-1
 40 1262 l 1,6,-1
 134 1313 l 1,7,-1
 134 1319 l 1,8,-1
 40 1370 l 1,9,-1
 71 1423 l 1,10,-1
 160 1367 l 1,11,-1
 164 1370 l 1,12,-1
 164 1478 l 1,13,-1
 225 1478 l 1,14,-1
 225 1368 l 1,15,-1
 230 1366 l 1,16,-1
 321 1423 l 1,17,-1
 352 1370 l 1,18,-1
 257 1319 l 1,19,-1
 257 1313 l 1,20,-1
 352 1262 l 1,21,-1
 322 1210 l 1,22,-1
 228 1268 l 1,23,-1
 225 1265 l 1,0,-1
EndSplineSet
EndChar

StartChar: plus
Encoding: 43 43 14
Width: 697
Flags: W
LayerCount: 2
Fore
SplineSet
387 327 m 1,0,-1
 310 327 l 1,1,-1
 310 660 l 1,2,-1
 25 660 l 1,3,-1
 25 729 l 1,4,-1
 310 729 l 1,5,-1
 310 1052 l 1,6,-1
 387 1052 l 1,7,-1
 387 729 l 1,8,-1
 672 729 l 1,9,-1
 672 660 l 1,10,-1
 387 660 l 1,11,-1
 387 327 l 1,0,-1
EndSplineSet
EndChar

StartChar: comma
Encoding: 44 44 15
Width: 199
Flags: W
LayerCount: 2
Fore
SplineSet
139 0 m 1,0,1
 136 -27 136 -27 127 -56 c 0,2,3
 119 -81 119 -81 106 -111.5 c 128,-1,4
 93 -142 93 -142 71 -173 c 1,5,-1
 20 -173 l 1,6,-1
 20 -139 l 1,7,8
 29 -128 29 -128 38.5 -111.5 c 128,-1,9
 48 -95 48 -95 55.5 -76.5 c 128,-1,10
 63 -58 63 -58 68 -38 c 128,-1,11
 73 -18 73 -18 74 0 c 1,12,-1
 40 0 l 1,13,-1
 40 92 l 1,14,-1
 139 92 l 1,15,-1
 139 0 l 1,0,1
EndSplineSet
EndChar

StartChar: hyphen
Encoding: 45 45 16
Width: 228
Flags: W
LayerCount: 2
Fore
SplineSet
10 511 m 1,0,-1
 218 511 l 1,1,-1
 218 442 l 1,2,-1
 10 442 l 1,3,-1
 10 511 l 1,0,-1
EndSplineSet
EndChar

StartChar: period
Encoding: 46 46 17
Width: 217
Flags: W
LayerCount: 2
Fore
SplineSet
60 42 m 0,0,1
 60 58 60 58 72.5 72 c 128,-1,2
 85 86 85 86 108 86 c 256,3,4
 131 86 131 86 144 72 c 128,-1,5
 157 58 157 58 157 42 c 0,6,7
 157 22 157 22 144 9 c 128,-1,8
 131 -4 131 -4 108 -4 c 0,9,10
 88 -4 88 -4 74 9 c 128,-1,11
 60 22 60 22 60 42 c 0,0,1
EndSplineSet
EndChar

StartChar: slash
Encoding: 47 47 18
Width: 497
Flags: W
LayerCount: 2
Fore
SplineSet
466 1393 m 1,0,-1
 532 1393 l 1,1,-1
 35 0 l 1,2,-1
 -35 0 l 1,3,-1
 466 1393 l 1,0,-1
EndSplineSet
EndChar

StartChar: zero
Encoding: 48 48 19
Width: 536
Flags: W
LayerCount: 2
Fore
SplineSet
466 184 m 2,0,1
 466 139 466 139 452 101.5 c 128,-1,2
 438 64 438 64 412 37 c 128,-1,3
 386 10 386 10 349.5 -5 c 128,-1,4
 313 -20 313 -20 268 -20 c 256,5,6
 223 -20 223 -20 186.5 -5 c 128,-1,7
 150 10 150 10 124 37 c 128,-1,8
 98 64 98 64 84 101.5 c 128,-1,9
 70 139 70 139 70 184 c 2,10,-1
 70 1209 l 2,11,12
 70 1254 70 1254 84 1291.5 c 128,-1,13
 98 1329 98 1329 124 1356 c 128,-1,14
 150 1383 150 1383 186.5 1398 c 128,-1,15
 223 1413 223 1413 268 1413 c 256,16,17
 313 1413 313 1413 349.5 1398 c 128,-1,18
 386 1383 386 1383 412 1356 c 128,-1,19
 438 1329 438 1329 452 1291.5 c 128,-1,20
 466 1254 466 1254 466 1209 c 2,21,-1
 466 184 l 2,0,1
391 1210 m 2,22,23
 391 1272 391 1272 358 1309 c 128,-1,24
 325 1346 325 1346 268 1346 c 256,25,26
 211 1346 211 1346 178 1309 c 128,-1,27
 145 1272 145 1272 145 1210 c 2,28,-1
 145 183 l 2,29,30
 145 121 145 121 178 84 c 128,-1,31
 211 47 211 47 268 47 c 256,32,33
 325 47 325 47 358 84 c 128,-1,34
 391 121 391 121 391 183 c 2,35,-1
 391 1210 l 2,22,23
EndSplineSet
EndChar

StartChar: one
Encoding: 49 49 20
Width: 315
Flags: W
LayerCount: 2
Fore
SplineSet
170 1326 m 1,0,-1
 20 1326 l 1,1,-1
 20 1393 l 1,2,-1
 245 1393 l 1,3,-1
 245 0 l 1,4,-1
 170 0 l 1,5,-1
 170 1326 l 1,0,-1
EndSplineSet
EndChar

StartChar: two
Encoding: 50 50 21
Width: 466
Flags: W
LayerCount: 2
Fore
SplineSet
361 1209 m 2,0,1
 361 1272 361 1272 328 1309 c 128,-1,2
 295 1346 295 1346 238 1346 c 256,3,4
 181 1346 181 1346 148 1309 c 128,-1,5
 115 1272 115 1272 115 1210 c 2,6,-1
 115 1024 l 1,7,-1
 40 1024 l 1,8,-1
 40 1209 l 2,9,10
 40 1254 40 1254 54 1291.5 c 128,-1,11
 68 1329 68 1329 94 1356 c 128,-1,12
 120 1383 120 1383 156.5 1398 c 128,-1,13
 193 1413 193 1413 238 1413 c 256,14,15
 283 1413 283 1413 319.5 1398 c 128,-1,16
 356 1383 356 1383 382 1356 c 128,-1,17
 408 1329 408 1329 422 1291.5 c 128,-1,18
 436 1254 436 1254 436 1209 c 2,19,-1
 436 980 l 2,20,21
 436 934 436 934 412 871.5 c 128,-1,22
 388 809 388 809 352.5 738.5 c 128,-1,23
 317 668 317 668 275.5 593.5 c 128,-1,24
 234 519 234 519 198.5 449.5 c 128,-1,25
 163 380 163 380 139 318.5 c 128,-1,26
 115 257 115 257 115 213 c 2,27,-1
 115 67 l 1,28,-1
 436 67 l 1,29,-1
 436 0 l 1,30,-1
 40 0 l 1,31,-1
 40 214 l 2,32,33
 40 260 40 260 64 323 c 128,-1,34
 88 386 88 386 123.5 457.5 c 128,-1,35
 159 529 159 529 200.5 604.5 c 128,-1,36
 242 680 242 680 277.5 751 c 128,-1,37
 313 822 313 822 337 884.5 c 128,-1,38
 361 947 361 947 361 992 c 2,39,-1
 361 1209 l 2,0,1
EndSplineSet
EndChar

StartChar: three
Encoding: 51 51 22
Width: 516
Flags: W
LayerCount: 2
Fore
SplineSet
50 1209 m 2,0,1
 50 1254 50 1254 64 1291.5 c 128,-1,2
 78 1329 78 1329 104 1356 c 128,-1,3
 130 1383 130 1383 166.5 1398 c 128,-1,4
 203 1413 203 1413 248 1413 c 256,5,6
 293 1413 293 1413 329.5 1398 c 128,-1,7
 366 1383 366 1383 392 1356 c 128,-1,8
 418 1329 418 1329 432 1291.5 c 128,-1,9
 446 1254 446 1254 446 1209 c 2,10,-1
 446 897 l 2,11,12
 446 867 446 867 435.5 833 c 128,-1,13
 425 799 425 799 390 770 c 1,14,15
 427 742 427 742 436.5 706 c 128,-1,16
 446 670 446 670 446 637 c 2,17,-1
 446 184 l 2,18,19
 446 139 446 139 432 101.5 c 128,-1,20
 418 64 418 64 392 37 c 128,-1,21
 366 10 366 10 329.5 -5 c 128,-1,22
 293 -20 293 -20 248 -20 c 256,23,24
 203 -20 203 -20 166.5 -5 c 128,-1,25
 130 10 130 10 104 37 c 128,-1,26
 78 64 78 64 64 101.5 c 128,-1,27
 50 139 50 139 50 184 c 2,28,-1
 50 543 l 1,29,-1
 125 543 l 1,30,-1
 125 183 l 2,31,32
 125 121 125 121 158 84 c 128,-1,33
 191 47 191 47 248 47 c 256,34,35
 305 47 305 47 338 84 c 128,-1,36
 371 121 371 121 371 183 c 2,37,-1
 371 642 l 2,38,39
 371 652 371 652 368 668 c 128,-1,40
 365 684 365 684 355 699 c 128,-1,41
 345 714 345 714 325.5 725 c 128,-1,42
 306 736 306 736 273 736 c 2,43,-1
 197 736 l 1,44,-1
 197 803 l 1,45,-1
 275 803 l 2,46,47
 308 803 308 803 327 814 c 128,-1,48
 346 825 346 825 356 840.5 c 128,-1,49
 366 856 366 856 368.5 872 c 128,-1,50
 371 888 371 888 371 897 c 2,51,-1
 371 1210 l 2,52,53
 371 1272 371 1272 338 1309 c 128,-1,54
 305 1346 305 1346 248 1346 c 256,55,56
 191 1346 191 1346 158 1309 c 128,-1,57
 125 1272 125 1272 125 1210 c 2,58,-1
 125 1024 l 1,59,-1
 50 1024 l 1,60,-1
 50 1209 l 2,0,1
EndSplineSet
EndChar

StartChar: four
Encoding: 52 52 23
Width: 529
Flags: W
LayerCount: 2
Fore
SplineSet
401 794 m 1,0,-1
 401 547 l 1,1,-1
 519 547 l 1,2,-1
 519 480 l 1,3,-1
 401 480 l 1,4,-1
 401 -1 l 1,5,-1
 326 -1 l 1,6,-1
 326 480 l 1,7,-1
 5 480 l 1,8,-1
 5 526 l 1,9,-1
 316 1392 l 1,10,-1
 389 1392 l 1,11,-1
 92 547 l 1,12,-1
 326 547 l 1,13,-1
 326 794 l 1,14,-1
 401 794 l 1,0,-1
EndSplineSet
EndChar

StartChar: five
Encoding: 53 53 24
Width: 506
Flags: W
LayerCount: 2
Fore
SplineSet
451 184 m 2,0,1
 451 139 451 139 437 101.5 c 128,-1,2
 423 64 423 64 397 37 c 128,-1,3
 371 10 371 10 334.5 -5 c 128,-1,4
 298 -20 298 -20 253 -20 c 256,5,6
 208 -20 208 -20 171.5 -5 c 128,-1,7
 135 10 135 10 109 37 c 128,-1,8
 83 64 83 64 69 101.5 c 128,-1,9
 55 139 55 139 55 184 c 2,10,-1
 55 546 l 1,11,-1
 130 546 l 1,12,-1
 130 183 l 2,13,14
 130 121 130 121 163 84 c 128,-1,15
 196 47 196 47 253 47 c 256,16,17
 310 47 310 47 343 84 c 128,-1,18
 376 121 376 121 376 183 c 2,19,-1
 376 679 l 2,20,21
 376 741 376 741 343 778 c 128,-1,22
 310 815 310 815 253 815 c 2,23,-1
 55 815 l 1,24,-1
 55 1393 l 1,25,-1
 451 1393 l 1,26,-1
 451 1326 l 1,27,-1
 130 1326 l 1,28,-1
 130 882 l 1,29,-1
 253 882 l 2,30,31
 298 882 298 882 334.5 867 c 128,-1,32
 371 852 371 852 397 825 c 128,-1,33
 423 798 423 798 437 760.5 c 128,-1,34
 451 723 451 723 451 678 c 2,35,-1
 451 184 l 2,0,1
EndSplineSet
EndChar

StartChar: six
Encoding: 54 54 25
Width: 476
Flags: W
LayerCount: 2
Fore
SplineSet
105 814 m 1,0,-1
 105 183 l 2,1,2
 105 121 105 121 138 84 c 128,-1,3
 171 47 171 47 228 47 c 256,4,5
 285 47 285 47 318 84 c 128,-1,6
 351 121 351 121 351 183 c 2,7,-1
 351 677 l 2,8,9
 351 740 351 740 318 777 c 128,-1,10
 285 814 285 814 228 814 c 2,11,-1
 105 814 l 1,0,-1
426 1064 m 1,12,-1
 351 1064 l 1,13,-1
 351 1210 l 2,14,15
 351 1272 351 1272 318 1309 c 128,-1,16
 285 1346 285 1346 228 1346 c 256,17,18
 171 1346 171 1346 138 1309 c 128,-1,19
 105 1272 105 1272 105 1210 c 2,20,-1
 105 881 l 1,21,-1
 228 881 l 2,22,23
 273 881 273 881 309.5 866 c 128,-1,24
 346 851 346 851 372 824 c 128,-1,25
 398 797 398 797 412 759.5 c 128,-1,26
 426 722 426 722 426 677 c 2,27,-1
 426 184 l 2,28,29
 426 139 426 139 412 101.5 c 128,-1,30
 398 64 398 64 372 37 c 128,-1,31
 346 10 346 10 309.5 -5 c 128,-1,32
 273 -20 273 -20 228 -20 c 256,33,34
 183 -20 183 -20 146.5 -5 c 128,-1,35
 110 10 110 10 84 37 c 128,-1,36
 58 64 58 64 44 101.5 c 128,-1,37
 30 139 30 139 30 184 c 2,38,-1
 30 1209 l 2,39,40
 30 1254 30 1254 44 1291.5 c 128,-1,41
 58 1329 58 1329 84 1356 c 128,-1,42
 110 1383 110 1383 146.5 1398 c 128,-1,43
 183 1413 183 1413 228 1413 c 256,44,45
 273 1413 273 1413 309.5 1398 c 128,-1,46
 346 1383 346 1383 372 1356 c 128,-1,47
 398 1329 398 1329 412 1291.5 c 128,-1,48
 426 1254 426 1254 426 1209 c 2,49,-1
 426 1064 l 1,12,-1
EndSplineSet
EndChar

StartChar: seven
Encoding: 55 55 26
Width: 427
Flags: W
LayerCount: 2
Fore
SplineSet
335 1326 m 1,0,-1
 15 1326 l 1,1,-1
 15 1393 l 1,2,-1
 412 1393 l 1,3,-1
 412 1340 l 1,4,-1
 167 0 l 1,5,-1
 92 0 l 1,6,-1
 335 1326 l 1,0,-1
EndSplineSet
EndChar

StartChar: eight
Encoding: 56 56 27
Width: 476
Flags: W
LayerCount: 2
Fore
SplineSet
115 183 m 2,0,1
 115 121 115 121 148.5 84 c 128,-1,2
 182 47 182 47 239 47 c 0,3,4
 295 47 295 47 328 84 c 128,-1,5
 361 121 361 121 361 183 c 2,6,-1
 361 556 l 2,7,8
 361 594 361 594 346.5 637 c 128,-1,9
 332 680 332 680 311 721 c 128,-1,10
 290 762 290 762 266 798.5 c 128,-1,11
 242 835 242 835 223 861 c 1,12,13
 206 836 206 836 187 799.5 c 128,-1,14
 168 763 168 763 152 721.5 c 128,-1,15
 136 680 136 680 125.5 637 c 128,-1,16
 115 594 115 594 115 556 c 2,17,-1
 115 183 l 2,0,1
306 871 m 1,18,19
 332 833 332 833 355.5 796.5 c 128,-1,20
 379 760 379 760 397 722.5 c 128,-1,21
 415 685 415 685 425.5 645 c 128,-1,22
 436 605 436 605 436 560 c 2,23,-1
 436 186 l 2,24,25
 436 141 436 141 422 103 c 128,-1,26
 408 65 408 65 382 37.5 c 128,-1,27
 356 10 356 10 320 -5 c 128,-1,28
 284 -20 284 -20 239 -20 c 256,29,30
 194 -20 194 -20 157 -5 c 128,-1,31
 120 10 120 10 94 37.5 c 128,-1,32
 68 65 68 65 54 102.5 c 128,-1,33
 40 140 40 140 40 185 c 2,34,-1
 40 560 l 2,35,36
 40 605 40 605 52 653 c 128,-1,37
 64 701 64 701 83.5 748 c 128,-1,38
 103 795 103 795 127 840 c 128,-1,39
 151 885 151 885 174 923 c 1,40,41
 147 956 147 956 123 990 c 128,-1,42
 99 1024 99 1024 81 1060 c 128,-1,43
 63 1096 63 1096 52 1134 c 128,-1,44
 41 1172 41 1172 41 1213 c 0,45,46
 41 1257 41 1257 56 1293.5 c 128,-1,47
 71 1330 71 1330 97.5 1356.5 c 128,-1,48
 124 1383 124 1383 160 1398 c 128,-1,49
 196 1413 196 1413 238 1413 c 0,50,51
 284 1413 284 1413 321 1398.5 c 128,-1,52
 358 1384 358 1384 383.5 1358 c 128,-1,53
 409 1332 409 1332 422.5 1296 c 128,-1,54
 436 1260 436 1260 436 1217 c 0,55,56
 436 1172 436 1172 425.5 1124.5 c 128,-1,57
 415 1077 415 1077 397 1032 c 128,-1,58
 379 987 379 987 355.5 945.5 c 128,-1,59
 332 904 332 904 306 871 c 1,18,19
239 1346 m 0,60,61
 210 1346 210 1346 187.5 1335 c 128,-1,62
 165 1324 165 1324 148.5 1306 c 128,-1,63
 132 1288 132 1288 123.5 1264 c 128,-1,64
 115 1240 115 1240 115 1214 c 0,65,66
 115 1176 115 1176 129 1135.5 c 128,-1,67
 143 1095 143 1095 164.5 1056 c 128,-1,68
 186 1017 186 1017 211.5 983 c 128,-1,69
 237 949 237 949 259 924 c 1,70,71
 284 952 284 952 303.5 988.5 c 128,-1,72
 323 1025 323 1025 336 1063.5 c 128,-1,73
 349 1102 349 1102 355.5 1140.5 c 128,-1,74
 362 1179 362 1179 362 1213 c 0,75,76
 362 1273 362 1273 331.5 1309.5 c 128,-1,77
 301 1346 301 1346 239 1346 c 0,60,61
EndSplineSet
EndChar

StartChar: nine
Encoding: 57 57 28
Width: 456
Flags: W
LayerCount: 2
Fore
SplineSet
100 940 m 2,0,1
 100 878 100 878 133 841 c 128,-1,2
 166 804 166 804 223 804 c 2,3,-1
 346 804 l 1,4,-1
 346 1209 l 2,5,6
 346 1272 346 1272 313 1309 c 128,-1,7
 280 1346 280 1346 223 1346 c 256,8,9
 166 1346 166 1346 133 1309 c 128,-1,10
 100 1272 100 1272 100 1210 c 2,11,-1
 100 940 l 2,0,1
25 1209 m 2,12,13
 25 1254 25 1254 39 1291.5 c 128,-1,14
 53 1329 53 1329 79 1356 c 128,-1,15
 105 1383 105 1383 141.5 1398 c 128,-1,16
 178 1413 178 1413 223 1413 c 256,17,18
 268 1413 268 1413 304.5 1398 c 128,-1,19
 341 1383 341 1383 367 1356 c 128,-1,20
 393 1329 393 1329 407 1291.5 c 128,-1,21
 421 1254 421 1254 421 1209 c 2,22,-1
 421 184 l 2,23,24
 421 139 421 139 407 101.5 c 128,-1,25
 393 64 393 64 367 37 c 128,-1,26
 341 10 341 10 304.5 -5 c 128,-1,27
 268 -20 268 -20 223 -20 c 256,28,29
 178 -20 178 -20 141.5 -5 c 128,-1,30
 105 10 105 10 79 37 c 128,-1,31
 53 64 53 64 39 101.5 c 128,-1,32
 25 139 25 139 25 184 c 2,33,-1
 25 412 l 1,34,-1
 100 412 l 1,35,-1
 100 183 l 2,36,37
 100 121 100 121 133 84 c 128,-1,38
 166 47 166 47 223 47 c 256,39,40
 280 47 280 47 313 84 c 128,-1,41
 346 121 346 121 346 184 c 2,42,-1
 346 737 l 1,43,-1
 223 737 l 2,44,45
 178 737 178 737 141.5 752 c 128,-1,46
 105 767 105 767 79 794 c 128,-1,47
 53 821 53 821 39 858.5 c 128,-1,48
 25 896 25 896 25 941 c 2,49,-1
 25 1209 l 2,12,13
EndSplineSet
EndChar

StartChar: colon
Encoding: 58 58 29
Width: 217
Flags: W
LayerCount: 2
Fore
SplineSet
60 992 m 0,0,1
 60 1010 60 1010 72.5 1024 c 128,-1,2
 85 1038 85 1038 108 1038 c 256,3,4
 131 1038 131 1038 144 1024 c 128,-1,5
 157 1010 157 1010 157 992 c 0,6,7
 157 975 157 975 144 961.5 c 128,-1,8
 131 948 131 948 108 948 c 0,9,10
 88 948 88 948 74 961.5 c 128,-1,11
 60 975 60 975 60 992 c 0,0,1
60 26 m 0,12,13
 60 42 60 42 72.5 56 c 128,-1,14
 85 70 85 70 108 70 c 256,15,16
 131 70 131 70 144 56 c 128,-1,17
 157 42 157 42 157 26 c 0,18,19
 157 6 157 6 144 -7 c 128,-1,20
 131 -20 131 -20 108 -20 c 0,21,22
 88 -20 88 -20 74 -7 c 128,-1,23
 60 6 60 6 60 26 c 0,12,13
EndSplineSet
EndChar

StartChar: semicolon
Encoding: 59 59 30
Width: 213
Flags: W
LayerCount: 2
Fore
SplineSet
56 992 m 0,0,1
 56 1010 56 1010 69 1024 c 128,-1,2
 82 1038 82 1038 105 1038 c 0,3,4
 130 1038 130 1038 141.5 1024 c 128,-1,5
 153 1010 153 1010 153 992 c 0,6,7
 153 975 153 975 141.5 961.5 c 128,-1,8
 130 948 130 948 105 948 c 0,9,10
 85 948 85 948 70.5 961.5 c 128,-1,11
 56 975 56 975 56 992 c 0,0,1
139 0 m 1,12,13
 136 -27 136 -27 127 -56 c 0,14,15
 119 -81 119 -81 106 -111.5 c 128,-1,16
 93 -142 93 -142 71 -173 c 1,17,-1
 20 -173 l 1,18,-1
 20 -139 l 1,19,20
 29 -128 29 -128 38.5 -111.5 c 128,-1,21
 48 -95 48 -95 55.5 -76.5 c 128,-1,22
 63 -58 63 -58 68 -38 c 128,-1,23
 73 -18 73 -18 74 0 c 1,24,-1
 40 0 l 1,25,-1
 40 92 l 1,26,-1
 139 92 l 1,27,-1
 139 0 l 1,12,13
EndSplineSet
EndChar

StartChar: less
Encoding: 60 60 31
Width: 750
Flags: W
LayerCount: 2
Fore
SplineSet
25 729 m 1,0,-1
 725 1204 l 1,1,-1
 725 1119 l 1,2,-1
 110 694 l 1,3,-1
 725 247 l 1,4,-1
 725 162 l 1,5,-1
 25 660 l 1,6,-1
 25 729 l 1,0,-1
EndSplineSet
EndChar

StartChar: equal
Encoding: 61 61 32
Width: 697
Flags: W
LayerCount: 2
Fore
SplineSet
672 568 m 1,0,-1
 672 499 l 1,1,-1
 25 499 l 1,2,-1
 25 568 l 1,3,-1
 672 568 l 1,0,-1
672 890 m 1,4,-1
 672 821 l 1,5,-1
 25 821 l 1,6,-1
 25 890 l 1,7,-1
 672 890 l 1,4,-1
EndSplineSet
EndChar

StartChar: greater
Encoding: 62 62 33
Width: 750
Flags: W
LayerCount: 2
Fore
SplineSet
725 660 m 1,0,-1
 25 162 l 1,1,-1
 25 247 l 1,2,-1
 640 694 l 1,3,-1
 25 1119 l 1,4,-1
 25 1204 l 1,5,-1
 725 729 l 1,6,-1
 725 660 l 1,0,-1
EndSplineSet
EndChar

StartChar: question
Encoding: 63 63 34
Width: 518
Flags: W
LayerCount: 2
Fore
SplineSet
413 1278 m 2,0,1
 413 1311 413 1311 402 1338.5 c 128,-1,2
 391 1366 391 1366 372 1386.5 c 128,-1,3
 353 1407 353 1407 326 1418.5 c 128,-1,4
 299 1430 299 1430 268 1430 c 0,5,6
 234 1430 234 1430 206.5 1418 c 128,-1,7
 179 1406 179 1406 160 1386 c 128,-1,8
 141 1366 141 1366 130.5 1338 c 128,-1,9
 120 1310 120 1310 120 1279 c 2,10,-1
 120 1159 l 1,11,-1
 45 1159 l 1,12,-1
 45 1279 l 2,13,14
 45 1328 45 1328 62.5 1368 c 128,-1,15
 80 1408 80 1408 110 1436.5 c 128,-1,16
 140 1465 140 1465 180.5 1481 c 128,-1,17
 221 1497 221 1497 266 1497 c 0,18,19
 315 1497 315 1497 356 1480 c 128,-1,20
 397 1463 397 1463 426.5 1433.5 c 128,-1,21
 456 1404 456 1404 472 1364.5 c 128,-1,22
 488 1325 488 1325 488 1279 c 2,23,-1
 488 1118 l 2,24,25
 488 1074 488 1074 476.5 1037.5 c 128,-1,26
 465 1001 465 1001 446 968.5 c 128,-1,27
 427 936 427 936 401 907 c 128,-1,28
 375 878 375 878 347 850 c 0,29,30
 322 825 322 825 296.5 800 c 128,-1,31
 271 775 271 775 250 747 c 128,-1,32
 229 719 229 719 216 686.5 c 128,-1,33
 203 654 203 654 203 613 c 2,34,-1
 203 372 l 1,35,-1
 127 372 l 1,36,-1
 127 613 l 2,37,38
 127 655 127 655 140 691 c 128,-1,39
 153 727 153 727 175.5 760.5 c 128,-1,40
 198 794 198 794 228.5 826.5 c 128,-1,41
 259 859 259 859 294 894 c 0,42,43
 318 918 318 918 340 942.5 c 128,-1,44
 362 967 362 967 378 994 c 128,-1,45
 394 1021 394 1021 403.5 1051.5 c 128,-1,46
 413 1082 413 1082 413 1118 c 2,47,-1
 413 1278 l 2,0,1
119 26 m 0,48,49
 119 42 119 42 132 56 c 128,-1,50
 145 70 145 70 168 70 c 256,51,52
 191 70 191 70 203.5 56 c 128,-1,53
 216 42 216 42 216 26 c 0,54,55
 216 6 216 6 203.5 -7 c 128,-1,56
 191 -20 191 -20 168 -20 c 0,57,58
 148 -20 148 -20 133.5 -7 c 128,-1,59
 119 6 119 6 119 26 c 0,48,49
EndSplineSet
EndChar

StartChar: at
Encoding: 64 64 35
Width: 828
Flags: W
LayerCount: 2
Fore
SplineSet
297 156 m 2,0,1
 297 109 297 109 322.5 78 c 128,-1,2
 348 47 348 47 395 47 c 0,3,4
 443 47 443 47 468.5 78 c 128,-1,5
 494 109 494 109 494 157 c 2,6,-1
 494 530 l 1,7,-1
 395 530 l 2,8,9
 348 530 348 530 322.5 499 c 128,-1,10
 297 468 297 468 297 421 c 2,11,-1
 297 156 l 2,0,1
631 46 m 256,12,13
 651 46 651 46 663 56.5 c 128,-1,14
 675 67 675 67 682 82.5 c 128,-1,15
 689 98 689 98 691 115.5 c 128,-1,16
 693 133 693 133 693 147 c 2,17,-1
 693 845 l 2,18,19
 693 917 693 917 680.5 975 c 128,-1,20
 668 1033 668 1033 636 1074 c 128,-1,21
 604 1115 604 1115 549 1137 c 128,-1,22
 494 1159 494 1159 409 1159 c 256,23,24
 324 1159 324 1159 269 1137 c 128,-1,25
 214 1115 214 1115 182 1074 c 128,-1,26
 150 1033 150 1033 137.5 975 c 128,-1,27
 125 917 125 917 125 845 c 2,28,-1
 125 173 l 2,29,30
 125 99 125 99 140.5 41 c 128,-1,31
 156 -17 156 -17 189.5 -57.5 c 128,-1,32
 223 -98 223 -98 275 -119.5 c 128,-1,33
 327 -141 327 -141 400 -141 c 0,34,35
 448 -141 448 -141 494.5 -130.5 c 128,-1,36
 541 -120 541 -120 580 -96 c 1,37,-1
 623 -140 l 1,38,39
 571 -176 571 -176 513 -191.5 c 128,-1,40
 455 -207 455 -207 393 -207 c 0,41,42
 304 -207 304 -207 239.5 -178.5 c 128,-1,43
 175 -150 175 -150 133 -99.5 c 128,-1,44
 91 -49 91 -49 70.5 20.5 c 128,-1,45
 50 90 50 90 50 172 c 2,46,-1
 50 847 l 2,47,48
 50 940 50 940 70.5 1011 c 128,-1,49
 91 1082 91 1082 134.5 1129.5 c 128,-1,50
 178 1177 178 1177 246 1201.5 c 128,-1,51
 314 1226 314 1226 409 1226 c 0,52,53
 598 1226 598 1226 683 1129.5 c 128,-1,54
 768 1033 768 1033 768 847 c 2,55,-1
 768 143 l 2,56,57
 768 70 768 70 733.5 25 c 128,-1,58
 699 -20 699 -20 630 -20 c 0,59,60
 595 -20 595 -20 569 -6 c 128,-1,61
 543 8 543 8 526 31 c 1,62,63
 504 7 504 7 471.5 -6.5 c 128,-1,64
 439 -20 439 -20 395 -20 c 0,65,66
 353 -20 353 -20 320.5 -6.5 c 128,-1,67
 288 7 288 7 266 31.5 c 128,-1,68
 244 56 244 56 233 89.5 c 128,-1,69
 222 123 222 123 222 163 c 2,70,-1
 222 414 l 2,71,72
 222 454 222 454 233 487.5 c 128,-1,73
 244 521 244 521 266 545.5 c 128,-1,74
 288 570 288 570 320.5 583.5 c 128,-1,75
 353 597 353 597 395 597 c 2,76,-1
 494 597 l 1,77,-1
 494 862 l 2,78,79
 494 908 494 908 468.5 939.5 c 128,-1,80
 443 971 443 971 395 971 c 0,81,82
 348 971 348 971 322.5 935 c 128,-1,83
 297 899 297 899 297 847 c 1,84,-1
 223 836 l 1,85,86
 223 879 223 879 234 916 c 128,-1,87
 245 953 245 953 266.5 980 c 128,-1,88
 288 1007 288 1007 320.5 1022.5 c 128,-1,89
 353 1038 353 1038 395 1038 c 0,90,91
 438 1038 438 1038 470.5 1024 c 128,-1,92
 503 1010 503 1010 525 985.5 c 128,-1,93
 547 961 547 961 558 927.5 c 128,-1,94
 569 894 569 894 569 855 c 2,95,-1
 569 147 l 2,96,97
 569 133 569 133 571 115.5 c 128,-1,98
 573 98 573 98 580 82.5 c 128,-1,99
 587 67 587 67 599 56.5 c 128,-1,100
 611 46 611 46 631 46 c 256,12,13
EndSplineSet
EndChar

StartChar: A
Encoding: 65 65 36
Width: 598
Flags: W
LayerCount: 2
Fore
SplineSet
508 0 m 1,0,-1
 433 0 l 1,1,-1
 433 579 l 1,2,-1
 155 579 l 1,3,-1
 155 0 l 1,4,-1
 80 0 l 1,5,-1
 80 1102 l 2,6,7
 80 1152 80 1152 84 1204 c 128,-1,8
 88 1256 88 1256 112.5 1298 c 128,-1,9
 137 1340 137 1340 189.5 1366.5 c 128,-1,10
 242 1393 242 1393 339 1393 c 2,11,-1
 508 1393 l 1,12,-1
 508 0 l 1,0,-1
362 1326 m 2,13,14
 308 1326 308 1326 269 1317 c 128,-1,15
 230 1308 230 1308 204.5 1286.5 c 128,-1,16
 179 1265 179 1265 167 1228 c 128,-1,17
 155 1191 155 1191 155 1135 c 2,18,-1
 155 646 l 1,19,-1
 433 646 l 1,20,-1
 433 1326 l 1,21,-1
 362 1326 l 2,13,14
EndSplineSet
EndChar

StartChar: B
Encoding: 66 66 37
Width: 599
Flags: W
LayerCount: 2
Fore
SplineSet
524 967 m 2,0,1
 524 881 524 881 494.5 828.5 c 128,-1,2
 465 776 465 776 425 752 c 1,3,4
 443 739 443 739 461 722 c 128,-1,5
 479 705 479 705 493 680 c 128,-1,6
 507 655 507 655 515.5 620.5 c 128,-1,7
 524 586 524 586 524 539 c 2,8,-1
 524 291 l 2,9,10
 524 258 524 258 523 223.5 c 128,-1,11
 522 189 522 189 514.5 156.5 c 128,-1,12
 507 124 507 124 491.5 95.5 c 128,-1,13
 476 67 476 67 447 46 c 128,-1,14
 418 25 418 25 374 12.5 c 128,-1,15
 330 0 330 0 265 0 c 2,16,-1
 80 0 l 1,17,-1
 80 1102 l 2,18,19
 80 1135 80 1135 81.5 1170 c 128,-1,20
 83 1205 83 1205 90 1237 c 128,-1,21
 97 1269 97 1269 113 1297.5 c 128,-1,22
 129 1326 129 1326 157.5 1347.5 c 128,-1,23
 186 1369 186 1369 230.5 1381 c 128,-1,24
 275 1393 275 1393 340 1393 c 2,25,-1
 524 1393 l 1,26,-1
 524 967 l 2,0,1
155 721 m 1,27,-1
 155 67 l 1,28,-1
 243 67 l 2,29,30
 297 67 297 67 335.5 76 c 128,-1,31
 374 85 374 85 399.5 107 c 128,-1,32
 425 129 425 129 437 166 c 128,-1,33
 449 203 449 203 449 259 c 2,34,-1
 449 529 l 2,35,36
 449 633 449 633 411.5 677 c 128,-1,37
 374 721 374 721 299 721 c 2,38,-1
 155 721 l 1,27,-1
299 788 m 2,39,40
 377 788 377 788 413 837 c 128,-1,41
 449 886 449 886 449 980 c 2,42,-1
 449 1326 l 1,43,-1
 361 1326 l 2,44,45
 308 1326 308 1326 269 1317 c 128,-1,46
 230 1308 230 1308 204.5 1286.5 c 128,-1,47
 179 1265 179 1265 167 1228 c 128,-1,48
 155 1191 155 1191 155 1135 c 2,49,-1
 155 788 l 1,50,-1
 299 788 l 2,39,40
EndSplineSet
EndChar

StartChar: C
Encoding: 67 67 38
Width: 558
Flags: W
LayerCount: 2
Fore
SplineSet
438 991 m 1,0,-1
 438 1327 l 1,1,-1
 351 1327 l 2,2,3
 297 1327 297 1327 258 1318.5 c 128,-1,4
 219 1310 219 1310 194 1288.5 c 128,-1,5
 169 1267 169 1267 157 1230 c 128,-1,6
 145 1193 145 1193 145 1137 c 2,7,-1
 145 243 l 2,8,9
 145 201 145 201 153.5 165.5 c 128,-1,10
 162 130 162 130 180.5 103.5 c 128,-1,11
 199 77 199 77 228.5 62 c 128,-1,12
 258 47 258 47 300 47 c 0,13,14
 369 47 369 47 403.5 87 c 128,-1,15
 438 127 438 127 438 202 c 2,16,-1
 438 383 l 1,17,-1
 513 383 l 1,18,-1
 513 201 l 2,19,20
 513 98 513 98 460 39 c 128,-1,21
 407 -20 407 -20 302 -20 c 0,22,23
 239 -20 239 -20 194.5 1 c 128,-1,24
 150 22 150 22 122.5 57.5 c 128,-1,25
 95 93 95 93 82.5 141 c 128,-1,26
 70 189 70 189 70 243 c 2,27,-1
 70 1103 l 2,28,29
 70 1136 70 1136 71 1170.5 c 128,-1,30
 72 1205 72 1205 79.5 1237.5 c 128,-1,31
 87 1270 87 1270 102.5 1298.5 c 128,-1,32
 118 1327 118 1327 146.5 1348 c 128,-1,33
 175 1369 175 1369 219.5 1381.5 c 128,-1,34
 264 1394 264 1394 328 1394 c 2,35,-1
 513 1394 l 1,36,-1
 513 991 l 1,37,-1
 438 991 l 1,0,-1
EndSplineSet
EndChar

StartChar: D
Encoding: 68 68 39
Width: 603
Flags: W
LayerCount: 2
Fore
SplineSet
533 291 m 2,0,1
 533 258 533 258 532 223.5 c 128,-1,2
 531 189 531 189 523.5 156.5 c 128,-1,3
 516 124 516 124 500.5 95.5 c 128,-1,4
 485 67 485 67 456.5 46 c 128,-1,5
 428 25 428 25 383.5 12.5 c 128,-1,6
 339 0 339 0 275 0 c 2,7,-1
 90 0 l 1,8,-1
 90 1393 l 1,9,-1
 275 1393 l 2,10,11
 339 1393 339 1393 383.5 1381 c 128,-1,12
 428 1369 428 1369 456.5 1347.5 c 128,-1,13
 485 1326 485 1326 500.5 1297.5 c 128,-1,14
 516 1269 516 1269 523.5 1237 c 128,-1,15
 531 1205 531 1205 532 1170 c 128,-1,16
 533 1135 533 1135 533 1102 c 2,17,-1
 533 291 l 2,0,1
458 1135 m 2,18,19
 458 1191 458 1191 446 1228 c 128,-1,20
 434 1265 434 1265 409 1286.5 c 128,-1,21
 384 1308 384 1308 345.5 1317 c 128,-1,22
 307 1326 307 1326 253 1326 c 2,23,-1
 165 1326 l 1,24,-1
 165 67 l 1,25,-1
 253 67 l 2,26,27
 307 67 307 67 345.5 75.5 c 128,-1,28
 384 84 384 84 409 105.5 c 128,-1,29
 434 127 434 127 446 164 c 128,-1,30
 458 201 458 201 458 257 c 2,31,-1
 458 1135 l 2,18,19
EndSplineSet
EndChar

StartChar: E
Encoding: 69 69 40
Width: 506
Flags: W
LayerCount: 2
Fore
SplineSet
155 788 m 1,0,-1
 447 788 l 1,1,-1
 447 721 l 1,2,-1
 155 721 l 1,3,-1
 155 67 l 1,4,-1
 471 67 l 1,5,-1
 471 0 l 1,6,-1
 80 0 l 1,7,-1
 80 1102 l 2,8,9
 80 1135 80 1135 81.5 1170 c 128,-1,10
 83 1205 83 1205 90 1237 c 128,-1,11
 97 1269 97 1269 113 1297.5 c 128,-1,12
 129 1326 129 1326 157.5 1347.5 c 128,-1,13
 186 1369 186 1369 230.5 1381 c 128,-1,14
 275 1393 275 1393 340 1393 c 2,15,-1
 446 1393 l 1,16,-1
 446 1326 l 1,17,-1
 361 1326 l 2,18,19
 308 1326 308 1326 269 1317 c 128,-1,20
 230 1308 230 1308 204.5 1286.5 c 128,-1,21
 179 1265 179 1265 167 1228 c 128,-1,22
 155 1191 155 1191 155 1135 c 2,23,-1
 155 788 l 1,0,-1
EndSplineSet
EndChar

StartChar: F
Encoding: 70 70 41
Width: 506
Flags: W
LayerCount: 2
Fore
SplineSet
80 1102 m 2,0,1
 80 1135 80 1135 81.5 1170 c 128,-1,2
 83 1205 83 1205 90 1237 c 128,-1,3
 97 1269 97 1269 113 1297.5 c 128,-1,4
 129 1326 129 1326 157.5 1347.5 c 128,-1,5
 186 1369 186 1369 230.5 1381 c 128,-1,6
 275 1393 275 1393 340 1393 c 2,7,-1
 471 1393 l 1,8,-1
 471 1326 l 1,9,-1
 361 1326 l 2,10,11
 307 1326 307 1326 268.5 1317 c 128,-1,12
 230 1308 230 1308 204.5 1286.5 c 128,-1,13
 179 1265 179 1265 167 1228 c 128,-1,14
 155 1191 155 1191 155 1135 c 2,15,-1
 155 757 l 1,16,-1
 460 757 l 1,17,-1
 460 690 l 1,18,-1
 155 690 l 1,19,-1
 155 0 l 1,20,-1
 80 0 l 1,21,-1
 80 1102 l 2,0,1
EndSplineSet
EndChar

StartChar: G
Encoding: 71 71 42
Width: 573
Flags: W
LayerCount: 2
Fore
SplineSet
513 994 m 1,0,-1
 438 994 l 1,1,-1
 438 1326 l 1,2,-1
 351 1326 l 2,3,4
 298 1326 298 1326 259 1317 c 128,-1,5
 220 1308 220 1308 194.5 1286.5 c 128,-1,6
 169 1265 169 1265 157 1228 c 128,-1,7
 145 1191 145 1191 145 1135 c 2,8,-1
 145 199 l 2,9,10
 145 166 145 166 156 138.5 c 128,-1,11
 167 111 167 111 186 90.5 c 128,-1,12
 205 70 205 70 231.5 58.5 c 128,-1,13
 258 47 258 47 290 47 c 0,14,15
 324 47 324 47 351 59 c 128,-1,16
 378 71 378 71 397.5 91.5 c 128,-1,17
 417 112 417 112 427.5 139.5 c 128,-1,18
 438 167 438 167 438 199 c 2,19,-1
 438 657 l 1,20,-1
 311 657 l 1,21,-1
 311 724 l 1,22,-1
 513 724 l 1,23,-1
 513 198 l 2,24,25
 513 150 513 150 495.5 110 c 128,-1,26
 478 70 478 70 448 41 c 128,-1,27
 418 12 418 12 377.5 -4 c 128,-1,28
 337 -20 337 -20 291 -20 c 0,29,30
 243 -20 243 -20 202.5 -3 c 128,-1,31
 162 14 162 14 132.5 43 c 128,-1,32
 103 72 103 72 86.5 112 c 128,-1,33
 70 152 70 152 70 198 c 2,34,-1
 70 1102 l 2,35,36
 70 1135 70 1135 71.5 1170 c 128,-1,37
 73 1205 73 1205 80 1237 c 128,-1,38
 87 1269 87 1269 103 1297.5 c 128,-1,39
 119 1326 119 1326 147.5 1347.5 c 128,-1,40
 176 1369 176 1369 220.5 1381 c 128,-1,41
 265 1393 265 1393 330 1393 c 2,42,-1
 513 1393 l 1,43,-1
 513 994 l 1,0,-1
EndSplineSet
EndChar

StartChar: H
Encoding: 72 72 43
Width: 623
Flags: W
LayerCount: 2
Fore
SplineSet
533 0 m 1,0,-1
 458 0 l 1,1,-1
 458 721 l 1,2,-1
 165 721 l 1,3,-1
 165 0 l 1,4,-1
 90 0 l 1,5,-1
 90 1393 l 1,6,-1
 165 1393 l 1,7,-1
 165 788 l 1,8,-1
 458 788 l 1,9,-1
 458 1393 l 1,10,-1
 533 1393 l 1,11,-1
 533 0 l 1,0,-1
EndSplineSet
EndChar

StartChar: I
Encoding: 73 73 44
Width: 255
Flags: W
LayerCount: 2
Fore
SplineSet
90 1393 m 1,0,-1
 165 1393 l 1,1,-1
 165 0 l 1,2,-1
 90 0 l 1,3,-1
 90 1393 l 1,0,-1
EndSplineSet
EndChar

StartChar: J
Encoding: 74 74 45
Width: 276
Flags: W
LayerCount: 2
Fore
SplineSet
-74 -204 m 1,0,1
 -66 -205 -66 -205 -61 -205 c 128,-1,2
 -56 -205 -56 -205 -51 -205 c 0,3,4
 -12 -205 -12 -205 18 -195 c 128,-1,5
 48 -185 48 -185 68.5 -161.5 c 128,-1,6
 89 -138 89 -138 100 -99 c 128,-1,7
 111 -60 111 -60 111 -2 c 2,8,-1
 111 1393 l 1,9,-1
 186 1393 l 1,10,-1
 186 -6 l 2,11,12
 186 -32 186 -32 184 -62 c 128,-1,13
 182 -92 182 -92 174 -121.5 c 128,-1,14
 166 -151 166 -151 150 -178 c 128,-1,15
 134 -205 134 -205 106.5 -226 c 128,-1,16
 79 -247 79 -247 38 -259.5 c 128,-1,17
 -3 -272 -3 -272 -61 -272 c 1,18,-1
 -80 -271 l 1,19,-1
 -74 -204 l 1,0,1
EndSplineSet
EndChar

StartChar: K
Encoding: 75 75 46
Width: 593
Flags: W
LayerCount: 2
Fore
SplineSet
534 1393 m 1,0,-1
 534 1317 l 2,1,2
 534 1197 534 1197 526.5 1101.5 c 128,-1,3
 519 1006 519 1006 503.5 929.5 c 128,-1,4
 488 853 488 853 463 794 c 128,-1,5
 438 735 438 735 403 689 c 1,6,-1
 562 0 l 1,7,-1
 482 0 l 1,8,-1
 343 625 l 1,9,10
 306 593 306 593 262 567.5 c 128,-1,11
 218 542 218 542 165 520 c 1,12,-1
 165 0 l 1,13,-1
 90 0 l 1,14,-1
 90 1393 l 1,15,-1
 165 1393 l 1,16,-1
 165 602 l 1,17,18
 193 614 193 614 226 630.5 c 128,-1,19
 259 647 259 647 291.5 675 c 128,-1,20
 324 703 324 703 354.5 746.5 c 128,-1,21
 385 790 385 790 408 855.5 c 128,-1,22
 431 921 431 921 445 1013.5 c 128,-1,23
 459 1106 459 1106 459 1232 c 2,24,-1
 459 1393 l 1,25,-1
 534 1393 l 1,0,-1
EndSplineSet
EndChar

StartChar: L
Encoding: 76 76 47
Width: 479
Flags: W
LayerCount: 2
Fore
SplineSet
368 1346 m 1,0,1
 318 1346 318 1346 279 1337 c 128,-1,2
 240 1328 240 1328 212 1306 c 128,-1,3
 184 1284 184 1284 169.5 1247 c 128,-1,4
 155 1210 155 1210 155 1155 c 2,5,-1
 155 67 l 1,6,-1
 474 67 l 1,7,-1
 474 0 l 1,8,-1
 80 0 l 1,9,-1
 80 1122 l 2,10,11
 80 1155 80 1155 81.5 1189.5 c 128,-1,12
 83 1224 83 1224 91 1256.5 c 128,-1,13
 99 1289 99 1289 116 1317.5 c 128,-1,14
 133 1346 133 1346 165 1367 c 128,-1,15
 197 1388 197 1388 246.5 1400.5 c 128,-1,16
 296 1413 296 1413 368 1413 c 1,17,-1
 368 1346 l 1,0,1
EndSplineSet
EndChar

StartChar: M
Encoding: 77 77 48
Width: 784
Flags: W
LayerCount: 2
Fore
SplineSet
160 1311 m 1,0,-1
 160 0 l 1,1,-1
 85 0 l 1,2,-1
 85 1393 l 1,3,-1
 149 1393 l 1,4,5
 235 1349 235 1349 294.5 1288 c 128,-1,6
 354 1227 354 1227 390 1130 c 1,7,-1
 395 1130 l 1,8,9
 431 1227 431 1227 490 1288 c 128,-1,10
 549 1349 549 1349 637 1393 c 1,11,-1
 699 1393 l 1,12,-1
 699 0 l 1,13,-1
 624 0 l 1,14,-1
 624 1311 l 1,15,16
 594 1299 594 1299 559 1267 c 128,-1,17
 524 1235 524 1235 494 1185 c 128,-1,18
 464 1135 464 1135 444 1068 c 128,-1,19
 424 1001 424 1001 424 918 c 2,20,-1
 424 893 l 1,21,-1
 359 893 l 1,22,-1
 359 918 l 2,23,24
 359 1001 359 1001 339.5 1068 c 128,-1,25
 320 1135 320 1135 291 1184.5 c 128,-1,26
 262 1234 262 1234 226.5 1266 c 128,-1,27
 191 1298 191 1298 160 1311 c 1,0,-1
EndSplineSet
EndChar

StartChar: N
Encoding: 78 78 49
Width: 614
Flags: W
LayerCount: 2
Fore
SplineSet
454 1130 m 1,0,-1
 454 1393 l 1,1,-1
 529 1393 l 1,2,-1
 529 0 l 1,3,-1
 454 0 l 1,4,-1
 454 759 l 2,5,6
 454 880 454 880 430.5 972 c 128,-1,7
 407 1064 407 1064 367 1131 c 128,-1,8
 327 1198 327 1198 273.5 1242 c 128,-1,9
 220 1286 220 1286 160 1311 c 1,10,-1
 160 0 l 1,11,-1
 85 0 l 1,12,-1
 85 1393 l 1,13,-1
 145 1393 l 1,14,15
 193 1378 193 1378 237.5 1353.5 c 128,-1,16
 282 1329 282 1329 321.5 1295.5 c 128,-1,17
 361 1262 361 1262 393 1220.5 c 128,-1,18
 425 1179 425 1179 448 1130 c 1,19,-1
 454 1130 l 1,0,-1
EndSplineSet
EndChar

StartChar: O
Encoding: 79 79 50
Width: 588
Flags: W
LayerCount: 2
Fore
SplineSet
508 262 m 2,0,1
 508 207 508 207 498 156 c 128,-1,2
 488 105 488 105 462.5 66 c 128,-1,3
 437 27 437 27 393.5 3.5 c 128,-1,4
 350 -20 350 -20 284 -20 c 0,5,6
 222 -20 222 -20 180 2.5 c 128,-1,7
 138 25 138 25 112.5 63 c 128,-1,8
 87 101 87 101 76 152.5 c 128,-1,9
 65 204 65 204 65 262 c 2,10,-1
 65 1121 l 2,11,12
 65 1154 65 1154 66.5 1189 c 128,-1,13
 68 1224 68 1224 75 1256 c 128,-1,14
 82 1288 82 1288 98 1316.5 c 128,-1,15
 114 1345 114 1345 142.5 1366.5 c 128,-1,16
 171 1388 171 1388 215.5 1400 c 128,-1,17
 260 1412 260 1412 325 1412 c 2,18,-1
 508 1412 l 1,19,-1
 508 262 l 2,0,1
433 1345 m 1,20,-1
 346 1345 l 2,21,22
 293 1345 293 1345 254 1336 c 128,-1,23
 215 1327 215 1327 189.5 1305.5 c 128,-1,24
 164 1284 164 1284 152 1247 c 128,-1,25
 140 1210 140 1210 140 1154 c 2,26,-1
 140 229 l 2,27,28
 140 193 140 193 147.5 160.5 c 128,-1,29
 155 128 155 128 172.5 102.5 c 128,-1,30
 190 77 190 77 218 62 c 128,-1,31
 246 47 246 47 288 47 c 0,32,33
 328 47 328 47 355.5 61.5 c 128,-1,34
 383 76 383 76 400 101 c 128,-1,35
 417 126 417 126 425 159 c 128,-1,36
 433 192 433 192 433 229 c 2,37,-1
 433 1345 l 1,20,-1
EndSplineSet
EndChar

StartChar: P
Encoding: 80 80 51
Width: 554
Flags: W
LayerCount: 2
Fore
SplineSet
524 1317 m 2,0,1
 524 1125 524 1125 505 992.5 c 128,-1,2
 486 860 486 860 442.5 769.5 c 128,-1,3
 399 679 399 679 328.5 621 c 128,-1,4
 258 563 258 563 155 520 c 1,5,-1
 155 0 l 1,6,-1
 80 0 l 1,7,-1
 80 1102 l 2,8,9
 80 1152 80 1152 84.5 1204 c 128,-1,10
 89 1256 89 1256 113.5 1298 c 128,-1,11
 138 1340 138 1340 191 1366.5 c 128,-1,12
 244 1393 244 1393 341 1393 c 2,13,-1
 524 1393 l 1,14,-1
 524 1317 l 2,0,1
155 597 m 1,15,16
 183 609 183 609 216 626 c 128,-1,17
 249 643 249 643 281.5 671.5 c 128,-1,18
 314 700 314 700 344.5 744 c 128,-1,19
 375 788 375 788 398 854.5 c 128,-1,20
 421 921 421 921 435 1013.5 c 128,-1,21
 449 1106 449 1106 449 1232 c 2,22,-1
 449 1326 l 1,23,-1
 361 1326 l 2,24,25
 308 1326 308 1326 269 1317 c 128,-1,26
 230 1308 230 1308 204.5 1286.5 c 128,-1,27
 179 1265 179 1265 167 1228 c 128,-1,28
 155 1191 155 1191 155 1135 c 2,29,-1
 155 597 l 1,15,16
EndSplineSet
EndChar

StartChar: Q
Encoding: 81 81 52
Width: 588
Flags: W
LayerCount: 2
Fore
SplineSet
513 262 m 2,0,1
 513 210 513 210 504 161.5 c 128,-1,2
 495 113 495 113 473 75 c 128,-1,3
 451 37 451 37 413 12 c 128,-1,4
 375 -13 375 -13 318 -18 c 1,5,6
 324 -56 324 -56 336 -90 c 128,-1,7
 348 -124 348 -124 370.5 -149.5 c 128,-1,8
 393 -175 393 -175 427.5 -190.5 c 128,-1,9
 462 -206 462 -206 512 -207 c 1,10,-1
 509 -272 l 1,11,12
 444 -272 444 -272 397.5 -248 c 128,-1,13
 351 -224 351 -224 319 -187 c 128,-1,14
 287 -150 287 -150 268.5 -104.5 c 128,-1,15
 250 -59 250 -59 243 -16 c 1,16,17
 195 -8 195 -8 161.5 16.5 c 128,-1,18
 128 41 128 41 108 78 c 128,-1,19
 88 115 88 115 79 162 c 128,-1,20
 70 209 70 209 70 262 c 2,21,-1
 70 1102 l 2,22,23
 70 1135 70 1135 71.5 1170 c 128,-1,24
 73 1205 73 1205 80 1237 c 128,-1,25
 87 1269 87 1269 103 1297.5 c 128,-1,26
 119 1326 119 1326 147.5 1347.5 c 128,-1,27
 176 1369 176 1369 220.5 1381 c 128,-1,28
 265 1393 265 1393 330 1393 c 2,29,-1
 513 1393 l 1,30,-1
 513 262 l 2,0,1
438 1326 m 1,31,-1
 351 1326 l 2,32,33
 298 1326 298 1326 259 1317 c 128,-1,34
 220 1308 220 1308 194.5 1286.5 c 128,-1,35
 169 1265 169 1265 157 1228 c 128,-1,36
 145 1191 145 1191 145 1135 c 2,37,-1
 145 229 l 2,38,39
 145 193 145 193 152.5 160.5 c 128,-1,40
 160 128 160 128 177.5 102.5 c 128,-1,41
 195 77 195 77 223 62 c 128,-1,42
 251 47 251 47 293 47 c 0,43,44
 333 47 333 47 360.5 61.5 c 128,-1,45
 388 76 388 76 405 101 c 128,-1,46
 422 126 422 126 430 159 c 128,-1,47
 438 192 438 192 438 229 c 2,48,-1
 438 1326 l 1,31,-1
EndSplineSet
EndChar

StartChar: R
Encoding: 82 82 53
Width: 577
Flags: W
LayerCount: 2
Fore
SplineSet
523 1317 m 2,0,1
 523 1197 523 1197 515.5 1101.5 c 128,-1,2
 508 1006 508 1006 492.5 929.5 c 128,-1,3
 477 853 477 853 452 794 c 128,-1,4
 427 735 427 735 392 689 c 1,5,6
 396 673 396 673 404.5 634.5 c 128,-1,7
 413 596 413 596 425 544.5 c 128,-1,8
 437 493 437 493 451 432.5 c 128,-1,9
 465 372 465 372 479 311.5 c 128,-1,10
 493 251 493 251 506 195 c 128,-1,11
 519 139 519 139 529 95.5 c 128,-1,12
 539 52 539 52 551 0 c 1,13,-1
 471 0 l 1,14,-1
 332 625 l 1,15,16
 295 593 295 593 251 567.5 c 128,-1,17
 207 542 207 542 154 520 c 1,18,-1
 154 0 l 1,19,-1
 80 0 l 1,20,-1
 80 1102 l 2,21,22
 80 1135 80 1135 81.5 1170 c 128,-1,23
 83 1205 83 1205 90 1237 c 128,-1,24
 97 1269 97 1269 113 1297.5 c 128,-1,25
 129 1326 129 1326 157.5 1347.5 c 128,-1,26
 186 1369 186 1369 230.5 1381 c 128,-1,27
 275 1393 275 1393 340 1393 c 2,28,-1
 523 1393 l 1,29,-1
 523 1317 l 2,0,1
154 602 m 1,30,31
 182 614 182 614 215 630.5 c 128,-1,32
 248 647 248 647 280.5 675 c 128,-1,33
 313 703 313 703 343.5 746.5 c 128,-1,34
 374 790 374 790 397 855.5 c 128,-1,35
 420 921 420 921 434 1013.5 c 128,-1,36
 448 1106 448 1106 448 1232 c 2,37,-1
 448 1326 l 1,38,-1
 360 1326 l 2,39,40
 307 1326 307 1326 268 1317 c 128,-1,41
 229 1308 229 1308 203.5 1286.5 c 128,-1,42
 178 1265 178 1265 166 1228 c 128,-1,43
 154 1191 154 1191 154 1135 c 2,44,-1
 154 602 l 1,30,31
EndSplineSet
EndChar

StartChar: S
Encoding: 83 83 54
Width: 563
Flags: W
LayerCount: 2
Fore
SplineSet
135 199 m 2,0,1
 135 166 135 166 146 138.5 c 128,-1,2
 157 111 157 111 176 90.5 c 128,-1,3
 195 70 195 70 221.5 58.5 c 128,-1,4
 248 47 248 47 280 47 c 0,5,6
 314 47 314 47 341 59 c 128,-1,7
 368 71 368 71 387.5 91.5 c 128,-1,8
 407 112 407 112 417.5 139.5 c 128,-1,9
 428 167 428 167 428 199 c 2,10,-1
 428 539 l 2,11,12
 428 574 428 574 414 605 c 128,-1,13
 400 636 400 636 376.5 665 c 128,-1,14
 353 694 353 694 323 721 c 128,-1,15
 293 748 293 748 262 774 c 0,16,17
 225 805 225 805 188.5 837 c 128,-1,18
 152 869 152 869 123.5 905 c 128,-1,19
 95 941 95 941 77.5 982 c 128,-1,20
 60 1023 60 1023 60 1073 c 2,21,-1
 60 1195 l 2,22,23
 60 1243 60 1243 77.5 1283.5 c 128,-1,24
 95 1324 95 1324 125 1352.5 c 128,-1,25
 155 1381 155 1381 195.5 1397 c 128,-1,26
 236 1413 236 1413 281 1413 c 0,27,28
 329 1413 329 1413 369.5 1396 c 128,-1,29
 410 1379 410 1379 440 1349.5 c 128,-1,30
 470 1320 470 1320 486.5 1280.5 c 128,-1,31
 503 1241 503 1241 503 1195 c 2,32,-1
 503 990 l 1,33,-1
 428 990 l 1,34,-1
 428 1194 l 2,35,36
 428 1227 428 1227 417 1254.5 c 128,-1,37
 406 1282 406 1282 387 1302.5 c 128,-1,38
 368 1323 368 1323 341 1334.5 c 128,-1,39
 314 1346 314 1346 283 1346 c 0,40,41
 249 1346 249 1346 221.5 1334 c 128,-1,42
 194 1322 194 1322 175 1301.5 c 128,-1,43
 156 1281 156 1281 145.5 1253.5 c 128,-1,44
 135 1226 135 1226 135 1194 c 2,45,-1
 135 1073 l 2,46,47
 135 1036 135 1036 150 1003.5 c 128,-1,48
 165 971 165 971 189.5 941.5 c 128,-1,49
 214 912 214 912 245 885 c 128,-1,50
 276 858 276 858 308 831 c 0,51,52
 344 801 344 801 379 769 c 128,-1,53
 414 737 414 737 441.5 701 c 128,-1,54
 469 665 469 665 486 625 c 128,-1,55
 503 585 503 585 503 539 c 2,56,-1
 503 198 l 2,57,58
 503 150 503 150 485.5 110 c 128,-1,59
 468 70 468 70 438 41 c 128,-1,60
 408 12 408 12 367.5 -4 c 128,-1,61
 327 -20 327 -20 281 -20 c 0,62,63
 233 -20 233 -20 192.5 -3 c 128,-1,64
 152 14 152 14 122.5 43 c 128,-1,65
 93 72 93 72 76.5 112 c 128,-1,66
 60 152 60 152 60 198 c 2,67,-1
 60 414 l 1,68,-1
 135 414 l 1,69,-1
 135 199 l 2,0,1
EndSplineSet
EndChar

StartChar: T
Encoding: 84 84 55
Width: 456
Flags: W
LayerCount: 2
Fore
SplineSet
451 1393 m 1,0,-1
 451 1326 l 1,1,-1
 266 1326 l 1,2,-1
 266 0 l 1,3,-1
 191 0 l 1,4,-1
 191 1326 l 1,5,-1
 5 1326 l 1,6,-1
 5 1393 l 1,7,-1
 451 1393 l 1,0,-1
EndSplineSet
EndChar

StartChar: U
Encoding: 85 85 56
Width: 603
Flags: W
LayerCount: 2
Fore
SplineSet
523 262 m 2,0,1
 523 207 523 207 513 156 c 128,-1,2
 503 105 503 105 477.5 66 c 128,-1,3
 452 27 452 27 408.5 3.5 c 128,-1,4
 365 -20 365 -20 299 -20 c 0,5,6
 237 -20 237 -20 195 2.5 c 128,-1,7
 153 25 153 25 127.5 63 c 128,-1,8
 102 101 102 101 91 152.5 c 128,-1,9
 80 204 80 204 80 262 c 2,10,-1
 80 1393 l 1,11,-1
 155 1393 l 1,12,-1
 155 229 l 2,13,14
 155 193 155 193 162.5 160.5 c 128,-1,15
 170 128 170 128 187.5 102.5 c 128,-1,16
 205 77 205 77 233 62 c 128,-1,17
 261 47 261 47 303 47 c 0,18,19
 343 47 343 47 370.5 61.5 c 128,-1,20
 398 76 398 76 415 101 c 128,-1,21
 432 126 432 126 440 159 c 128,-1,22
 448 192 448 192 448 229 c 2,23,-1
 448 1393 l 1,24,-1
 523 1393 l 1,25,-1
 523 262 l 2,0,1
EndSplineSet
EndChar

StartChar: V
Encoding: 86 86 57
Width: 584
Flags: W
LayerCount: 2
Fore
SplineSet
160 82 m 1,0,1
 188 94 188 94 221 111.5 c 128,-1,2
 254 129 254 129 286.5 159 c 128,-1,3
 319 189 319 189 349.5 234 c 128,-1,4
 380 279 380 279 403 346.5 c 128,-1,5
 426 414 426 414 440 507.5 c 128,-1,6
 454 601 454 601 454 727 c 2,7,-1
 454 1393 l 1,8,-1
 529 1393 l 1,9,-1
 529 812 l 2,10,11
 529 682 529 682 520.5 579 c 128,-1,12
 512 476 512 476 493 395.5 c 128,-1,13
 474 315 474 315 444 254 c 128,-1,14
 414 193 414 193 371.5 146 c 128,-1,15
 329 99 329 99 272.5 63.5 c 128,-1,16
 216 28 216 28 145 0 c 1,17,-1
 85 0 l 1,18,-1
 85 1393 l 1,19,-1
 160 1393 l 1,20,-1
 160 82 l 1,0,1
EndSplineSet
EndChar

StartChar: W
Encoding: 87 87 58
Width: 871
Flags: W
LayerCount: 2
Fore
SplineSet
488 82 m 1,0,1
 511 94 511 94 539 111.5 c 128,-1,2
 567 129 567 129 595 158 c 128,-1,3
 623 187 623 187 649.5 232 c 128,-1,4
 676 277 676 277 696.5 344.5 c 128,-1,5
 717 412 717 412 729 506 c 128,-1,6
 741 600 741 600 741 727 c 2,7,-1
 741 1393 l 1,8,-1
 816 1393 l 1,9,-1
 816 812 l 2,10,11
 816 681 816 681 808.5 578 c 128,-1,12
 801 475 801 475 784 394 c 128,-1,13
 767 313 767 313 740.5 251.5 c 128,-1,14
 714 190 714 190 676 143.5 c 128,-1,15
 638 97 638 97 588 62.5 c 128,-1,16
 538 28 538 28 475 0 c 1,17,-1
 417 0 l 1,18,-1
 417 253 l 1,19,-1
 413 253 l 1,20,21
 393 206 393 206 366.5 168.5 c 128,-1,22
 340 131 340 131 307 100.5 c 128,-1,23
 274 70 274 70 234.5 45.5 c 128,-1,24
 195 21 195 21 147 0 c 1,25,-1
 85 0 l 1,26,-1
 85 1393 l 1,27,-1
 160 1393 l 1,28,-1
 160 82 l 1,29,30
 200 99 200 99 245 137.5 c 128,-1,31
 290 176 290 176 328.5 236 c 128,-1,32
 367 296 367 296 392 377 c 128,-1,33
 417 458 417 458 417 560 c 2,34,-1
 417 1393 l 1,35,-1
 488 1393 l 1,36,-1
 488 82 l 1,0,1
EndSplineSet
EndChar

StartChar: X
Encoding: 88 88 59
Width: 517
Flags: W
LayerCount: 2
Fore
SplineSet
502 1214 m 2,0,1
 502 1095 502 1095 488 1011.5 c 128,-1,2
 474 928 474 928 449.5 867 c 128,-1,3
 425 806 425 806 392.5 761.5 c 128,-1,4
 360 717 360 717 323 676 c 1,5,6
 353 639 353 639 379.5 596 c 128,-1,7
 406 553 406 553 425 495.5 c 128,-1,8
 444 438 444 438 455 361.5 c 128,-1,9
 466 285 466 285 466 181 c 2,10,-1
 466 0 l 1,11,-1
 391 0 l 1,12,-1
 391 178 l 2,13,14
 391 277 391 277 378.5 353.5 c 128,-1,15
 366 430 366 430 345.5 489 c 128,-1,16
 325 548 325 548 297.5 591 c 128,-1,17
 270 634 270 634 240 664 c 1,18,19
 210 634 210 634 183 590.5 c 128,-1,20
 156 547 156 547 135 487.5 c 128,-1,21
 114 428 114 428 102 351.5 c 128,-1,22
 90 275 90 275 90 178 c 2,23,-1
 90 0 l 1,24,-1
 15 0 l 1,25,-1
 15 184 l 2,26,27
 15 309 15 309 29 393 c 128,-1,28
 43 477 43 477 67.5 535.5 c 128,-1,29
 92 594 92 594 124.5 635 c 128,-1,30
 157 676 157 676 194 717 c 1,31,32
 164 753 164 753 137.5 793 c 128,-1,33
 111 833 111 833 92 889.5 c 128,-1,34
 73 946 73 946 62 1023.5 c 128,-1,35
 51 1101 51 1101 51 1211 c 2,36,-1
 51 1393 l 1,37,-1
 126 1393 l 1,38,-1
 126 1217 l 2,39,40
 126 1120 126 1120 138 1043 c 128,-1,41
 150 966 150 966 171 907 c 128,-1,42
 192 848 192 848 219 804.5 c 128,-1,43
 246 761 246 761 276 731 c 1,44,45
 306 761 306 761 333.5 804 c 128,-1,46
 361 847 361 847 381.5 906 c 128,-1,47
 402 965 402 965 414.5 1041.5 c 128,-1,48
 427 1118 427 1118 427 1217 c 2,49,-1
 427 1393 l 1,50,-1
 502 1393 l 1,51,-1
 502 1214 l 2,0,1
EndSplineSet
EndChar

StartChar: Y
Encoding: 89 89 60
Width: 471
Flags: W
LayerCount: 2
Fore
SplineSet
274 2 m 1,0,-1
 199 2 l 1,1,-1
 199 667 l 1,2,3
 160 709 160 709 126 751 c 128,-1,4
 92 793 92 793 66 852 c 128,-1,5
 40 911 40 911 25 996.5 c 128,-1,6
 10 1082 10 1082 10 1211 c 2,7,-1
 10 1393 l 1,8,-1
 85 1393 l 1,9,-1
 85 1217 l 2,10,11
 85 1120 85 1120 97 1043.5 c 128,-1,12
 109 967 109 967 130 908.5 c 128,-1,13
 151 850 151 850 178 807 c 128,-1,14
 205 764 205 764 235 734 c 1,15,16
 265 764 265 764 292.5 806.5 c 128,-1,17
 320 849 320 849 340.5 907.5 c 128,-1,18
 361 966 361 966 373.5 1042 c 128,-1,19
 386 1118 386 1118 386 1217 c 2,20,-1
 386 1393 l 1,21,-1
 461 1393 l 1,22,-1
 461 1214 l 2,23,24
 461 1092 461 1092 446 1007 c 128,-1,25
 431 922 431 922 405.5 860.5 c 128,-1,26
 380 799 380 799 346 754 c 128,-1,27
 312 709 312 709 274 667 c 1,28,-1
 274 2 l 1,0,-1
EndSplineSet
EndChar

StartChar: Z
Encoding: 90 90 61
Width: 575
Flags: W
LayerCount: 2
Fore
SplineSet
111 67 m 1,0,-1
 292 67 l 2,1,2
 349 67 349 67 386 81.5 c 128,-1,3
 423 96 423 96 444.5 124 c 128,-1,4
 466 152 466 152 474.5 191 c 128,-1,5
 483 230 483 230 483 280 c 1,6,-1
 550 280 l 1,7,8
 550 175 550 175 523 118 c 128,-1,9
 496 61 496 61 454 35 c 128,-1,10
 412 9 412 9 360.5 4.5 c 128,-1,11
 309 0 309 0 259 0 c 2,12,-1
 30 0 l 1,13,-1
 30 45 l 1,14,-1
 403 1326 l 1,15,-1
 117 1326 l 1,16,-1
 117 1073 l 1,17,-1
 42 1073 l 1,18,-1
 42 1393 l 1,19,-1
 486 1393 l 1,20,-1
 486 1350 l 1,21,-1
 111 67 l 1,0,-1
EndSplineSet
EndChar

StartChar: bracketleft
Encoding: 91 91 62
Width: 296
Flags: W
LayerCount: 2
Fore
SplineSet
70 1413 m 1,0,-1
 286 1413 l 1,1,-1
 286 1347 l 1,2,-1
 147 1347 l 1,3,-1
 147 -262 l 1,4,-1
 286 -262 l 1,5,-1
 286 -327 l 1,6,-1
 70 -327 l 1,7,-1
 70 1413 l 1,0,-1
EndSplineSet
EndChar

StartChar: backslash
Encoding: 92 92 63
Width: 497
Flags: W
LayerCount: 2
Fore
SplineSet
532 0 m 1,0,-1
 462 0 l 1,1,-1
 -35 1393 l 1,2,-1
 31 1393 l 1,3,-1
 532 0 l 1,0,-1
EndSplineSet
EndChar

StartChar: bracketright
Encoding: 93 93 64
Width: 296
Flags: W
LayerCount: 2
Fore
SplineSet
10 -328 m 1,0,-1
 10 -263 l 1,1,-1
 151 -263 l 1,2,-1
 151 1347 l 1,3,-1
 10 1347 l 1,4,-1
 10 1413 l 1,5,-1
 226 1413 l 1,6,-1
 226 -328 l 1,7,-1
 10 -328 l 1,0,-1
EndSplineSet
EndChar

StartChar: asciicircum
Encoding: 94 94 65
Width: 526
Flags: W
LayerCount: 2
Fore
SplineSet
297 1393 m 1,0,-1
 496 728 l 1,1,-1
 428 728 l 1,2,-1
 263 1282 l 1,3,-1
 98 728 l 1,4,-1
 30 728 l 1,5,-1
 229 1393 l 1,6,-1
 297 1393 l 1,0,-1
EndSplineSet
EndChar

StartChar: underscore
Encoding: 95 95 66
Width: 465
Flags: W
LayerCount: 2
Fore
SplineSet
0 -128 m 1,0,-1
 0 -62 l 1,1,-1
 465 -62 l 1,2,-1
 465 -128 l 1,3,-1
 0 -128 l 1,0,-1
EndSplineSet
EndChar

StartChar: grave
Encoding: 96 96 67
Width: 411
Flags: W
LayerCount: 2
Fore
SplineSet
311 1104 m 1,0,-1
 238 1104 l 1,1,-1
 100 1393 l 1,2,-1
 184 1393 l 1,3,-1
 311 1104 l 1,0,-1
EndSplineSet
EndChar

StartChar: a
Encoding: 97 97 68
Width: 457
Flags: W
LayerCount: 2
Fore
SplineSet
223 67 m 2,0,1
 271 67 271 67 296.5 99 c 128,-1,2
 322 131 322 131 322 177 c 2,3,-1
 322 530 l 1,4,-1
 223 530 l 2,5,6
 176 530 176 530 150.5 499 c 128,-1,7
 125 468 125 468 125 421 c 2,8,-1
 125 67 l 1,9,-1
 223 67 l 2,0,1
50 0 m 1,10,-1
 50 414 l 2,11,12
 50 454 50 454 61 487.5 c 128,-1,13
 72 521 72 521 94 545.5 c 128,-1,14
 116 570 116 570 148.5 583.5 c 128,-1,15
 181 597 181 597 223 597 c 2,16,-1
 322 597 l 1,17,-1
 322 862 l 2,18,19
 322 908 322 908 296.5 939.5 c 128,-1,20
 271 971 271 971 223 971 c 0,21,22
 176 971 176 971 150.5 935 c 128,-1,23
 125 899 125 899 125 847 c 1,24,-1
 51 836 l 1,25,26
 51 879 51 879 62 916 c 128,-1,27
 73 953 73 953 94.5 980 c 128,-1,28
 116 1007 116 1007 148.5 1022.5 c 128,-1,29
 181 1038 181 1038 223 1038 c 0,30,31
 266 1038 266 1038 298.5 1024 c 128,-1,32
 331 1010 331 1010 353 985.5 c 128,-1,33
 375 961 375 961 386 927.5 c 128,-1,34
 397 894 397 894 397 855 c 2,35,-1
 397 183 l 2,36,37
 397 143 397 143 386 109.5 c 128,-1,38
 375 76 375 76 353 51.5 c 128,-1,39
 331 27 331 27 298.5 13.5 c 128,-1,40
 266 0 266 0 223 0 c 2,41,-1
 50 0 l 1,10,-1
EndSplineSet
EndChar

StartChar: b
Encoding: 98 98 69
Width: 477
Flags: W
LayerCount: 2
Fore
SplineSet
65 1564 m 1,0,-1
 140 1564 l 1,1,-1
 140 995 l 1,2,3
 158 1005 158 1005 183 1011.5 c 128,-1,4
 208 1018 208 1018 243 1018 c 2,5,-1
 412 1018 l 1,6,-1
 412 163 l 2,7,8
 412 124 412 124 401 90.5 c 128,-1,9
 390 57 390 57 368 32.5 c 128,-1,10
 346 8 346 8 313.5 -6 c 128,-1,11
 281 -20 281 -20 239 -20 c 0,12,13
 196 -20 196 -20 163.5 -6 c 128,-1,14
 131 8 131 8 109 32.5 c 128,-1,15
 87 57 87 57 76 90.5 c 128,-1,16
 65 124 65 124 65 163 c 2,17,-1
 65 1564 l 1,0,-1
140 156 m 2,18,19
 140 110 140 110 165.5 78.5 c 128,-1,20
 191 47 191 47 239 47 c 0,21,22
 286 47 286 47 311.5 78.5 c 128,-1,23
 337 110 337 110 337 156 c 2,24,-1
 337 951 l 1,25,-1
 239 951 l 2,26,27
 202 951 202 951 182 938.5 c 128,-1,28
 162 926 162 926 152.5 910 c 128,-1,29
 143 894 143 894 141.5 878 c 128,-1,30
 140 862 140 862 140 856 c 2,31,-1
 140 156 l 2,18,19
EndSplineSet
EndChar

StartChar: c
Encoding: 99 99 70
Width: 447
Flags: W
LayerCount: 2
Fore
SplineSet
135 160 m 2,0,1
 135 114 135 114 161 82 c 128,-1,2
 187 50 187 50 235 50 c 0,3,4
 282 50 282 50 307.5 86.5 c 128,-1,5
 333 123 333 123 333 175 c 1,6,-1
 407 185 l 1,7,8
 407 141 407 141 396 104 c 128,-1,9
 385 67 385 67 363 40 c 128,-1,10
 341 13 341 13 308.5 -2 c 128,-1,11
 276 -17 276 -17 233 -17 c 256,12,13
 190 -17 190 -17 157.5 -3.5 c 128,-1,14
 125 10 125 10 103.5 34.5 c 128,-1,15
 82 59 82 59 71 92.5 c 128,-1,16
 60 126 60 126 60 166 c 2,17,-1
 60 836 l 2,18,19
 60 875 60 875 71 908.5 c 128,-1,20
 82 942 82 942 104 966.5 c 128,-1,21
 126 991 126 991 158.5 1004.5 c 128,-1,22
 191 1018 191 1018 234 1018 c 2,23,-1
 407 1018 l 1,24,-1
 407 734 l 1,25,-1
 332 734 l 1,26,-1
 332 951 l 1,27,-1
 234 951 l 2,28,29
 186 951 186 951 160.5 919 c 128,-1,30
 135 887 135 887 135 841 c 2,31,-1
 135 160 l 2,0,1
EndSplineSet
EndChar

StartChar: d
Encoding: 100 100 71
Width: 477
Flags: W
LayerCount: 2
Fore
SplineSet
412 163 m 2,0,1
 412 124 412 124 401 90.5 c 128,-1,2
 390 57 390 57 368 32.5 c 128,-1,3
 346 8 346 8 313.5 -6 c 128,-1,4
 281 -20 281 -20 239 -20 c 0,5,6
 196 -20 196 -20 163.5 -6 c 128,-1,7
 131 8 131 8 109 32.5 c 128,-1,8
 87 57 87 57 76 90.5 c 128,-1,9
 65 124 65 124 65 163 c 2,10,-1
 65 1018 l 1,11,-1
 235 1018 l 2,12,13
 273 1018 273 1018 296 1012.5 c 128,-1,14
 319 1007 319 1007 337 997 c 1,15,-1
 337 1564 l 1,16,-1
 412 1564 l 1,17,-1
 412 163 l 2,0,1
337 856 m 2,18,19
 337 862 337 862 335.5 878 c 128,-1,20
 334 894 334 894 325 910 c 128,-1,21
 316 926 316 926 296 938.5 c 128,-1,22
 276 951 276 951 239 951 c 2,23,-1
 140 951 l 1,24,-1
 140 156 l 2,25,26
 140 110 140 110 165.5 78.5 c 128,-1,27
 191 47 191 47 239 47 c 0,28,29
 286 47 286 47 311.5 78.5 c 128,-1,30
 337 110 337 110 337 156 c 2,31,-1
 337 856 l 2,18,19
EndSplineSet
EndChar

StartChar: e
Encoding: 101 101 72
Width: 457
Flags: W
LayerCount: 2
Fore
SplineSet
234 951 m 2,0,1
 186 951 186 951 160.5 919 c 128,-1,2
 135 887 135 887 135 841 c 2,3,-1
 135 488 l 1,4,-1
 234 488 l 2,5,6
 281 488 281 488 306.5 519 c 128,-1,7
 332 550 332 550 332 597 c 2,8,-1
 332 951 l 1,9,-1
 234 951 l 2,0,1
407 1018 m 1,10,-1
 407 604 l 2,11,12
 407 564 407 564 396 530.5 c 128,-1,13
 385 497 385 497 363 472.5 c 128,-1,14
 341 448 341 448 308.5 434.5 c 128,-1,15
 276 421 276 421 234 421 c 2,16,-1
 135 421 l 1,17,-1
 135 156 l 2,18,19
 135 110 135 110 160.5 78.5 c 128,-1,20
 186 47 186 47 234 47 c 0,21,22
 281 47 281 47 306.5 83 c 128,-1,23
 332 119 332 119 332 171 c 1,24,-1
 406 182 l 1,25,26
 406 139 406 139 395 102 c 128,-1,27
 384 65 384 65 362.5 38 c 128,-1,28
 341 11 341 11 308.5 -4.5 c 128,-1,29
 276 -20 276 -20 234 -20 c 0,30,31
 191 -20 191 -20 158.5 -6 c 128,-1,32
 126 8 126 8 104 32.5 c 128,-1,33
 82 57 82 57 71 90.5 c 128,-1,34
 60 124 60 124 60 163 c 2,35,-1
 60 835 l 2,36,37
 60 875 60 875 71 908.5 c 128,-1,38
 82 942 82 942 104 966.5 c 128,-1,39
 126 991 126 991 158.5 1004.5 c 128,-1,40
 191 1018 191 1018 234 1018 c 2,41,-1
 407 1018 l 1,10,-1
EndSplineSet
EndChar

StartChar: f
Encoding: 102 102 73
Width: 297
Flags: W
LayerCount: 2
Fore
SplineSet
84 -443 m 1,0,-1
 84 951 l 1,1,-1
 0 951 l 1,2,-1
 0 1018 l 1,3,-1
 84 1018 l 1,4,-1
 84 1401 l 2,5,6
 84 1441 84 1441 95 1474.5 c 128,-1,7
 106 1508 106 1508 127.5 1532.5 c 128,-1,8
 149 1557 149 1557 181.5 1570.5 c 128,-1,9
 214 1584 214 1584 257 1584 c 0,10,11
 276 1584 276 1584 298.5 1579.5 c 128,-1,12
 321 1575 321 1575 337 1566 c 1,13,-1
 337 1508 l 1,14,15
 321 1512 321 1512 305 1514.5 c 128,-1,16
 289 1517 289 1517 269 1517 c 0,17,18
 221 1517 221 1517 190 1487.5 c 128,-1,19
 159 1458 159 1458 159 1407 c 2,20,-1
 159 1018 l 1,21,-1
 307 1018 l 1,22,-1
 307 951 l 1,23,-1
 159 951 l 1,24,-1
 159 -443 l 1,25,-1
 84 -443 l 1,0,-1
EndSplineSet
EndChar

StartChar: g
Encoding: 103 103 74
Width: 482
Flags: W
LayerCount: 2
Fore
SplineSet
337 0 m 1,0,-1
 239 0 l 2,1,2
 196 0 196 0 163.5 14 c 128,-1,3
 131 28 131 28 109 52.5 c 128,-1,4
 87 77 87 77 76 110.5 c 128,-1,5
 65 144 65 144 65 183 c 2,6,-1
 65 1018 l 1,7,-1
 239 1018 l 2,8,9
 281 1018 281 1018 313.5 1004.5 c 128,-1,10
 346 991 346 991 368 966.5 c 128,-1,11
 390 942 390 942 401 908.5 c 128,-1,12
 412 875 412 875 412 836 c 2,13,-1
 412 -281 l 2,14,15
 412 -320 412 -320 401 -353.5 c 128,-1,16
 390 -387 390 -387 368 -411.5 c 128,-1,17
 346 -436 346 -436 313.5 -450 c 128,-1,18
 281 -464 281 -464 238 -464 c 0,19,20
 196 -464 196 -464 163.5 -448.5 c 128,-1,21
 131 -433 131 -433 109.5 -406 c 128,-1,22
 88 -379 88 -379 77 -342 c 128,-1,23
 66 -305 66 -305 66 -262 c 1,24,-1
 140 -273 l 1,25,26
 140 -325 140 -325 165.5 -361 c 128,-1,27
 191 -397 191 -397 238 -397 c 0,28,29
 286 -397 286 -397 311.5 -365.5 c 128,-1,30
 337 -334 337 -334 337 -288 c 2,31,-1
 337 0 l 1,0,-1
140 176 m 2,32,33
 140 130 140 130 165.5 98.5 c 128,-1,34
 191 67 191 67 239 67 c 2,35,-1
 337 67 l 1,36,-1
 337 841 l 2,37,38
 337 887 337 887 311.5 919 c 128,-1,39
 286 951 286 951 239 951 c 2,40,-1
 140 951 l 1,41,-1
 140 176 l 2,32,33
EndSplineSet
EndChar

StartChar: h
Encoding: 104 104 75
Width: 487
Flags: W
LayerCount: 2
Fore
SplineSet
417 1018 m 1,0,-1
 417 0 l 1,1,-1
 342 0 l 1,2,-1
 342 951 l 1,3,-1
 244 951 l 2,4,5
 196 951 196 951 170.5 919 c 128,-1,6
 145 887 145 887 145 841 c 2,7,-1
 145 0 l 1,8,-1
 70 0 l 1,9,-1
 70 1564 l 1,10,-1
 145 1564 l 1,11,-1
 145 992 l 1,12,13
 165 1005 165 1005 188.5 1011.5 c 128,-1,14
 212 1018 212 1018 244 1018 c 2,15,-1
 417 1018 l 1,0,-1
EndSplineSet
EndChar

StartChar: i
Encoding: 105 105 76
Width: 238
Flags: W
LayerCount: 2
Fore
SplineSet
80 0 m 1,0,-1
 80 1018 l 1,1,-1
 155 1018 l 1,2,-1
 155 0 l 1,3,-1
 80 0 l 1,0,-1
70 1363 m 0,4,5
 70 1413 70 1413 118 1413 c 0,6,7
 141 1413 141 1413 154.5 1400.5 c 128,-1,8
 168 1388 168 1388 168 1363 c 0,9,10
 168 1344 168 1344 155.5 1330 c 128,-1,11
 143 1316 143 1316 118 1316 c 0,12,13
 95 1316 95 1316 82.5 1330 c 128,-1,14
 70 1344 70 1344 70 1363 c 0,4,5
EndSplineSet
EndChar

StartChar: j
Encoding: 106 106 77
Width: 238
Flags: W
LayerCount: 2
Fore
SplineSet
70 1363 m 0,0,1
 70 1413 70 1413 118 1413 c 0,2,3
 141 1413 141 1413 154.5 1400.5 c 128,-1,4
 168 1388 168 1388 168 1363 c 0,5,6
 168 1344 168 1344 155.5 1330 c 128,-1,7
 143 1316 143 1316 118 1316 c 0,8,9
 95 1316 95 1316 82.5 1330 c 128,-1,10
 70 1344 70 1344 70 1363 c 0,0,1
80 -442 m 1,11,-1
 80 1018 l 1,12,-1
 155 1018 l 1,13,-1
 155 -442 l 1,14,-1
 80 -442 l 1,11,-1
EndSplineSet
EndChar

StartChar: k
Encoding: 107 107 78
Width: 479
Flags: W
LayerCount: 2
Fore
SplineSet
399 0 m 1,0,-1
 250 464 l 1,1,2
 223 440 223 440 196 425.5 c 128,-1,3
 169 411 169 411 145 405 c 1,4,-1
 145 0 l 1,5,-1
 70 0 l 1,6,-1
 70 1564 l 1,7,-1
 145 1564 l 1,8,-1
 145 992 l 1,9,10
 165 1005 165 1005 188.5 1011.5 c 128,-1,11
 212 1018 212 1018 244 1018 c 2,12,-1
 417 1018 l 1,13,-1
 417 939 l 2,14,15
 417 792 417 792 384 690 c 128,-1,16
 351 588 351 588 304 524 c 1,17,-1
 474 0 l 1,18,-1
 399 0 l 1,0,-1
145 482 m 1,19,20
 170 491 170 491 203.5 519 c 128,-1,21
 237 547 237 547 268 600.5 c 128,-1,22
 299 654 299 654 320.5 737 c 128,-1,23
 342 820 342 820 342 939 c 2,24,-1
 342 951 l 1,25,-1
 244 951 l 2,26,27
 196 951 196 951 170.5 919 c 128,-1,28
 145 887 145 887 145 841 c 2,29,-1
 145 482 l 1,19,20
EndSplineSet
EndChar

StartChar: l
Encoding: 108 108 79
Width: 215
Flags: W
LayerCount: 2
Fore
SplineSet
70 0 m 1,0,-1
 70 1564 l 1,1,-1
 145 1564 l 1,2,-1
 145 0 l 1,3,-1
 70 0 l 1,0,-1
EndSplineSet
EndChar

StartChar: m
Encoding: 109 109 80
Width: 760
Flags: W
LayerCount: 2
Fore
SplineSet
414 0 m 1,0,-1
 344 0 l 1,1,-1
 344 841 l 2,2,3
 344 892 344 892 319 921.5 c 128,-1,4
 294 951 294 951 246 951 c 2,5,-1
 145 951 l 1,6,-1
 145 0 l 1,7,-1
 70 0 l 1,8,-1
 70 1018 l 1,9,-1
 243 1018 l 2,10,11
 288 1018 288 1018 323 1002.5 c 128,-1,12
 358 987 358 987 379 961 c 1,13,14
 401 986 401 986 436.5 1002 c 128,-1,15
 472 1018 472 1018 516 1018 c 2,16,-1
 690 1018 l 1,17,-1
 690 0 l 1,18,-1
 615 0 l 1,19,-1
 615 951 l 1,20,-1
 513 951 l 2,21,22
 465 951 465 951 439.5 921.5 c 128,-1,23
 414 892 414 892 414 841 c 2,24,-1
 414 0 l 1,0,-1
EndSplineSet
EndChar

StartChar: n
Encoding: 110 110 81
Width: 482
Flags: W
LayerCount: 2
Fore
SplineSet
417 0 m 1,0,-1
 342 0 l 1,1,-1
 342 841 l 2,2,3
 342 887 342 887 316.5 919 c 128,-1,4
 291 951 291 951 244 951 c 2,5,-1
 145 951 l 1,6,-1
 145 0 l 1,7,-1
 70 0 l 1,8,-1
 70 1018 l 1,9,-1
 244 1018 l 2,10,11
 286 1018 286 1018 318.5 1004.5 c 128,-1,12
 351 991 351 991 373 966.5 c 128,-1,13
 395 942 395 942 406 908.5 c 128,-1,14
 417 875 417 875 417 836 c 2,15,-1
 417 0 l 1,0,-1
EndSplineSet
EndChar

StartChar: o
Encoding: 111 111 82
Width: 472
Flags: W
LayerCount: 2
Fore
SplineSet
407 182 m 2,0,1
 407 138 407 138 396 101 c 128,-1,2
 385 64 385 64 363 37 c 128,-1,3
 341 10 341 10 308.5 -5 c 128,-1,4
 276 -20 276 -20 233 -20 c 256,5,6
 190 -20 190 -20 157.5 -6.5 c 128,-1,7
 125 7 125 7 103.5 31.5 c 128,-1,8
 82 56 82 56 71 89.5 c 128,-1,9
 60 123 60 123 60 163 c 2,10,-1
 60 856 l 2,11,12
 60 895 60 895 71 928.5 c 128,-1,13
 82 962 82 962 104 986.5 c 128,-1,14
 126 1011 126 1011 158.5 1024.5 c 128,-1,15
 191 1038 191 1038 234 1038 c 2,16,-1
 407 1038 l 1,17,-1
 407 182 l 2,0,1
135 157 m 2,18,19
 135 111 135 111 160.5 79 c 128,-1,20
 186 47 186 47 234 47 c 0,21,22
 281 47 281 47 306.5 83.5 c 128,-1,23
 332 120 332 120 332 172 c 2,24,-1
 332 971 l 1,25,-1
 234 971 l 2,26,27
 186 971 186 971 160.5 939 c 128,-1,28
 135 907 135 907 135 861 c 2,29,-1
 135 157 l 2,18,19
EndSplineSet
EndChar

StartChar: p
Encoding: 112 112 83
Width: 477
Flags: W
LayerCount: 2
Fore
SplineSet
412 183 m 2,0,1
 412 144 412 144 401 110.5 c 128,-1,2
 390 77 390 77 368 52.5 c 128,-1,3
 346 28 346 28 313.5 14 c 128,-1,4
 281 0 281 0 239 0 c 2,5,-1
 140 0 l 1,6,-1
 140 -444 l 1,7,-1
 65 -444 l 1,8,-1
 65 836 l 2,9,10
 65 875 65 875 76 908.5 c 128,-1,11
 87 942 87 942 109 966.5 c 128,-1,12
 131 991 131 991 163.5 1004.5 c 128,-1,13
 196 1018 196 1018 239 1018 c 2,14,-1
 412 1018 l 1,15,-1
 412 183 l 2,0,1
337 951 m 1,16,-1
 239 951 l 2,17,18
 191 951 191 951 165.5 919 c 128,-1,19
 140 887 140 887 140 841 c 2,20,-1
 140 67 l 1,21,-1
 239 67 l 2,22,23
 286 67 286 67 311.5 98.5 c 128,-1,24
 337 130 337 130 337 176 c 2,25,-1
 337 951 l 1,16,-1
EndSplineSet
EndChar

StartChar: q
Encoding: 113 113 84
Width: 477
Flags: W
LayerCount: 2
Fore
SplineSet
65 1018 m 1,0,-1
 239 1018 l 2,1,2
 281 1018 281 1018 313.5 1004.5 c 128,-1,3
 346 991 346 991 368 966.5 c 128,-1,4
 390 942 390 942 401 908.5 c 128,-1,5
 412 875 412 875 412 836 c 2,6,-1
 412 -444 l 1,7,-1
 337 -444 l 1,8,-1
 337 0 l 1,9,-1
 239 0 l 2,10,11
 196 0 196 0 163.5 14 c 128,-1,12
 131 28 131 28 109 52.5 c 128,-1,13
 87 77 87 77 76 110.5 c 128,-1,14
 65 144 65 144 65 183 c 2,15,-1
 65 1018 l 1,0,-1
140 176 m 2,16,17
 140 130 140 130 165.5 98.5 c 128,-1,18
 191 67 191 67 239 67 c 2,19,-1
 337 67 l 1,20,-1
 337 841 l 2,21,22
 337 887 337 887 311.5 919 c 128,-1,23
 286 951 286 951 239 951 c 2,24,-1
 140 951 l 1,25,-1
 140 176 l 2,16,17
EndSplineSet
EndChar

StartChar: r
Encoding: 114 114 85
Width: 297
Flags: W
LayerCount: 2
Fore
SplineSet
280 957 m 1,0,1
 265 961 265 961 244 961 c 0,2,3
 196 961 196 961 170.5 929 c 128,-1,4
 145 897 145 897 145 851 c 2,5,-1
 145 0 l 1,6,-1
 70 0 l 1,7,-1
 70 845 l 2,8,9
 70 885 70 885 81 918.5 c 128,-1,10
 92 952 92 952 114 976.5 c 128,-1,11
 136 1001 136 1001 168.5 1014.5 c 128,-1,12
 201 1028 201 1028 244 1028 c 0,13,14
 262 1028 262 1028 279 1025.5 c 128,-1,15
 296 1023 296 1023 310 1018 c 1,16,-1
 280 957 l 1,0,1
EndSplineSet
EndChar

StartChar: s
Encoding: 115 115 86
Width: 427
Flags: W
LayerCount: 2
Fore
SplineSet
40 231 m 1,0,-1
 115 231 l 1,1,-1
 115 156 l 2,2,3
 115 110 115 110 140.5 78.5 c 128,-1,4
 166 47 166 47 214 47 c 0,5,6
 261 47 261 47 286.5 78.5 c 128,-1,7
 312 110 312 110 312 156 c 2,8,-1
 312 282 l 2,9,10
 312 315 312 315 301.5 343.5 c 128,-1,11
 291 372 291 372 273.5 398.5 c 128,-1,12
 256 425 256 425 233.5 449 c 128,-1,13
 211 473 211 473 188 497 c 0,14,15
 160 525 160 525 133.5 554 c 128,-1,16
 107 583 107 583 86 615.5 c 128,-1,17
 65 648 65 648 52.5 684 c 128,-1,18
 40 720 40 720 40 762 c 2,19,-1
 40 855 l 2,20,21
 40 895 40 895 51 928.5 c 128,-1,22
 62 962 62 962 84 986.5 c 128,-1,23
 106 1011 106 1011 138.5 1024.5 c 128,-1,24
 171 1038 171 1038 214 1038 c 0,25,26
 256 1038 256 1038 288.5 1024.5 c 128,-1,27
 321 1011 321 1011 343 986.5 c 128,-1,28
 365 962 365 962 376 928.5 c 128,-1,29
 387 895 387 895 387 855 c 2,30,-1
 387 773 l 1,31,-1
 312 773 l 1,32,-1
 312 861 l 2,33,34
 312 907 312 907 286.5 939 c 128,-1,35
 261 971 261 971 214 971 c 0,36,37
 166 971 166 971 140.5 939 c 128,-1,38
 115 907 115 907 115 861 c 2,39,-1
 115 762 l 2,40,41
 115 728 115 728 126 698.5 c 128,-1,42
 137 669 137 669 154.5 643 c 128,-1,43
 172 617 172 617 194.5 592.5 c 128,-1,44
 217 568 217 568 240 544 c 0,45,46
 268 515 268 515 294.5 486 c 128,-1,47
 321 457 321 457 341.5 425 c 128,-1,48
 362 393 362 393 374.5 357.5 c 128,-1,49
 387 322 387 322 387 282 c 2,50,-1
 387 163 l 2,51,52
 387 124 387 124 376 90.5 c 128,-1,53
 365 57 365 57 343 32.5 c 128,-1,54
 321 8 321 8 288.5 -6 c 128,-1,55
 256 -20 256 -20 214 -20 c 0,56,57
 171 -20 171 -20 138.5 -6 c 128,-1,58
 106 8 106 8 84 32.5 c 128,-1,59
 62 57 62 57 51 90.5 c 128,-1,60
 40 124 40 124 40 163 c 2,61,-1
 40 231 l 1,0,-1
EndSplineSet
EndChar

StartChar: t
Encoding: 116 116 87
Width: 310
Flags: W
LayerCount: 2
Fore
SplineSet
83 951 m 1,0,-1
 0 951 l 1,1,-1
 0 1018 l 1,2,-1
 83 1018 l 1,3,-1
 83 1144 l 1,4,-1
 158 1144 l 1,5,-1
 158 1018 l 1,6,-1
 295 1018 l 1,7,-1
 295 951 l 1,8,-1
 158 951 l 1,9,-1
 158 157 l 2,10,11
 158 111 158 111 183 79.5 c 128,-1,12
 208 48 208 48 256 48 c 2,13,-1
 289 48 l 1,14,-1
 289 -20 l 1,15,-1
 256 -20 l 2,16,17
 213 -20 213 -20 180.5 -6 c 128,-1,18
 148 8 148 8 126.5 32.5 c 128,-1,19
 105 57 105 57 94 90.5 c 128,-1,20
 83 124 83 124 83 163 c 2,21,-1
 83 951 l 1,0,-1
EndSplineSet
EndChar

StartChar: u
Encoding: 117 117 88
Width: 482
Flags: W
LayerCount: 2
Fore
SplineSet
417 1018 m 1,0,-1
 417 182 l 2,1,2
 417 138 417 138 406 101 c 128,-1,3
 395 64 395 64 373 37 c 128,-1,4
 351 10 351 10 318.5 -5 c 128,-1,5
 286 -20 286 -20 243 -20 c 256,6,7
 200 -20 200 -20 167.5 -6.5 c 128,-1,8
 135 7 135 7 113.5 31.5 c 128,-1,9
 92 56 92 56 81 89.5 c 128,-1,10
 70 123 70 123 70 163 c 2,11,-1
 70 1018 l 1,12,-1
 145 1018 l 1,13,-1
 145 157 l 2,14,15
 145 111 145 111 170.5 79 c 128,-1,16
 196 47 196 47 244 47 c 0,17,18
 291 47 291 47 316.5 83.5 c 128,-1,19
 342 120 342 120 342 172 c 2,20,-1
 342 1018 l 1,21,-1
 417 1018 l 1,0,-1
EndSplineSet
EndChar

StartChar: v
Encoding: 118 118 89
Width: 462
Flags: W
LayerCount: 2
Fore
SplineSet
417 1018 m 1,0,-1
 417 538 l 2,1,2
 417 396 417 396 386.5 296 c 128,-1,3
 356 196 356 196 311 132 c 128,-1,4
 266 68 266 68 215 36.5 c 128,-1,5
 164 5 164 5 124 0 c 1,6,-1
 70 0 l 1,7,-1
 70 1018 l 1,8,-1
 145 1018 l 1,9,-1
 145 77 l 1,10,11
 170 86 170 86 203.5 114.5 c 128,-1,12
 237 143 237 143 268 197.5 c 128,-1,13
 299 252 299 252 320.5 335.5 c 128,-1,14
 342 419 342 419 342 538 c 2,15,-1
 342 1018 l 1,16,-1
 417 1018 l 1,0,-1
EndSplineSet
EndChar

StartChar: w
Encoding: 119 119 90
Width: 749
Flags: W
LayerCount: 2
Fore
SplineSet
341 182 m 1,0,1
 317 137 317 137 289 104 c 128,-1,2
 261 71 261 71 232.5 48.5 c 128,-1,3
 204 26 204 26 176 14.5 c 128,-1,4
 148 3 148 3 124 0 c 1,5,-1
 70 0 l 1,6,-1
 70 1018 l 1,7,-1
 145 1018 l 1,8,-1
 145 77 l 1,9,10
 170 86 170 86 204.5 113 c 128,-1,11
 239 140 239 140 270.5 186.5 c 128,-1,12
 302 233 302 233 324 299 c 128,-1,13
 346 365 346 365 346 452 c 2,14,-1
 346 1018 l 1,15,-1
 417 1018 l 1,16,-1
 417 77 l 1,17,18
 442 86 442 86 475.5 114.5 c 128,-1,19
 509 143 509 143 540 197.5 c 128,-1,20
 571 252 571 252 592.5 336 c 128,-1,21
 614 420 614 420 614 539 c 2,22,-1
 614 1018 l 1,23,-1
 689 1018 l 1,24,-1
 689 539 l 2,25,26
 689 444 689 444 675 368.5 c 128,-1,27
 661 293 661 293 637 234 c 128,-1,28
 613 175 613 175 583 132.5 c 128,-1,29
 553 90 553 90 520 61.5 c 128,-1,30
 487 33 487 33 455 18 c 128,-1,31
 423 3 423 3 396 0 c 1,32,-1
 346 0 l 1,33,-1
 346 182 l 1,34,-1
 341 182 l 1,0,1
EndSplineSet
EndChar

StartChar: x
Encoding: 120 120 91
Width: 461
Flags: W
LayerCount: 2
Fore
SplineSet
230 474 m 1,0,1
 208 452 208 452 188 420 c 128,-1,2
 168 388 168 388 152.5 344 c 128,-1,3
 137 300 137 300 128 243 c 128,-1,4
 119 186 119 186 119 114 c 2,5,-1
 119 0 l 1,6,-1
 44 0 l 1,7,-1
 44 116 l 2,8,9
 44 194 44 194 54.5 254 c 128,-1,10
 65 314 65 314 82.5 360.5 c 128,-1,11
 100 407 100 407 123 443 c 128,-1,12
 146 479 146 479 170 508 c 1,13,14
 146 537 146 537 123 573 c 128,-1,15
 100 609 100 609 82.5 655.5 c 128,-1,16
 65 702 65 702 54.5 762 c 128,-1,17
 44 822 44 822 44 900 c 2,18,-1
 44 1017 l 1,19,-1
 119 1017 l 1,20,-1
 119 902 l 2,21,22
 119 830 119 830 128 772.5 c 128,-1,23
 137 715 137 715 152.5 671 c 128,-1,24
 168 627 168 627 188 595 c 128,-1,25
 208 563 208 563 230 541 c 1,26,27
 252 563 252 563 272 595 c 128,-1,28
 292 627 292 627 307.5 671 c 128,-1,29
 323 715 323 715 332 772.5 c 128,-1,30
 341 830 341 830 341 902 c 2,31,-1
 341 1017 l 1,32,-1
 416 1017 l 1,33,-1
 416 900 l 2,34,35
 416 822 416 822 405.5 762 c 128,-1,36
 395 702 395 702 377.5 655.5 c 128,-1,37
 360 609 360 609 337 573 c 128,-1,38
 314 537 314 537 290 508 c 1,39,40
 314 479 314 479 337 443 c 128,-1,41
 360 407 360 407 377.5 360.5 c 128,-1,42
 395 314 395 314 405.5 254 c 128,-1,43
 416 194 416 194 416 116 c 2,44,-1
 416 0 l 1,45,-1
 341 0 l 1,46,-1
 341 114 l 2,47,48
 341 186 341 186 332 243 c 128,-1,49
 323 300 323 300 307.5 344 c 128,-1,50
 292 388 292 388 272 420 c 128,-1,51
 252 452 252 452 230 474 c 1,0,1
EndSplineSet
EndChar

StartChar: y
Encoding: 121 121 92
Width: 477
Flags: W
LayerCount: 2
Fore
SplineSet
332 0 m 1,0,1
 291 10 291 10 243.5 46 c 128,-1,2
 196 82 196 82 155 147 c 128,-1,3
 114 212 114 212 87 308.5 c 128,-1,4
 60 405 60 405 60 538 c 2,5,-1
 60 1018 l 1,6,-1
 135 1018 l 1,7,-1
 135 538 l 2,8,9
 135 419 135 419 156.5 335.5 c 128,-1,10
 178 252 178 252 208.5 197.5 c 128,-1,11
 239 143 239 143 273 114.5 c 128,-1,12
 307 86 307 86 332 77 c 1,13,-1
 332 1018 l 1,14,-1
 407 1018 l 1,15,-1
 407 -444 l 1,16,-1
 332 -444 l 1,17,-1
 332 0 l 1,0,1
EndSplineSet
EndChar

StartChar: z
Encoding: 122 122 93
Width: 439
Flags: W
LayerCount: 2
Fore
SplineSet
27 1018 m 1,0,-1
 371 1018 l 1,1,-1
 371 971 l 1,2,-1
 106 67 l 1,3,-1
 234 67 l 2,4,5
 250 67 250 67 269.5 69.5 c 128,-1,6
 289 72 289 72 305.5 81.5 c 128,-1,7
 322 91 322 91 333 110 c 128,-1,8
 344 129 344 129 344 162 c 2,9,-1
 344 262 l 1,10,-1
 419 262 l 1,11,-1
 419 155 l 2,12,13
 419 142 419 142 415 116 c 128,-1,14
 411 90 411 90 393 64.5 c 128,-1,15
 375 39 375 39 338.5 19.5 c 128,-1,16
 302 0 302 0 236 0 c 2,17,-1
 25 0 l 1,18,-1
 25 48 l 1,19,-1
 289 951 l 1,20,-1
 102 951 l 1,21,-1
 102 775 l 1,22,-1
 27 775 l 1,23,-1
 27 1018 l 1,0,-1
EndSplineSet
EndChar

StartChar: braceleft
Encoding: 123 123 94
Width: 344
Flags: W
LayerCount: 2
Fore
SplineSet
334 1345 m 1,0,1
 312 1345 312 1345 290.5 1339 c 128,-1,2
 269 1333 269 1333 252 1321 c 128,-1,3
 235 1309 235 1309 224.5 1290.5 c 128,-1,4
 214 1272 214 1272 214 1248 c 2,5,-1
 214 706 l 2,6,7
 214 675 214 675 203.5 641.5 c 128,-1,8
 193 608 193 608 158 579 c 1,9,10
 176 565 176 565 187 548.5 c 128,-1,11
 198 532 198 532 204 514.5 c 128,-1,12
 210 497 210 497 212 479.5 c 128,-1,13
 214 462 214 462 214 446 c 2,14,-1
 214 -164 l 2,15,16
 214 -190 214 -190 224 -208 c 128,-1,17
 234 -226 234 -226 250.5 -237.5 c 128,-1,18
 267 -249 267 -249 288 -254.5 c 128,-1,19
 309 -260 309 -260 330 -260 c 1,20,-1
 330 -327 l 1,21,22
 293 -327 293 -327 258.5 -317 c 128,-1,23
 224 -307 224 -307 197.5 -287 c 128,-1,24
 171 -267 171 -267 155 -236.5 c 128,-1,25
 139 -206 139 -206 139 -164 c 2,26,-1
 139 449 l 2,27,28
 139 460 139 460 136 476 c 128,-1,29
 133 492 133 492 122 507 c 128,-1,30
 111 522 111 522 89 533 c 128,-1,31
 67 544 67 544 30 544 c 1,32,-1
 30 612 l 1,33,34
 67 612 67 612 89 623 c 128,-1,35
 111 634 111 634 122 649.5 c 128,-1,36
 133 665 133 665 136 681 c 128,-1,37
 139 697 139 697 139 707 c 2,38,-1
 139 1248 l 2,39,40
 139 1288 139 1288 155.5 1319 c 128,-1,41
 172 1350 172 1350 199.5 1370.5 c 128,-1,42
 227 1391 227 1391 262 1401.5 c 128,-1,43
 297 1412 297 1412 334 1412 c 1,44,-1
 334 1345 l 1,0,1
EndSplineSet
EndChar

StartChar: bar
Encoding: 124 124 95
Width: 243
Flags: W
LayerCount: 2
Fore
SplineSet
90 -232 m 1,0,-1
 90 1393 l 1,1,-1
 153 1393 l 1,2,-1
 153 -232 l 1,3,-1
 90 -232 l 1,0,-1
EndSplineSet
EndChar

StartChar: braceright
Encoding: 125 125 96
Width: 344
Flags: W
LayerCount: 2
Fore
SplineSet
10 1412 m 1,0,1
 47 1412 47 1412 82 1401.5 c 128,-1,2
 117 1391 117 1391 144.5 1370.5 c 128,-1,3
 172 1350 172 1350 188.5 1319 c 128,-1,4
 205 1288 205 1288 205 1248 c 2,5,-1
 205 707 l 2,6,7
 205 697 205 697 208 681 c 128,-1,8
 211 665 211 665 222 649.5 c 128,-1,9
 233 634 233 634 254.5 623 c 128,-1,10
 276 612 276 612 314 612 c 1,11,-1
 314 544 l 1,12,13
 276 544 276 544 254.5 533 c 128,-1,14
 233 522 233 522 222 507 c 128,-1,15
 211 492 211 492 208 476 c 128,-1,16
 205 460 205 460 205 449 c 2,17,-1
 205 -164 l 2,18,19
 205 -206 205 -206 189 -236.5 c 128,-1,20
 173 -267 173 -267 146.5 -287 c 128,-1,21
 120 -307 120 -307 85.5 -317 c 128,-1,22
 51 -327 51 -327 13 -327 c 1,23,-1
 13 -260 l 1,24,25
 35 -260 35 -260 56 -254.5 c 128,-1,26
 77 -249 77 -249 93.5 -237.5 c 128,-1,27
 110 -226 110 -226 120 -208 c 128,-1,28
 130 -190 130 -190 130 -164 c 2,29,-1
 130 446 l 2,30,31
 130 462 130 462 132 479.5 c 128,-1,32
 134 497 134 497 140 514.5 c 128,-1,33
 146 532 146 532 157 548.5 c 128,-1,34
 168 565 168 565 186 579 c 1,35,36
 151 608 151 608 140.5 641.5 c 128,-1,37
 130 675 130 675 130 706 c 2,38,-1
 130 1248 l 2,39,40
 130 1272 130 1272 119.5 1290.5 c 128,-1,41
 109 1309 109 1309 92 1321 c 128,-1,42
 75 1333 75 1333 53.5 1339 c 128,-1,43
 32 1345 32 1345 10 1345 c 1,44,-1
 10 1412 l 1,0,1
EndSplineSet
EndChar

StartChar: asciitilde
Encoding: 126 126 97
Width: 510
Flags: W
LayerCount: 2
Fore
SplineSet
167 380 m 0,0,1
 150 380 150 380 130 368 c 128,-1,2
 110 356 110 356 82 319 c 1,3,-1
 22 357 l 1,4,5
 57 408 57 408 94.5 427 c 128,-1,6
 132 446 132 446 167 446 c 0,7,8
 195 446 195 446 216.5 437 c 128,-1,9
 238 428 238 428 256.5 417 c 128,-1,10
 275 406 275 406 294.5 397 c 128,-1,11
 314 388 314 388 340 388 c 0,12,13
 357 388 357 388 377 400 c 128,-1,14
 397 412 397 412 425 449 c 1,15,-1
 485 411 l 1,16,17
 450 360 450 360 412.5 341 c 128,-1,18
 375 322 375 322 340 322 c 0,19,20
 316 322 316 322 292.5 331 c 128,-1,21
 269 340 269 340 247 351 c 128,-1,22
 225 362 225 362 205 371 c 128,-1,23
 185 380 185 380 167 380 c 0,0,1
EndSplineSet
EndChar

StartChar: exclamdown
Encoding: 161 161 98
Width: 237
Flags: W
LayerCount: 2
Fore
SplineSet
156 -20 m 1,0,-1
 81 -20 l 1,1,-1
 83 1084 l 1,2,-1
 154 1084 l 1,3,-1
 156 -20 l 1,0,-1
70 1432 m 0,4,5
 70 1452 70 1452 84 1465 c 128,-1,6
 98 1478 98 1478 118 1478 c 0,7,8
 141 1478 141 1478 154 1465 c 128,-1,9
 167 1452 167 1452 167 1432 c 0,10,11
 167 1416 167 1416 154 1402 c 128,-1,12
 141 1388 141 1388 118 1388 c 256,13,14
 95 1388 95 1388 82.5 1402 c 128,-1,15
 70 1416 70 1416 70 1432 c 0,4,5
EndSplineSet
EndChar

StartChar: cent
Encoding: 162 162 99
Width: 533
Flags: W
LayerCount: 2
Fore
SplineSet
248 -132 m 1,0,-1
 248 -18 l 1,1,2
 194 -12 194 -12 156.5 10.5 c 128,-1,3
 119 33 119 33 95 68 c 128,-1,4
 71 103 71 103 60.5 148 c 128,-1,5
 50 193 50 193 50 243 c 2,6,-1
 50 897 l 2,7,8
 50 943 50 943 53 990 c 128,-1,9
 56 1037 56 1037 74.5 1077.5 c 128,-1,10
 93 1118 93 1118 133.5 1146.5 c 128,-1,11
 174 1175 174 1175 248 1184 c 1,12,-1
 248 1321 l 1,13,-1
 311 1321 l 1,14,-1
 311 1188 l 1,15,-1
 493 1188 l 1,16,-1
 493 785 l 1,17,-1
 418 785 l 1,18,-1
 418 1121 l 1,19,-1
 331 1121 l 2,20,21
 277 1121 277 1121 238 1112.5 c 128,-1,22
 199 1104 199 1104 174 1082.5 c 128,-1,23
 149 1061 149 1061 137 1024 c 128,-1,24
 125 987 125 987 125 931 c 2,25,-1
 125 243 l 2,26,27
 125 201 125 201 133.5 165.5 c 128,-1,28
 142 130 142 130 160.5 103.5 c 128,-1,29
 179 77 179 77 208.5 62 c 128,-1,30
 238 47 238 47 280 47 c 0,31,32
 349 47 349 47 383.5 87 c 128,-1,33
 418 127 418 127 418 202 c 2,34,-1
 418 383 l 1,35,-1
 493 383 l 1,36,-1
 493 201 l 2,37,38
 493 106 493 106 447.5 48 c 128,-1,39
 402 -10 402 -10 311 -18 c 1,40,-1
 311 -132 l 1,41,-1
 248 -132 l 1,0,-1
EndSplineSet
EndChar

StartChar: sterling
Encoding: 163 163 100
Width: 460
Flags: W
LayerCount: 2
Fore
SplineSet
30 68 m 1,0,-1
 159 68 l 1,1,-1
 159 625 l 1,2,-1
 42 625 l 1,3,-1
 42 692 l 1,4,-1
 159 692 l 1,5,-1
 159 920 l 2,6,7
 159 953 159 953 160.5 987 c 128,-1,8
 162 1021 162 1021 170 1053 c 128,-1,9
 178 1085 178 1085 195 1113.5 c 128,-1,10
 212 1142 212 1142 244 1163 c 128,-1,11
 276 1184 276 1184 325 1196 c 128,-1,12
 374 1208 374 1208 445 1208 c 1,13,-1
 445 1141 l 1,14,15
 396 1141 396 1141 357 1132 c 128,-1,16
 318 1123 318 1123 290.5 1101 c 128,-1,17
 263 1079 263 1079 248.5 1042.5 c 128,-1,18
 234 1006 234 1006 234 951 c 2,19,-1
 234 692 l 1,20,-1
 406 692 l 1,21,-1
 406 625 l 1,22,-1
 234 625 l 1,23,-1
 234 68 l 1,24,-1
 443 68 l 1,25,-1
 443 0 l 1,26,-1
 30 0 l 1,27,-1
 30 68 l 1,0,-1
EndSplineSet
EndChar

StartChar: currency
Encoding: 164 164 101
Width: 479
Flags: W
LayerCount: 2
Fore
SplineSet
48 849 m 256,0,1
 48 880 48 880 57 907.5 c 128,-1,2
 66 935 66 935 81 957 c 1,3,-1
 30 1008 l 1,4,-1
 30 1109 l 1,5,-1
 131 1007 l 1,6,7
 153 1022 153 1022 181 1030 c 128,-1,8
 209 1038 209 1038 239 1038 c 0,9,10
 300 1038 300 1038 346 1006 c 1,11,-1
 449 1109 l 1,12,-1
 449 1007 l 1,13,-1
 399 957 l 1,14,15
 433 911 433 911 433 849 c 0,16,17
 433 786 433 786 397 739 c 1,18,-1
 449 687 l 1,19,-1
 449 592 l 1,20,-1
 347 693 l 1,21,22
 300 662 300 662 239 662 c 0,23,24
 179 662 179 662 132 692 c 1,25,-1
 30 590 l 1,26,-1
 30 687 l 1,27,-1
 81 740 l 1,28,29
 67 762 67 762 57.5 790 c 128,-1,30
 48 818 48 818 48 849 c 256,0,1
125 851 m 0,31,32
 125 827 125 827 134 806 c 128,-1,33
 143 785 143 785 159 768.5 c 128,-1,34
 175 752 175 752 195.5 742.5 c 128,-1,35
 216 733 216 733 239 733 c 0,36,37
 264 733 264 733 285 742.5 c 128,-1,38
 306 752 306 752 321.5 768.5 c 128,-1,39
 337 785 337 785 346 806 c 128,-1,40
 355 827 355 827 355 851 c 0,41,42
 355 876 355 876 346 898 c 128,-1,43
 337 920 337 920 321.5 936 c 128,-1,44
 306 952 306 952 285 961 c 128,-1,45
 264 970 264 970 239 970 c 0,46,47
 216 970 216 970 195.5 961 c 128,-1,48
 175 952 175 952 159 936 c 128,-1,49
 143 920 143 920 134 898 c 128,-1,50
 125 876 125 876 125 851 c 0,31,32
EndSplineSet
EndChar

StartChar: yen
Encoding: 165 165 102
Width: 550
Flags: W
LayerCount: 2
Fore
SplineSet
276 638 m 1,0,-1
 430 1188 l 1,1,-1
 510 1188 l 1,2,-1
 317 513 l 1,3,-1
 466 513 l 1,4,-1
 466 446 l 1,5,-1
 312 446 l 1,6,-1
 312 361 l 1,7,-1
 466 361 l 1,8,-1
 466 296 l 1,9,-1
 312 296 l 1,10,-1
 312 0 l 1,11,-1
 237 0 l 1,12,-1
 237 296 l 1,13,-1
 84 296 l 1,14,-1
 84 361 l 1,15,-1
 237 361 l 1,16,-1
 237 446 l 1,17,-1
 84 446 l 1,18,-1
 84 513 l 1,19,-1
 231 513 l 1,20,-1
 40 1188 l 1,21,-1
 119 1188 l 1,22,-1
 272 638 l 1,23,-1
 276 638 l 1,0,-1
EndSplineSet
EndChar

StartChar: brokenbar
Encoding: 166 166 103
Width: 243
Flags: W
LayerCount: 2
Fore
SplineSet
90 0 m 1,0,-1
 90 449 l 1,1,-1
 153 449 l 1,2,-1
 153 0 l 1,3,-1
 90 0 l 1,0,-1
90 568 m 1,4,-1
 90 1017 l 1,5,-1
 153 1017 l 1,6,-1
 153 568 l 1,7,-1
 90 568 l 1,4,-1
EndSplineSet
EndChar

StartChar: section
Encoding: 167 167 104
Width: 493
Flags: W
LayerCount: 2
Fore
SplineSet
393 205 m 1,0,-1
 393 539 l 2,1,2
 393 574 393 574 379 605 c 128,-1,3
 365 636 365 636 341.5 665 c 128,-1,4
 318 694 318 694 288 721 c 128,-1,5
 258 748 258 748 227 774 c 0,6,7
 190 805 190 805 153.5 837 c 128,-1,8
 117 869 117 869 88.5 905 c 128,-1,9
 60 941 60 941 42.5 982 c 128,-1,10
 25 1023 25 1023 25 1073 c 2,11,-1
 25 1195 l 2,12,13
 25 1243 25 1243 42.5 1283.5 c 128,-1,14
 60 1324 60 1324 90 1352.5 c 128,-1,15
 120 1381 120 1381 160.5 1397 c 128,-1,16
 201 1413 201 1413 246 1413 c 0,17,18
 294 1413 294 1413 334.5 1396 c 128,-1,19
 375 1379 375 1379 405 1349.5 c 128,-1,20
 435 1320 435 1320 451.5 1280.5 c 128,-1,21
 468 1241 468 1241 468 1195 c 2,22,-1
 468 990 l 1,23,-1
 393 990 l 1,24,-1
 393 1194 l 2,25,26
 393 1227 393 1227 382 1254.5 c 128,-1,27
 371 1282 371 1282 352 1302.5 c 128,-1,28
 333 1323 333 1323 306 1334.5 c 128,-1,29
 279 1346 279 1346 248 1346 c 0,30,31
 214 1346 214 1346 186.5 1334 c 128,-1,32
 159 1322 159 1322 140 1301.5 c 128,-1,33
 121 1281 121 1281 110.5 1253.5 c 128,-1,34
 100 1226 100 1226 100 1194 c 2,35,-1
 100 1073 l 2,36,37
 100 1036 100 1036 115 1003.5 c 128,-1,38
 130 971 130 971 154.5 941.5 c 128,-1,39
 179 912 179 912 210 885 c 128,-1,40
 241 858 241 858 273 831 c 0,41,42
 309 801 309 801 344 769 c 128,-1,43
 379 737 379 737 406.5 701 c 128,-1,44
 434 665 434 665 451 625 c 128,-1,45
 468 585 468 585 468 539 c 2,46,-1
 468 205 l 1,47,-1
 393 205 l 1,0,-1
100 668 m 1,48,-1
 100 446 l 2,49,50
 100 409 100 409 115 376.5 c 128,-1,51
 130 344 130 344 154.5 314.5 c 128,-1,52
 179 285 179 285 210 258 c 128,-1,53
 241 231 241 231 273 204 c 0,54,55
 309 174 309 174 344 142 c 128,-1,56
 379 110 379 110 406.5 74 c 128,-1,57
 434 38 434 38 451 -2 c 128,-1,58
 468 -42 468 -42 468 -88 c 2,59,-1
 468 -247 l 2,60,61
 468 -295 468 -295 450.5 -335 c 128,-1,62
 433 -375 433 -375 403 -404 c 128,-1,63
 373 -433 373 -433 332.5 -449 c 128,-1,64
 292 -465 292 -465 246 -465 c 0,65,66
 198 -465 198 -465 157.5 -448 c 128,-1,67
 117 -431 117 -431 87.5 -402 c 128,-1,68
 58 -373 58 -373 41.5 -333 c 128,-1,69
 25 -293 25 -293 25 -247 c 2,70,-1
 25 -31 l 1,71,-1
 100 -31 l 1,72,-1
 100 -246 l 2,73,74
 100 -279 100 -279 111 -306.5 c 128,-1,75
 122 -334 122 -334 141 -354.5 c 128,-1,76
 160 -375 160 -375 186.5 -386.5 c 128,-1,77
 213 -398 213 -398 245 -398 c 0,78,79
 279 -398 279 -398 306 -386 c 128,-1,80
 333 -374 333 -374 352.5 -353.5 c 128,-1,81
 372 -333 372 -333 382.5 -305.5 c 128,-1,82
 393 -278 393 -278 393 -246 c 2,83,-1
 393 -88 l 2,84,85
 393 -53 393 -53 379 -22 c 128,-1,86
 365 9 365 9 341.5 38 c 128,-1,87
 318 67 318 67 288 94 c 128,-1,88
 258 121 258 121 227 147 c 0,89,90
 190 178 190 178 153.5 210 c 128,-1,91
 117 242 117 242 88.5 278 c 128,-1,92
 60 314 60 314 42.5 355 c 128,-1,93
 25 396 25 396 25 446 c 2,94,-1
 25 668 l 1,95,-1
 100 668 l 1,48,-1
EndSplineSet
EndChar

StartChar: dieresis
Encoding: 168 168 105
Width: 558
Flags: W
LayerCount: 2
Fore
SplineSet
100 1243 m 0,0,1
 100 1293 100 1293 148 1293 c 256,2,3
 196 1293 196 1293 196 1243 c 0,4,5
 196 1224 196 1224 184 1210 c 128,-1,6
 172 1196 172 1196 148 1196 c 0,7,8
 125 1196 125 1196 112.5 1210 c 128,-1,9
 100 1224 100 1224 100 1243 c 0,0,1
360 1243 m 0,10,11
 360 1293 360 1293 410 1293 c 0,12,13
 458 1293 458 1293 458 1243 c 0,14,15
 458 1224 458 1224 446.5 1210 c 128,-1,16
 435 1196 435 1196 410 1196 c 0,17,18
 386 1196 386 1196 373 1210 c 128,-1,19
 360 1224 360 1224 360 1243 c 0,10,11
EndSplineSet
EndChar

StartChar: copyright
Encoding: 169 169 106
Width: 817
Flags: W
LayerCount: 2
Fore
SplineSet
498 892 m 1,0,-1
 498 1125 l 1,1,-1
 443 1125 l 2,2,3
 407 1125 407 1125 381 1119.5 c 128,-1,4
 355 1114 355 1114 338.5 1099.5 c 128,-1,5
 322 1085 322 1085 314.5 1060.5 c 128,-1,6
 307 1036 307 1036 307 999 c 2,7,-1
 307 379 l 2,8,9
 307 351 307 351 312 327 c 128,-1,10
 317 303 317 303 329 286 c 128,-1,11
 341 269 341 269 360.5 259 c 128,-1,12
 380 249 380 249 408 249 c 0,13,14
 453 249 453 249 475.5 275.5 c 128,-1,15
 498 302 498 302 498 350 c 2,16,-1
 498 482 l 1,17,-1
 562 482 l 1,18,-1
 562 350 l 2,19,20
 562 276 562 276 523.5 233 c 128,-1,21
 485 190 485 190 410 190 c 0,22,23
 365 190 365 190 333 205 c 128,-1,24
 301 220 301 220 280.5 246 c 128,-1,25
 260 272 260 272 251 306 c 128,-1,26
 242 340 242 340 242 379 c 2,27,-1
 242 976 l 2,28,29
 242 1012 242 1012 245 1049 c 128,-1,30
 248 1086 248 1086 265.5 1116 c 128,-1,31
 283 1146 283 1146 320.5 1165 c 128,-1,32
 358 1184 358 1184 428 1184 c 2,33,-1
 562 1184 l 1,34,-1
 562 892 l 1,35,-1
 498 892 l 1,0,-1
767 349 m 2,36,37
 767 244 767 244 736.5 173 c 128,-1,38
 706 102 706 102 656 59.5 c 128,-1,39
 606 17 606 17 541.5 -1.5 c 128,-1,40
 477 -20 477 -20 409 -20 c 256,41,42
 341 -20 341 -20 276.5 -1.5 c 128,-1,43
 212 17 212 17 161.5 59.5 c 128,-1,44
 111 102 111 102 80.5 173 c 128,-1,45
 50 244 50 244 50 349 c 2,46,-1
 50 1045 l 2,47,48
 50 1150 50 1150 80.5 1221 c 128,-1,49
 111 1292 111 1292 161.5 1334.5 c 128,-1,50
 212 1377 212 1377 276.5 1395.5 c 128,-1,51
 341 1414 341 1414 409 1414 c 256,52,53
 477 1414 477 1414 541.5 1395.5 c 128,-1,54
 606 1377 606 1377 656 1334.5 c 128,-1,55
 706 1292 706 1292 736.5 1221 c 128,-1,56
 767 1150 767 1150 767 1045 c 2,57,-1
 767 349 l 2,36,37
703 1044 m 2,58,59
 703 1146 703 1146 675.5 1207.5 c 128,-1,60
 648 1269 648 1269 605 1302 c 128,-1,61
 562 1335 562 1335 510 1345.5 c 128,-1,62
 458 1356 458 1356 409 1356 c 0,63,64
 376 1356 376 1356 341.5 1351.5 c 128,-1,65
 307 1347 307 1347 274.5 1335 c 128,-1,66
 242 1323 242 1323 212.5 1301.5 c 128,-1,67
 183 1280 183 1280 161.5 1245.5 c 128,-1,68
 140 1211 140 1211 127 1161.5 c 128,-1,69
 114 1112 114 1112 114 1044 c 2,70,-1
 114 350 l 2,71,72
 114 282 114 282 127 232.5 c 128,-1,73
 140 183 140 183 161.5 148.5 c 128,-1,74
 183 114 183 114 212.5 92.5 c 128,-1,75
 242 71 242 71 274.5 59 c 128,-1,76
 307 47 307 47 341.5 42.5 c 128,-1,77
 376 38 376 38 409 38 c 0,78,79
 458 38 458 38 510 48.5 c 128,-1,80
 562 59 562 59 605 92 c 128,-1,81
 648 125 648 125 675.5 186.5 c 128,-1,82
 703 248 703 248 703 350 c 2,83,-1
 703 1044 l 2,58,59
EndSplineSet
EndChar

StartChar: ordfeminine
Encoding: 170 170 107
Width: 332
Flags: W
LayerCount: 2
Fore
SplineSet
180 647 m 2,0,1
 218 647 218 647 238.5 673 c 128,-1,2
 259 699 259 699 259 735 c 2,3,-1
 259 1098 l 1,4,-1
 180 1098 l 2,5,6
 142 1098 142 1098 122 1073 c 128,-1,7
 102 1048 102 1048 102 1011 c 2,8,-1
 102 647 l 1,9,-1
 180 647 l 2,0,1
38 589 m 1,10,-1
 38 1010 l 2,11,12
 38 1074 38 1074 73 1115 c 128,-1,13
 108 1156 108 1156 176 1156 c 2,14,-1
 259 1156 l 1,15,-1
 259 1438 l 2,16,17
 259 1475 259 1475 238.5 1500.5 c 128,-1,18
 218 1526 218 1526 180 1526 c 256,19,20
 142 1526 142 1526 122 1499 c 128,-1,21
 102 1472 102 1472 102 1431 c 1,22,-1
 39 1423 l 1,23,24
 39 1457 39 1457 48 1486.5 c 128,-1,25
 57 1516 57 1516 74.5 1538 c 128,-1,26
 92 1560 92 1560 118.5 1572 c 128,-1,27
 145 1584 145 1584 180 1584 c 0,28,29
 252 1584 252 1584 287.5 1542.5 c 128,-1,30
 323 1501 323 1501 323 1438 c 2,31,-1
 323 735 l 2,32,33
 323 671 323 671 288 630 c 128,-1,34
 253 589 253 589 184 589 c 2,35,-1
 38 589 l 1,10,-1
EndSplineSet
EndChar

StartChar: guillemotleft
Encoding: 171 171 108
Width: 501
Flags: W
LayerCount: 2
Fore
SplineSet
250 458 m 1,0,-1
 25 786 l 1,1,-1
 250 1114 l 1,2,-1
 303 1114 l 1,3,-1
 303 1071 l 1,4,-1
 125 786 l 1,5,-1
 303 499 l 1,6,-1
 303 458 l 1,7,-1
 250 458 l 1,0,-1
423 458 m 1,8,-1
 198 786 l 1,9,-1
 423 1114 l 1,10,-1
 476 1114 l 1,11,-1
 476 1071 l 1,12,-1
 298 786 l 1,13,-1
 476 499 l 1,14,-1
 476 458 l 1,15,-1
 423 458 l 1,8,-1
EndSplineSet
EndChar

StartChar: registered
Encoding: 174 174 109
Width: 817
Flags: W
LayerCount: 2
Fore
SplineSet
767 349 m 2,0,1
 767 244 767 244 736.5 173 c 128,-1,2
 706 102 706 102 656 59.5 c 128,-1,3
 606 17 606 17 541.5 -1.5 c 128,-1,4
 477 -20 477 -20 409 -20 c 256,5,6
 341 -20 341 -20 276.5 -1.5 c 128,-1,7
 212 17 212 17 161.5 59.5 c 128,-1,8
 111 102 111 102 80.5 173 c 128,-1,9
 50 244 50 244 50 349 c 2,10,-1
 50 1045 l 2,11,12
 50 1150 50 1150 80.5 1221 c 128,-1,13
 111 1292 111 1292 161.5 1334.5 c 128,-1,14
 212 1377 212 1377 276.5 1395.5 c 128,-1,15
 341 1414 341 1414 409 1414 c 256,16,17
 477 1414 477 1414 541.5 1395.5 c 128,-1,18
 606 1377 606 1377 656 1334.5 c 128,-1,19
 706 1292 706 1292 736.5 1221 c 128,-1,20
 767 1150 767 1150 767 1045 c 2,21,-1
 767 349 l 2,0,1
703 1044 m 2,22,23
 703 1146 703 1146 675.5 1207.5 c 128,-1,24
 648 1269 648 1269 605 1302 c 128,-1,25
 562 1335 562 1335 510 1345.5 c 128,-1,26
 458 1356 458 1356 409 1356 c 0,27,28
 376 1356 376 1356 341.5 1351.5 c 128,-1,29
 307 1347 307 1347 274.5 1335 c 128,-1,30
 242 1323 242 1323 212.5 1301.5 c 128,-1,31
 183 1280 183 1280 161.5 1245.5 c 128,-1,32
 140 1211 140 1211 127 1161.5 c 128,-1,33
 114 1112 114 1112 114 1044 c 2,34,-1
 114 350 l 2,35,36
 114 282 114 282 127 232.5 c 128,-1,37
 140 183 140 183 161.5 148.5 c 128,-1,38
 183 114 183 114 212.5 92.5 c 128,-1,39
 242 71 242 71 274.5 59 c 128,-1,40
 307 47 307 47 341.5 42.5 c 128,-1,41
 376 38 376 38 409 38 c 0,42,43
 458 38 458 38 510 48.5 c 128,-1,44
 562 59 562 59 605 92 c 128,-1,45
 648 125 648 125 675.5 186.5 c 128,-1,46
 703 248 703 248 703 350 c 2,47,-1
 703 1044 l 2,22,23
552 1125 m 2,48,49
 552 1041 552 1041 546.5 973.5 c 128,-1,50
 541 906 541 906 530 852 c 128,-1,51
 519 798 519 798 501 756.5 c 128,-1,52
 483 715 483 715 458 683 c 1,53,-1
 568 205 l 1,54,-1
 505 205 l 1,55,-1
 410 633 l 1,56,57
 386 613 386 613 358 597.5 c 128,-1,58
 330 582 330 582 297 568 c 1,59,-1
 297 205 l 1,60,-1
 232 205 l 1,61,-1
 232 976 l 2,62,63
 232 1012 232 1012 235 1049 c 128,-1,64
 238 1086 238 1086 255.5 1116 c 128,-1,65
 273 1146 273 1146 311 1165 c 128,-1,66
 349 1184 349 1184 419 1184 c 2,67,-1
 552 1184 l 1,68,-1
 552 1125 l 2,48,49
297 635 m 1,69,70
 316 643 316 643 337.5 655.5 c 128,-1,71
 359 668 359 668 380.5 688 c 128,-1,72
 402 708 402 708 421 738 c 128,-1,73
 440 768 440 768 455 813 c 128,-1,74
 470 858 470 858 479 920 c 128,-1,75
 488 982 488 982 488 1066 c 2,76,-1
 488 1125 l 1,77,-1
 433 1125 l 2,78,79
 397 1125 397 1125 371.5 1119 c 128,-1,80
 346 1113 346 1113 329.5 1099 c 128,-1,81
 313 1085 313 1085 305 1060 c 128,-1,82
 297 1035 297 1035 297 998 c 2,83,-1
 297 635 l 1,69,70
EndSplineSet
EndChar

StartChar: degree
Encoding: 176 176 110
Width: 451
Flags: W
LayerCount: 2
Fore
SplineSet
70 1195 m 256,0,1
 70 1226 70 1226 82 1254 c 128,-1,2
 94 1282 94 1282 115 1302.5 c 128,-1,3
 136 1323 136 1323 164 1335 c 128,-1,4
 192 1347 192 1347 224 1347 c 256,5,6
 256 1347 256 1347 284.5 1335 c 128,-1,7
 313 1323 313 1323 334.5 1302.5 c 128,-1,8
 356 1282 356 1282 368.5 1254 c 128,-1,9
 381 1226 381 1226 381 1195 c 256,10,11
 381 1164 381 1164 368.5 1136.5 c 128,-1,12
 356 1109 356 1109 334.5 1089 c 128,-1,13
 313 1069 313 1069 284.5 1057 c 128,-1,14
 256 1045 256 1045 224 1045 c 256,15,16
 192 1045 192 1045 164 1057 c 128,-1,17
 136 1069 136 1069 115 1089 c 128,-1,18
 94 1109 94 1109 82 1136.5 c 128,-1,19
 70 1164 70 1164 70 1195 c 256,0,1
132 1195 m 256,20,21
 132 1175 132 1175 139.5 1158 c 128,-1,22
 147 1141 147 1141 159.5 1128 c 128,-1,23
 172 1115 172 1115 189 1107.5 c 128,-1,24
 206 1100 206 1100 224 1100 c 0,25,26
 243 1100 243 1100 260.5 1107.5 c 128,-1,27
 278 1115 278 1115 291 1128 c 128,-1,28
 304 1141 304 1141 311.5 1158 c 128,-1,29
 319 1175 319 1175 319 1195 c 256,30,31
 319 1215 319 1215 311.5 1233.5 c 128,-1,32
 304 1252 304 1252 291 1265.5 c 128,-1,33
 278 1279 278 1279 260.5 1287 c 128,-1,34
 243 1295 243 1295 224 1295 c 0,35,36
 206 1295 206 1295 189 1287 c 128,-1,37
 172 1279 172 1279 159.5 1265.5 c 128,-1,38
 147 1252 147 1252 139.5 1233.5 c 128,-1,39
 132 1215 132 1215 132 1195 c 256,20,21
EndSplineSet
EndChar

StartChar: plusminus
Encoding: 177 177 111
Width: 697
Flags: W
LayerCount: 2
Fore
SplineSet
672 408 m 1,0,-1
 672 339 l 1,1,-1
 25 339 l 1,2,-1
 25 408 l 1,3,-1
 672 408 l 1,0,-1
387 455 m 1,4,-1
 310 455 l 1,5,-1
 310 660 l 1,6,-1
 25 660 l 1,7,-1
 25 729 l 1,8,-1
 310 729 l 1,9,-1
 310 1052 l 1,10,-1
 387 1052 l 1,11,-1
 387 729 l 1,12,-1
 672 729 l 1,13,-1
 672 660 l 1,14,-1
 387 660 l 1,15,-1
 387 455 l 1,4,-1
EndSplineSet
EndChar

StartChar: twosuperior
Encoding: 178 178 112
Width: 338
Flags: W
LayerCount: 2
Fore
SplineSet
243 1437 m 2,0,1
 243 1477 243 1477 221 1501.5 c 128,-1,2
 199 1526 199 1526 164 1526 c 0,3,4
 127 1526 127 1526 106 1501.5 c 128,-1,5
 85 1477 85 1477 85 1438 c 2,6,-1
 85 1303 l 1,7,-1
 20 1303 l 1,8,-1
 20 1437 l 2,9,10
 20 1503 20 1503 59 1543.5 c 128,-1,11
 98 1584 98 1584 164 1584 c 256,12,13
 230 1584 230 1584 269 1543.5 c 128,-1,14
 308 1503 308 1503 308 1437 c 2,15,-1
 308 1275 l 2,16,17
 308 1250 308 1250 298 1219 c 128,-1,18
 288 1188 288 1188 272 1152.5 c 128,-1,19
 256 1117 256 1117 235 1079 c 128,-1,20
 214 1041 214 1041 193 1002 c 0,21,22
 172 965 172 965 152.5 928.5 c 128,-1,23
 133 892 133 892 118 858.5 c 128,-1,24
 103 825 103 825 94 796 c 128,-1,25
 85 767 85 767 85 745 c 2,26,-1
 85 647 l 1,27,-1
 307 647 l 1,28,-1
 307 589 l 1,29,-1
 20 589 l 1,30,-1
 20 746 l 2,31,32
 20 770 20 770 30 801.5 c 128,-1,33
 40 833 40 833 56 869 c 128,-1,34
 72 905 72 905 92.5 943.5 c 128,-1,35
 113 982 113 982 133 1020 c 256,36,37
 153 1058 153 1058 173 1095.5 c 128,-1,38
 193 1133 193 1133 208.5 1167 c 128,-1,39
 224 1201 224 1201 233.5 1230.5 c 128,-1,40
 243 1260 243 1260 243 1283 c 2,41,-1
 243 1437 l 2,0,1
EndSplineSet
EndChar

StartChar: threesuperior
Encoding: 179 179 113
Width: 344
Flags: W
LayerCount: 2
Fore
SplineSet
20 1437 m 2,0,1
 20 1503 20 1503 59.5 1543.5 c 128,-1,2
 99 1584 99 1584 165 1584 c 0,3,4
 198 1584 198 1584 224.5 1573.5 c 128,-1,5
 251 1563 251 1563 270 1543.5 c 128,-1,6
 289 1524 289 1524 299 1497 c 128,-1,7
 309 1470 309 1470 309 1437 c 2,8,-1
 309 1221 l 2,9,10
 309 1200 309 1200 302 1176.5 c 128,-1,11
 295 1153 295 1153 272 1133 c 1,12,13
 295 1113 295 1113 302 1088.5 c 128,-1,14
 309 1064 309 1064 309 1041 c 2,15,-1
 309 728 l 2,16,17
 309 695 309 695 299 668 c 128,-1,18
 289 641 289 641 270 621.5 c 128,-1,19
 251 602 251 602 224.5 591.5 c 128,-1,20
 198 581 198 581 165 581 c 0,21,22
 99 581 99 581 59.5 621.5 c 128,-1,23
 20 662 20 662 20 728 c 2,24,-1
 20 982 l 1,25,-1
 85 982 l 1,26,-1
 85 727 l 2,27,28
 85 688 85 688 106.5 663.5 c 128,-1,29
 128 639 128 639 165 639 c 0,30,31
 200 639 200 639 222 663.5 c 128,-1,32
 244 688 244 688 244 727 c 2,33,-1
 244 1044 l 2,34,35
 244 1051 244 1051 242.5 1061 c 128,-1,36
 241 1071 241 1071 234.5 1080.5 c 128,-1,37
 228 1090 228 1090 215.5 1097 c 128,-1,38
 203 1104 203 1104 181 1104 c 2,39,-1
 123 1104 l 1,40,-1
 123 1162 l 1,41,-1
 183 1162 l 2,42,43
 204 1162 204 1162 216 1169 c 128,-1,44
 228 1176 228 1176 234.5 1185.5 c 128,-1,45
 241 1195 241 1195 242.5 1205 c 128,-1,46
 244 1215 244 1215 244 1221 c 2,47,-1
 244 1438 l 2,48,49
 244 1477 244 1477 222 1501.5 c 128,-1,50
 200 1526 200 1526 165 1526 c 0,51,52
 128 1526 128 1526 106.5 1501.5 c 128,-1,53
 85 1477 85 1477 85 1438 c 2,54,-1
 85 1303 l 1,55,-1
 20 1303 l 1,56,-1
 20 1437 l 2,0,1
EndSplineSet
EndChar

StartChar: acute
Encoding: 180 180 114
Width: 411
Flags: W
LayerCount: 2
Fore
SplineSet
227 1393 m 1,0,-1
 311 1393 l 1,1,-1
 173 1104 l 1,2,-1
 100 1104 l 1,3,-1
 227 1393 l 1,0,-1
EndSplineSet
EndChar

StartChar: mu
Encoding: 181 181 115
AltUni2: 0003bc.ffffffff.0
Width: 502
Flags: W
LayerCount: 2
Fore
SplineSet
90 -327 m 1,0,-1
 90 1018 l 1,1,-1
 165 1018 l 1,2,-1
 165 68 l 1,3,-1
 251 68 l 2,4,5
 267 68 267 68 286.5 70.5 c 128,-1,6
 306 73 306 73 322.5 83 c 128,-1,7
 339 93 339 93 350.5 112 c 128,-1,8
 362 131 362 131 362 163 c 2,9,-1
 362 1018 l 1,10,-1
 437 1018 l 1,11,-1
 437 163 l 2,12,13
 437 107 437 107 417 74.5 c 128,-1,14
 397 42 397 42 368.5 25.5 c 128,-1,15
 340 9 340 9 308 4.5 c 128,-1,16
 276 0 276 0 252 0 c 2,17,-1
 165 0 l 1,18,-1
 165 -327 l 1,19,-1
 90 -327 l 1,0,-1
EndSplineSet
EndChar

StartChar: paragraph
Encoding: 182 182 116
Width: 662
Flags: W
LayerCount: 2
Fore
SplineSet
497 516 m 1,0,1
 454 533 454 533 404.5 558 c 128,-1,2
 355 583 355 583 305 618 c 128,-1,3
 255 653 255 653 209 700 c 128,-1,4
 163 747 163 747 127.5 807 c 128,-1,5
 92 867 92 867 71 941.5 c 128,-1,6
 50 1016 50 1016 50 1108 c 2,7,-1
 50 1393 l 1,8,-1
 313 1393 l 2,9,10
 377 1393 377 1393 421.5 1381 c 128,-1,11
 466 1369 466 1369 494.5 1348 c 128,-1,12
 523 1327 523 1327 539 1298.5 c 128,-1,13
 555 1270 555 1270 562 1238 c 128,-1,14
 569 1206 569 1206 570.5 1172 c 128,-1,15
 572 1138 572 1138 572 1105 c 2,16,-1
 572 88 l 2,17,18
 572 62 572 62 570 32 c 128,-1,19
 568 2 568 2 560 -27.5 c 128,-1,20
 552 -57 552 -57 536 -84 c 128,-1,21
 520 -111 520 -111 492.5 -132 c 128,-1,22
 465 -153 465 -153 424 -165.5 c 128,-1,23
 383 -178 383 -178 325 -178 c 1,24,-1
 306 -177 l 1,25,-1
 312 -112 l 1,26,27
 320 -113 320 -113 325 -113 c 128,-1,28
 330 -113 330 -113 335 -113 c 0,29,30
 374 -113 374 -113 404 -102.5 c 128,-1,31
 434 -92 434 -92 454.5 -68 c 128,-1,32
 475 -44 475 -44 486 -5 c 128,-1,33
 497 34 497 34 497 92 c 2,34,-1
 497 516 l 1,0,1
EndSplineSet
EndChar

StartChar: periodcentered
Encoding: 183 183 117
Width: 240
Flags: W
LayerCount: 2
Fore
SplineSet
30 443 m 0,0,1
 30 461 30 461 37.5 477 c 128,-1,2
 45 493 45 493 57 504.5 c 128,-1,3
 69 516 69 516 85.5 523 c 128,-1,4
 102 530 102 530 120 530 c 0,5,6
 139 530 139 530 155.5 523 c 128,-1,7
 172 516 172 516 184 504.5 c 128,-1,8
 196 493 196 493 203 477 c 128,-1,9
 210 461 210 461 210 443 c 0,10,11
 210 408 210 408 184 383 c 128,-1,12
 158 358 158 358 120 358 c 0,13,14
 102 358 102 358 85.5 365 c 128,-1,15
 69 372 69 372 57 383.5 c 128,-1,16
 45 395 45 395 37.5 410.5 c 128,-1,17
 30 426 30 426 30 443 c 0,0,1
EndSplineSet
EndChar

StartChar: cedilla
Encoding: 184 184 118
Width: 422
Flags: W
LayerCount: 2
Fore
SplineSet
123 -384 m 1,0,-1
 163 -384 l 2,1,2
 201 -384 201 -384 224 -359 c 128,-1,3
 247 -334 247 -334 247 -298 c 0,4,5
 247 -263 247 -263 225 -241.5 c 128,-1,6
 203 -220 203 -220 171 -220 c 2,7,-1
 105 -220 l 1,8,-1
 105 47 l 1,9,-1
 181 47 l 1,10,-1
 181 -160 l 1,11,12
 211 -161 211 -161 237 -172 c 128,-1,13
 263 -183 263 -183 282 -201.5 c 128,-1,14
 301 -220 301 -220 311.5 -245.5 c 128,-1,15
 322 -271 322 -271 322 -300 c 0,16,17
 322 -333 322 -333 309 -359.5 c 128,-1,18
 296 -386 296 -386 275 -405 c 128,-1,19
 254 -424 254 -424 226 -434 c 128,-1,20
 198 -444 198 -444 168 -444 c 2,21,-1
 100 -444 l 1,22,-1
 123 -384 l 1,0,-1
EndSplineSet
EndChar

StartChar: onesuperior
Encoding: 185 185 119
Width: 240
Flags: W
LayerCount: 2
Fore
SplineSet
115 1506 m 1,0,-1
 5 1506 l 1,1,-1
 5 1564 l 1,2,-1
 180 1564 l 1,3,-1
 180 589 l 1,4,-1
 115 589 l 1,5,-1
 115 1506 l 1,0,-1
EndSplineSet
EndChar

StartChar: ordmasculine
Encoding: 186 186 120
Width: 359
Flags: W
LayerCount: 2
Fore
SplineSet
324 728 m 2,0,1
 324 662 324 662 284 621.5 c 128,-1,2
 244 581 244 581 179 581 c 0,3,4
 113 581 113 581 74 621.5 c 128,-1,5
 35 662 35 662 35 728 c 2,6,-1
 35 1437 l 2,7,8
 35 1503 35 1503 74 1543.5 c 128,-1,9
 113 1584 113 1584 179 1584 c 0,10,11
 244 1584 244 1584 284 1543.5 c 128,-1,12
 324 1503 324 1503 324 1437 c 2,13,-1
 324 728 l 2,0,1
259 1438 m 2,14,15
 259 1477 259 1477 237 1501.5 c 128,-1,16
 215 1526 215 1526 179 1526 c 256,17,18
 143 1526 143 1526 121.5 1501.5 c 128,-1,19
 100 1477 100 1477 100 1438 c 2,20,-1
 100 727 l 2,21,22
 100 688 100 688 121.5 663.5 c 128,-1,23
 143 639 143 639 179 639 c 256,24,25
 215 639 215 639 237 663.5 c 128,-1,26
 259 688 259 688 259 727 c 2,27,-1
 259 1438 l 2,14,15
EndSplineSet
EndChar

StartChar: guillemotright
Encoding: 187 187 121
Width: 501
Flags: W
LayerCount: 2
Fore
SplineSet
198 458 m 1,0,-1
 198 499 l 1,1,-1
 376 786 l 1,2,-1
 198 1071 l 1,3,-1
 198 1114 l 1,4,-1
 251 1114 l 1,5,-1
 476 786 l 1,6,-1
 251 458 l 1,7,-1
 198 458 l 1,0,-1
25 458 m 1,8,-1
 25 499 l 1,9,-1
 203 786 l 1,10,-1
 25 1071 l 1,11,-1
 25 1114 l 1,12,-1
 78 1114 l 1,13,-1
 303 786 l 1,14,-1
 78 458 l 1,15,-1
 25 458 l 1,8,-1
EndSplineSet
EndChar

StartChar: onequarter
Encoding: 188 188 122
Width: 915
Flags: W
LayerCount: 2
Fore
SplineSet
565 1393 m 1,0,-1
 634 1393 l 1,1,-1
 287 0 l 1,2,-1
 218 0 l 1,3,-1
 565 1393 l 1,0,-1
817 561 m 1,4,-1
 817 391 l 1,5,-1
 900 391 l 1,6,-1
 900 333 l 1,7,-1
 817 333 l 1,8,-1
 817 0 l 1,9,-1
 752 0 l 1,10,-1
 752 333 l 1,11,-1
 532 333 l 1,12,-1
 532 372 l 1,13,-1
 749 975 l 1,14,-1
 813 975 l 1,15,-1
 608 391 l 1,16,-1
 752 391 l 1,17,-1
 752 561 l 1,18,-1
 817 561 l 1,4,-1
115 1335 m 1,19,-1
 5 1335 l 1,20,-1
 5 1393 l 1,21,-1
 180 1393 l 1,22,-1
 180 418 l 1,23,-1
 115 418 l 1,24,-1
 115 1335 l 1,19,-1
EndSplineSet
EndChar

StartChar: onehalf
Encoding: 189 189 123
Width: 897
Flags: W
LayerCount: 2
Fore
SplineSet
115 1335 m 1,0,-1
 5 1335 l 1,1,-1
 5 1393 l 1,2,-1
 180 1393 l 1,3,-1
 180 418 l 1,4,-1
 115 418 l 1,5,-1
 115 1335 l 1,0,-1
565 1393 m 1,6,-1
 634 1393 l 1,7,-1
 287 0 l 1,8,-1
 218 0 l 1,9,-1
 565 1393 l 1,6,-1
787 842 m 2,10,11
 787 882 787 882 765 906.5 c 128,-1,12
 743 931 743 931 708 931 c 0,13,14
 671 931 671 931 650 906.5 c 128,-1,15
 629 882 629 882 629 843 c 2,16,-1
 629 708 l 1,17,-1
 564 708 l 1,18,-1
 564 842 l 2,19,20
 564 908 564 908 603 948.5 c 128,-1,21
 642 989 642 989 708 989 c 256,22,23
 774 989 774 989 813 948.5 c 128,-1,24
 852 908 852 908 852 842 c 2,25,-1
 852 683 l 2,26,27
 852 658 852 658 842 627 c 128,-1,28
 832 596 832 596 816 560.5 c 128,-1,29
 800 525 800 525 779 487 c 128,-1,30
 758 449 758 449 737 410 c 0,31,32
 716 373 716 373 696.5 336.5 c 128,-1,33
 677 300 677 300 662 266.5 c 128,-1,34
 647 233 647 233 638 204 c 128,-1,35
 629 175 629 175 629 153 c 2,36,-1
 629 58 l 1,37,-1
 851 58 l 1,38,-1
 851 0 l 1,39,-1
 564 0 l 1,40,-1
 564 154 l 2,41,42
 564 178 564 178 574 209.5 c 128,-1,43
 584 241 584 241 600 277 c 128,-1,44
 616 313 616 313 636.5 351.5 c 128,-1,45
 657 390 657 390 677 428 c 256,46,47
 697 466 697 466 717 503.5 c 128,-1,48
 737 541 737 541 752.5 575 c 128,-1,49
 768 609 768 609 777.5 638.5 c 128,-1,50
 787 668 787 668 787 691 c 2,51,-1
 787 842 l 2,10,11
EndSplineSet
EndChar

StartChar: threequarters
Encoding: 190 190 124
Width: 911
Flags: W
LayerCount: 2
Fore
SplineSet
20 1266 m 2,0,1
 20 1332 20 1332 59.5 1372.5 c 128,-1,2
 99 1413 99 1413 165 1413 c 0,3,4
 198 1413 198 1413 224.5 1402.5 c 128,-1,5
 251 1392 251 1392 270 1372.5 c 128,-1,6
 289 1353 289 1353 299 1326 c 128,-1,7
 309 1299 309 1299 309 1266 c 2,8,-1
 309 1050 l 2,9,10
 309 1029 309 1029 302 1005.5 c 128,-1,11
 295 982 295 982 272 962 c 1,12,13
 295 942 295 942 302 917.5 c 128,-1,14
 309 893 309 893 309 870 c 2,15,-1
 309 557 l 2,16,17
 309 524 309 524 299 497 c 128,-1,18
 289 470 289 470 270 450.5 c 128,-1,19
 251 431 251 431 224.5 420.5 c 128,-1,20
 198 410 198 410 165 410 c 0,21,22
 99 410 99 410 59.5 450.5 c 128,-1,23
 20 491 20 491 20 557 c 2,24,-1
 20 811 l 1,25,-1
 85 811 l 1,26,-1
 85 556 l 2,27,28
 85 517 85 517 106.5 492.5 c 128,-1,29
 128 468 128 468 165 468 c 0,30,31
 200 468 200 468 222 492.5 c 128,-1,32
 244 517 244 517 244 556 c 2,33,-1
 244 873 l 2,34,35
 244 880 244 880 242.5 890 c 128,-1,36
 241 900 241 900 234.5 909.5 c 128,-1,37
 228 919 228 919 215.5 926 c 128,-1,38
 203 933 203 933 181 933 c 2,39,-1
 123 933 l 1,40,-1
 123 991 l 1,41,-1
 183 991 l 2,42,43
 204 991 204 991 216 998 c 128,-1,44
 228 1005 228 1005 234.5 1014.5 c 128,-1,45
 241 1024 241 1024 242.5 1034 c 128,-1,46
 244 1044 244 1044 244 1050 c 2,47,-1
 244 1267 l 2,48,49
 244 1306 244 1306 222 1330.5 c 128,-1,50
 200 1355 200 1355 165 1355 c 0,51,52
 128 1355 128 1355 106.5 1330.5 c 128,-1,53
 85 1306 85 1306 85 1267 c 2,54,-1
 85 1132 l 1,55,-1
 20 1132 l 1,56,-1
 20 1266 l 2,0,1
585 1393 m 1,57,-1
 654 1393 l 1,58,-1
 307 0 l 1,59,-1
 238 0 l 1,60,-1
 585 1393 l 1,57,-1
807 563 m 1,61,-1
 807 393 l 1,62,-1
 896 393 l 1,63,-1
 896 335 l 1,64,-1
 807 335 l 1,65,-1
 807 2 l 1,66,-1
 744 2 l 1,67,-1
 744 335 l 1,68,-1
 528 335 l 1,69,-1
 528 374 l 1,70,-1
 745 977 l 1,71,-1
 809 977 l 1,72,-1
 604 393 l 1,73,-1
 744 393 l 1,74,-1
 744 563 l 1,75,-1
 807 563 l 1,61,-1
EndSplineSet
EndChar

StartChar: questiondown
Encoding: 191 191 125
Width: 518
Flags: W
LayerCount: 2
Fore
SplineSet
105 199 m 2,0,1
 105 166 105 166 116 138.5 c 128,-1,2
 127 111 127 111 146 90.5 c 128,-1,3
 165 70 165 70 192 58.5 c 128,-1,4
 219 47 219 47 250 47 c 0,5,6
 284 47 284 47 311.5 59 c 128,-1,7
 339 71 339 71 358 91 c 128,-1,8
 377 111 377 111 387.5 139 c 128,-1,9
 398 167 398 167 398 198 c 2,10,-1
 398 318 l 1,11,-1
 473 318 l 1,12,-1
 473 198 l 2,13,14
 473 149 473 149 455.5 109 c 128,-1,15
 438 69 438 69 408 40.5 c 128,-1,16
 378 12 378 12 337.5 -4 c 128,-1,17
 297 -20 297 -20 252 -20 c 0,18,19
 203 -20 203 -20 162 -3 c 128,-1,20
 121 14 121 14 91.5 43.5 c 128,-1,21
 62 73 62 73 46 112.5 c 128,-1,22
 30 152 30 152 30 198 c 2,23,-1
 30 359 l 2,24,25
 30 403 30 403 41.5 439.5 c 128,-1,26
 53 476 53 476 72 508.5 c 128,-1,27
 91 541 91 541 117 570 c 128,-1,28
 143 599 143 599 171 627 c 0,29,30
 196 652 196 652 221.5 677 c 128,-1,31
 247 702 247 702 268 730 c 128,-1,32
 289 758 289 758 302 790.5 c 128,-1,33
 315 823 315 823 315 864 c 2,34,-1
 315 1105 l 1,35,-1
 391 1105 l 1,36,-1
 391 864 l 2,37,38
 391 822 391 822 378 786 c 128,-1,39
 365 750 365 750 342.5 716.5 c 128,-1,40
 320 683 320 683 289.5 650.5 c 128,-1,41
 259 618 259 618 224 583 c 0,42,43
 200 559 200 559 178 534.5 c 128,-1,44
 156 510 156 510 140 483 c 128,-1,45
 124 456 124 456 114.5 425.5 c 128,-1,46
 105 395 105 395 105 359 c 2,47,-1
 105 199 l 2,0,1
399 1451 m 0,48,49
 399 1435 399 1435 386 1421 c 128,-1,50
 373 1407 373 1407 350 1407 c 256,51,52
 327 1407 327 1407 314.5 1421 c 128,-1,53
 302 1435 302 1435 302 1451 c 0,54,55
 302 1471 302 1471 314.5 1484 c 128,-1,56
 327 1497 327 1497 350 1497 c 0,57,58
 370 1497 370 1497 384.5 1484 c 128,-1,59
 399 1471 399 1471 399 1451 c 0,48,49
EndSplineSet
EndChar

StartChar: AE
Encoding: 198 198 132
Width: 894
Flags: W
LayerCount: 2
Fore
SplineSet
514 788 m 1,0,-1
 721 788 l 1,1,-1
 721 721 l 1,2,-1
 514 721 l 1,3,-1
 514 67 l 1,4,-1
 859 67 l 1,5,-1
 859 0 l 1,6,-1
 438 0 l 1,7,-1
 438 579 l 1,8,-1
 145 579 l 1,9,-1
 145 0 l 1,10,-1
 70 0 l 1,11,-1
 70 1102 l 2,12,13
 70 1152 70 1152 74 1204 c 128,-1,14
 78 1256 78 1256 102.5 1298 c 128,-1,15
 127 1340 127 1340 179.5 1366.5 c 128,-1,16
 232 1393 232 1393 329 1393 c 2,17,-1
 859 1393 l 1,18,-1
 859 1326 l 1,19,-1
 514 1326 l 1,20,-1
 514 788 l 1,0,-1
352 1326 m 2,21,22
 298 1326 298 1326 259 1317 c 128,-1,23
 220 1308 220 1308 194.5 1286.5 c 128,-1,24
 169 1265 169 1265 157 1228 c 128,-1,25
 145 1191 145 1191 145 1135 c 2,26,-1
 145 647 l 1,27,-1
 438 647 l 1,28,-1
 438 1326 l 1,29,-1
 352 1326 l 2,21,22
EndSplineSet
EndChar

StartChar: Ccedilla
Encoding: 199 199 133
Width: 558
Flags: W
LayerCount: 2
Fore
SplineSet
276 -384 m 1,0,-1
 316 -384 l 2,1,2
 354 -384 354 -384 377 -359 c 128,-1,3
 400 -334 400 -334 400 -298 c 0,4,5
 400 -263 400 -263 378 -241.5 c 128,-1,6
 356 -220 356 -220 324 -220 c 2,7,-1
 258 -220 l 1,8,-1
 258 -17 l 1,9,10
 207 -10 207 -10 171 13 c 128,-1,11
 135 36 135 36 112.5 71 c 128,-1,12
 90 106 90 106 80 150 c 128,-1,13
 70 194 70 194 70 243 c 2,14,-1
 70 1103 l 2,15,16
 70 1136 70 1136 71 1170.5 c 128,-1,17
 72 1205 72 1205 79.5 1237.5 c 128,-1,18
 87 1270 87 1270 102.5 1298.5 c 128,-1,19
 118 1327 118 1327 146.5 1348 c 128,-1,20
 175 1369 175 1369 219.5 1381.5 c 128,-1,21
 264 1394 264 1394 328 1394 c 2,22,-1
 513 1394 l 1,23,-1
 513 991 l 1,24,-1
 438 991 l 1,25,-1
 438 1327 l 1,26,-1
 351 1327 l 2,27,28
 297 1327 297 1327 258 1318.5 c 128,-1,29
 219 1310 219 1310 194 1288.5 c 128,-1,30
 169 1267 169 1267 157 1230 c 128,-1,31
 145 1193 145 1193 145 1137 c 2,32,-1
 145 243 l 2,33,34
 145 201 145 201 153.5 165.5 c 128,-1,35
 162 130 162 130 180.5 103.5 c 128,-1,36
 199 77 199 77 228.5 62 c 128,-1,37
 258 47 258 47 300 47 c 0,38,39
 369 47 369 47 403.5 87 c 128,-1,40
 438 127 438 127 438 202 c 2,41,-1
 438 383 l 1,42,-1
 513 383 l 1,43,-1
 513 201 l 2,44,45
 513 107 513 107 468 49 c 128,-1,46
 423 -9 423 -9 334 -18 c 1,47,-1
 334 -160 l 1,48,49
 364 -161 364 -161 390 -172 c 128,-1,50
 416 -183 416 -183 435 -201.5 c 128,-1,51
 454 -220 454 -220 464.5 -245.5 c 128,-1,52
 475 -271 475 -271 475 -300 c 0,53,54
 475 -333 475 -333 462 -359.5 c 128,-1,55
 449 -386 449 -386 428 -405 c 128,-1,56
 407 -424 407 -424 379 -434 c 128,-1,57
 351 -444 351 -444 321 -444 c 2,58,-1
 253 -444 l 1,59,-1
 276 -384 l 1,0,-1
EndSplineSet
EndChar

StartChar: Eth
Encoding: 208 208 142
Width: 638
Flags: W
LayerCount: 2
Fore
SplineSet
9 731 m 1,0,-1
 125 731 l 1,1,-1
 125 1393 l 1,2,-1
 310 1393 l 2,3,4
 374 1393 374 1393 418.5 1381 c 128,-1,5
 463 1369 463 1369 491.5 1347.5 c 128,-1,6
 520 1326 520 1326 535.5 1297.5 c 128,-1,7
 551 1269 551 1269 558.5 1237 c 128,-1,8
 566 1205 566 1205 567 1170 c 128,-1,9
 568 1135 568 1135 568 1102 c 2,10,-1
 568 291 l 2,11,12
 568 258 568 258 567 223.5 c 128,-1,13
 566 189 566 189 558.5 156.5 c 128,-1,14
 551 124 551 124 535.5 95.5 c 128,-1,15
 520 67 520 67 491.5 46 c 128,-1,16
 463 25 463 25 418.5 12.5 c 128,-1,17
 374 0 374 0 310 0 c 2,18,-1
 125 0 l 1,19,-1
 125 662 l 1,20,-1
 9 662 l 1,21,-1
 9 731 l 1,0,-1
493 1135 m 2,22,23
 493 1191 493 1191 481 1228 c 128,-1,24
 469 1265 469 1265 444 1286.5 c 128,-1,25
 419 1308 419 1308 380.5 1317 c 128,-1,26
 342 1326 342 1326 288 1326 c 2,27,-1
 200 1326 l 1,28,-1
 200 731 l 1,29,-1
 332 731 l 1,30,-1
 332 662 l 1,31,-1
 200 662 l 1,32,-1
 200 67 l 1,33,-1
 288 67 l 2,34,35
 342 67 342 67 380.5 75.5 c 128,-1,36
 419 84 419 84 444 105.5 c 128,-1,37
 469 127 469 127 481 164 c 128,-1,38
 493 201 493 201 493 257 c 2,39,-1
 493 1135 l 2,22,23
EndSplineSet
EndChar

StartChar: multiply
Encoding: 215 215 149
Width: 637
Flags: W
LayerCount: 2
Fore
SplineSet
372 689 m 1,0,-1
 602 460 l 1,1,-1
 548 406 l 1,2,-1
 318 635 l 1,3,-1
 89 406 l 1,4,-1
 35 460 l 1,5,-1
 264 689 l 1,6,-1
 35 919 l 1,7,-1
 89 973 l 1,8,-1
 318 743 l 1,9,-1
 548 973 l 1,10,-1
 602 919 l 1,11,-1
 372 689 l 1,0,-1
EndSplineSet
EndChar

StartChar: Oslash
Encoding: 216 216 150
Width: 872
Flags: W
LayerCount: 2
Fore
SplineSet
5 105 m 1,0,-1
 225 411 l 1,1,-1
 225 1102 l 2,2,3
 225 1135 225 1135 226.5 1170 c 128,-1,4
 228 1205 228 1205 235 1237 c 128,-1,5
 242 1269 242 1269 258 1297.5 c 128,-1,6
 274 1326 274 1326 302.5 1347.5 c 128,-1,7
 331 1369 331 1369 375.5 1381 c 128,-1,8
 420 1393 420 1393 485 1393 c 2,9,-1
 668 1393 l 1,10,-1
 668 1027 l 1,11,-1
 832 1255 l 1,12,-1
 867 1220 l 1,13,-1
 668 943 l 1,14,-1
 668 262 l 2,15,16
 668 207 668 207 658 156 c 128,-1,17
 648 105 648 105 622.5 66 c 128,-1,18
 597 27 597 27 553.5 3.5 c 128,-1,19
 510 -20 510 -20 444 -20 c 0,20,21
 382 -20 382 -20 340 2.5 c 128,-1,22
 298 25 298 25 272.5 63 c 128,-1,23
 247 101 247 101 236 152.5 c 128,-1,24
 225 204 225 204 225 262 c 2,25,-1
 225 327 l 1,26,-1
 40 70 l 1,27,-1
 5 105 l 1,0,-1
300 515 m 1,28,-1
 593 923 l 1,29,-1
 593 1326 l 1,30,-1
 506 1326 l 2,31,32
 453 1326 453 1326 414 1317 c 128,-1,33
 375 1308 375 1308 349.5 1286.5 c 128,-1,34
 324 1265 324 1265 312 1228 c 128,-1,35
 300 1191 300 1191 300 1135 c 2,36,-1
 300 515 l 1,28,-1
593 839 m 1,37,-1
 300 432 l 1,38,-1
 300 229 l 2,39,40
 300 193 300 193 307.5 160.5 c 128,-1,41
 315 128 315 128 332.5 102.5 c 128,-1,42
 350 77 350 77 378 62 c 128,-1,43
 406 47 406 47 448 47 c 0,44,45
 488 47 488 47 515.5 61.5 c 128,-1,46
 543 76 543 76 560 101 c 128,-1,47
 577 126 577 126 585 159 c 128,-1,48
 593 192 593 192 593 229 c 2,49,-1
 593 839 l 1,37,-1
EndSplineSet
EndChar

StartChar: Thorn
Encoding: 222 222 156
Width: 506
Flags: W
LayerCount: 2
Fore
SplineSet
90 0 m 1,0,-1
 90 1566 l 1,1,-1
 167 1566 l 1,2,-1
 167 1439 l 1,3,4
 233 1434 233 1434 288 1410 c 128,-1,5
 343 1386 343 1386 382.5 1343 c 128,-1,6
 422 1300 422 1300 444 1239.5 c 128,-1,7
 466 1179 466 1179 466 1102 c 0,8,9
 466 1023 466 1023 441.5 954.5 c 128,-1,10
 417 886 417 886 375.5 834.5 c 128,-1,11
 334 783 334 783 279.5 752 c 128,-1,12
 225 721 225 721 165 717 c 1,13,-1
 167 717 l 1,14,-1
 167 0 l 1,15,-1
 90 0 l 1,0,-1
389 1102 m 0,16,17
 389 1231 389 1231 332.5 1299 c 128,-1,18
 276 1367 276 1367 167 1373 c 1,19,-1
 167 783 l 1,20,21
 215 787 215 787 255.5 814.5 c 128,-1,22
 296 842 296 842 326 885.5 c 128,-1,23
 356 929 356 929 372.5 984.5 c 128,-1,24
 389 1040 389 1040 389 1102 c 0,16,17
EndSplineSet
EndChar

StartChar: germandbls
Encoding: 223 223 157
Width: 604
Flags: W
LayerCount: 2
Fore
SplineSet
304 71 m 1,0,1
 344 63 344 63 380 63 c 0,2,3
 410 63 410 63 435.5 74 c 128,-1,4
 461 85 461 85 479.5 103.5 c 128,-1,5
 498 122 498 122 508.5 148 c 128,-1,6
 519 174 519 174 519 204 c 0,7,8
 519 239 519 239 505.5 276 c 128,-1,9
 492 313 492 313 471 349 c 128,-1,10
 450 385 450 385 425 418 c 128,-1,11
 400 451 400 451 377 478 c 0,12,13
 353 506 353 506 328.5 538 c 128,-1,14
 304 570 304 570 283.5 605.5 c 128,-1,15
 263 641 263 641 250 677.5 c 128,-1,16
 237 714 237 714 237 751 c 0,17,18
 237 791 237 791 247.5 827 c 128,-1,19
 258 863 258 863 274.5 895 c 128,-1,20
 291 927 291 927 312.5 957 c 128,-1,21
 334 987 334 987 355 1015 c 0,22,23
 373 1039 373 1039 391 1064 c 128,-1,24
 409 1089 409 1089 423.5 1114.5 c 128,-1,25
 438 1140 438 1140 446.5 1166 c 128,-1,26
 455 1192 455 1192 455 1219 c 0,27,28
 455 1247 455 1247 445 1266.5 c 128,-1,29
 435 1286 435 1286 418.5 1297 c 128,-1,30
 402 1308 402 1308 381.5 1313 c 128,-1,31
 361 1318 361 1318 339 1318 c 0,32,33
 302 1318 302 1318 270 1308.5 c 128,-1,34
 238 1299 238 1299 215 1274.5 c 128,-1,35
 192 1250 192 1250 178.5 1208 c 128,-1,36
 165 1166 165 1166 165 1101 c 2,37,-1
 165 0 l 1,38,-1
 90 0 l 1,39,-1
 90 1097 l 2,40,41
 90 1146 90 1146 98.5 1197.5 c 128,-1,42
 107 1249 107 1249 132.5 1290.5 c 128,-1,43
 158 1332 158 1332 206 1358.5 c 128,-1,44
 254 1385 254 1385 333 1385 c 0,45,46
 373 1385 373 1385 408.5 1377 c 128,-1,47
 444 1369 444 1369 471 1350 c 128,-1,48
 498 1331 498 1331 514 1301 c 128,-1,49
 530 1271 530 1271 530 1227 c 0,50,51
 530 1187 530 1187 520 1152 c 128,-1,52
 510 1117 510 1117 493.5 1085.5 c 128,-1,53
 477 1054 477 1054 456 1024.5 c 128,-1,54
 435 995 435 995 414 967 c 0,55,56
 394 941 394 941 376 916 c 128,-1,57
 358 891 358 891 343.5 864.5 c 128,-1,58
 329 838 329 838 320.5 810.5 c 128,-1,59
 312 783 312 783 312 753 c 256,60,61
 312 723 312 723 324 691.5 c 128,-1,62
 336 660 336 660 354.5 629.5 c 128,-1,63
 373 599 373 599 396 570.5 c 128,-1,64
 419 542 419 542 440 517 c 0,65,66
 466 486 466 486 493.5 451.5 c 128,-1,67
 521 417 521 417 543.5 379.5 c 128,-1,68
 566 342 566 342 580 301 c 128,-1,69
 594 260 594 260 594 217 c 0,70,71
 594 168 594 168 577.5 127.5 c 128,-1,72
 561 87 561 87 532.5 57.5 c 128,-1,73
 504 28 504 28 464 12 c 128,-1,74
 424 -4 424 -4 378 -4 c 0,75,76
 358 -4 358 -4 332 -0.5 c 128,-1,77
 306 3 306 3 276 9 c 1,78,-1
 304 71 l 1,0,1
EndSplineSet
EndChar

StartChar: ae
Encoding: 230 230 164
Width: 729
Flags: W
LayerCount: 2
Fore
SplineSet
679 1018 m 1,0,-1
 679 604 l 2,1,2
 679 564 679 564 668 530.5 c 128,-1,3
 657 497 657 497 635 472.5 c 128,-1,4
 613 448 613 448 580.5 434.5 c 128,-1,5
 548 421 548 421 506 421 c 2,6,-1
 407 421 l 1,7,-1
 407 156 l 2,8,9
 407 110 407 110 432.5 78.5 c 128,-1,10
 458 47 458 47 506 47 c 0,11,12
 553 47 553 47 578.5 83 c 128,-1,13
 604 119 604 119 604 171 c 1,14,-1
 678 182 l 1,15,16
 678 139 678 139 667 102 c 128,-1,17
 656 65 656 65 634.5 38 c 128,-1,18
 613 11 613 11 580.5 -4.5 c 128,-1,19
 548 -20 548 -20 506 -20 c 0,20,21
 455 -20 455 -20 419 -1 c 128,-1,22
 383 18 383 18 361 50 c 1,23,24
 339 27 339 27 307 13.5 c 128,-1,25
 275 0 275 0 233 0 c 2,26,-1
 60 0 l 1,27,-1
 60 414 l 2,28,29
 60 454 60 454 71 487.5 c 128,-1,30
 82 521 82 521 104 545.5 c 128,-1,31
 126 570 126 570 158.5 583.5 c 128,-1,32
 191 597 191 597 233 597 c 2,33,-1
 332 597 l 1,34,-1
 332 862 l 2,35,36
 332 908 332 908 306.5 939.5 c 128,-1,37
 281 971 281 971 233 971 c 0,38,39
 186 971 186 971 160.5 935 c 128,-1,40
 135 899 135 899 135 847 c 1,41,-1
 61 836 l 1,42,43
 61 879 61 879 72 916 c 128,-1,44
 83 953 83 953 104.5 980 c 128,-1,45
 126 1007 126 1007 158.5 1022.5 c 128,-1,46
 191 1038 191 1038 233 1038 c 0,47,48
 284 1038 284 1038 319.5 1019 c 128,-1,49
 355 1000 355 1000 377 967 c 1,50,51
 399 991 399 991 431 1004.5 c 128,-1,52
 463 1018 463 1018 506 1018 c 2,53,-1
 679 1018 l 1,0,-1
506 951 m 2,54,55
 459 951 459 951 433 920.5 c 128,-1,56
 407 890 407 890 407 845 c 2,57,-1
 407 488 l 1,58,-1
 506 488 l 2,59,60
 553 488 553 488 578.5 519 c 128,-1,61
 604 550 604 550 604 597 c 2,62,-1
 604 951 l 1,63,-1
 506 951 l 2,54,55
233 67 m 2,64,65
 279 67 279 67 305.5 97 c 128,-1,66
 332 127 332 127 332 172 c 2,67,-1
 332 530 l 1,68,-1
 233 530 l 2,69,70
 186 530 186 530 160.5 499 c 128,-1,71
 135 468 135 468 135 421 c 2,72,-1
 135 67 l 1,73,-1
 233 67 l 2,64,65
EndSplineSet
EndChar

StartChar: ccedilla
Encoding: 231 231 165
Width: 437
Flags: W
LayerCount: 2
Fore
SplineSet
140 160 m 2,0,1
 140 114 140 114 166 82 c 128,-1,2
 192 50 192 50 240 50 c 0,3,4
 287 50 287 50 312.5 86.5 c 128,-1,5
 338 123 338 123 338 175 c 1,6,-1
 412 185 l 1,7,8
 412 144 412 144 402.5 109.5 c 128,-1,9
 393 75 393 75 374 48.5 c 128,-1,10
 355 22 355 22 326.5 5.5 c 128,-1,11
 298 -11 298 -11 261 -15 c 1,12,-1
 261 -160 l 1,13,14
 291 -161 291 -161 317 -172 c 128,-1,15
 343 -183 343 -183 362 -201.5 c 128,-1,16
 381 -220 381 -220 391.5 -245.5 c 128,-1,17
 402 -271 402 -271 402 -300 c 0,18,19
 402 -333 402 -333 389 -359.5 c 128,-1,20
 376 -386 376 -386 355 -405 c 128,-1,21
 334 -424 334 -424 306 -434 c 128,-1,22
 278 -444 278 -444 248 -444 c 2,23,-1
 180 -444 l 1,24,-1
 203 -384 l 1,25,-1
 243 -384 l 2,26,27
 281 -384 281 -384 304 -359 c 128,-1,28
 327 -334 327 -334 327 -298 c 0,29,30
 327 -263 327 -263 305 -241.5 c 128,-1,31
 283 -220 283 -220 251 -220 c 2,32,-1
 185 -220 l 1,33,-1
 185 -10 l 1,34,35
 125 5 125 5 95 52.5 c 128,-1,36
 65 100 65 100 65 166 c 2,37,-1
 65 836 l 2,38,39
 65 875 65 875 76 908.5 c 128,-1,40
 87 942 87 942 109 966.5 c 128,-1,41
 131 991 131 991 163.5 1004.5 c 128,-1,42
 196 1018 196 1018 239 1018 c 2,43,-1
 412 1018 l 1,44,-1
 412 734 l 1,45,-1
 337 734 l 1,46,-1
 337 951 l 1,47,-1
 239 951 l 2,48,49
 191 951 191 951 165.5 919 c 128,-1,50
 140 887 140 887 140 841 c 2,51,-1
 140 160 l 2,0,1
EndSplineSet
EndChar

StartChar: eth
Encoding: 240 240 174
Width: 541
Flags: W
LayerCount: 2
Fore
SplineSet
437 1273 m 1,0,-1
 531 1273 l 1,1,-1
 531 1206 l 1,2,-1
 437 1206 l 1,3,-1
 437 179 l 2,4,5
 437 140 437 140 426 106.5 c 128,-1,6
 415 73 415 73 393 48.5 c 128,-1,7
 371 24 371 24 338.5 10 c 128,-1,8
 306 -4 306 -4 264 -4 c 0,9,10
 221 -4 221 -4 188.5 10 c 128,-1,11
 156 24 156 24 134 48.5 c 128,-1,12
 112 73 112 73 101 106.5 c 128,-1,13
 90 140 90 140 90 179 c 2,14,-1
 90 1018 l 1,15,-1
 260 1018 l 2,16,17
 298 1018 298 1018 321 1012.5 c 128,-1,18
 344 1007 344 1007 362 997 c 1,19,-1
 362 1206 l 1,20,-1
 260 1206 l 1,21,-1
 260 1273 l 1,22,-1
 362 1273 l 1,23,-1
 362 1564 l 1,24,-1
 437 1564 l 1,25,-1
 437 1273 l 1,0,-1
362 856 m 2,26,27
 362 862 362 862 360.5 878 c 128,-1,28
 359 894 359 894 350 910 c 128,-1,29
 341 926 341 926 321 938.5 c 128,-1,30
 301 951 301 951 264 951 c 2,31,-1
 165 951 l 1,32,-1
 165 172 l 2,33,34
 165 126 165 126 190.5 94.5 c 128,-1,35
 216 63 216 63 264 63 c 0,36,37
 311 63 311 63 336.5 94.5 c 128,-1,38
 362 126 362 126 362 172 c 2,39,-1
 362 856 l 2,26,27
EndSplineSet
EndChar

StartChar: divide
Encoding: 247 247 181
Width: 697
Flags: W
LayerCount: 2
Fore
SplineSet
305 1052 m 1,0,-1
 392 1052 l 1,1,-1
 392 972 l 1,2,-1
 305 972 l 1,3,-1
 305 1052 l 1,0,-1
304 407 m 1,4,-1
 391 407 l 1,5,-1
 391 327 l 1,6,-1
 304 327 l 1,7,-1
 304 407 l 1,4,-1
672 729 m 1,8,-1
 672 660 l 1,9,-1
 25 660 l 1,10,-1
 25 729 l 1,11,-1
 672 729 l 1,8,-1
EndSplineSet
EndChar

StartChar: oslash
Encoding: 248 248 182
Width: 655
Flags: W
LayerCount: 2
Fore
SplineSet
0 105 m 1,0,-1
 156 322 l 1,1,-1
 156 836 l 2,2,3
 156 875 156 875 167 908.5 c 128,-1,4
 178 942 178 942 200 966.5 c 128,-1,5
 222 991 222 991 254.5 1004.5 c 128,-1,6
 287 1018 287 1018 330 1018 c 2,7,-1
 503 1018 l 1,8,-1
 503 806 l 1,9,-1
 620 970 l 1,10,-1
 655 935 l 1,11,-1
 503 723 l 1,12,-1
 503 182 l 2,13,14
 503 138 503 138 492 101 c 128,-1,15
 481 64 481 64 459 37 c 128,-1,16
 437 10 437 10 404.5 -5 c 128,-1,17
 372 -20 372 -20 329 -20 c 256,18,19
 286 -20 286 -20 253.5 -6.5 c 128,-1,20
 221 7 221 7 199.5 31.5 c 128,-1,21
 178 56 178 56 167 89.5 c 128,-1,22
 156 123 156 123 156 163 c 2,23,-1
 156 239 l 1,24,-1
 35 70 l 1,25,-1
 0 105 l 1,0,-1
330 47 m 0,26,27
 377 47 377 47 402.5 83.5 c 128,-1,28
 428 120 428 120 428 172 c 2,29,-1
 428 618 l 1,30,-1
 231 343 l 1,31,-1
 231 157 l 2,32,33
 231 111 231 111 256.5 79 c 128,-1,34
 282 47 282 47 330 47 c 0,26,27
231 427 m 1,35,-1
 428 702 l 1,36,-1
 428 951 l 1,37,-1
 330 951 l 2,38,39
 282 951 282 951 256.5 919 c 128,-1,40
 231 887 231 887 231 841 c 2,41,-1
 231 427 l 1,35,-1
EndSplineSet
EndChar

StartChar: thorn
Encoding: 254 254 188
Width: 400
Flags: W
LayerCount: 2
Fore
SplineSet
70 1564 m 1,0,-1
 145 1564 l 1,1,-1
 145 995 l 1,2,3
 163 1005 163 1005 188 1011.5 c 128,-1,4
 213 1018 213 1018 248 1018 c 2,5,-1
 417 1018 l 1,6,-1
 417 163 l 2,7,8
 417 124 417 124 406 90.5 c 128,-1,9
 395 57 395 57 373 32.5 c 128,-1,10
 351 8 351 8 318.5 -6 c 128,-1,11
 286 -20 286 -20 244 -20 c 0,12,13
 201 -20 201 -20 178.5 -12 c 128,-1,14
 156 -4 156 -4 145 4 c 1,15,-1
 145 -443 l 1,16,-1
 70 -443 l 1,17,-1
 70 1564 l 1,0,-1
145 156 m 2,18,19
 145 110 145 110 170.5 78.5 c 128,-1,20
 196 47 196 47 244 47 c 0,21,22
 291 47 291 47 316.5 78.5 c 128,-1,23
 342 110 342 110 342 156 c 2,24,-1
 342 951 l 1,25,-1
 244 951 l 2,26,27
 207 951 207 951 187 938.5 c 128,-1,28
 167 926 167 926 157.5 910 c 128,-1,29
 148 894 148 894 146.5 878 c 128,-1,30
 145 862 145 862 145 856 c 2,31,-1
 145 156 l 2,18,19
EndSplineSet
EndChar

StartChar: dotlessi
Encoding: 305 305 192
Width: 238
Flags: W
LayerCount: 2
Fore
SplineSet
80 0 m 1,0,-1
 80 1018 l 1,1,-1
 155 1018 l 1,2,-1
 155 0 l 1,3,-1
 80 0 l 1,0,-1
EndSplineSet
EndChar

StartChar: OE
Encoding: 338 338 193
Width: 893
Flags: W
LayerCount: 2
Fore
SplineSet
145 258 m 2,0,1
 145 202 145 202 157 165 c 128,-1,2
 169 128 169 128 194.5 106.5 c 128,-1,3
 220 85 220 85 259 76 c 128,-1,4
 298 67 298 67 351 67 c 2,5,-1
 438 67 l 1,6,-1
 438 1326 l 1,7,-1
 351 1326 l 2,8,9
 298 1326 298 1326 259 1317 c 128,-1,10
 220 1308 220 1308 194.5 1286.5 c 128,-1,11
 169 1265 169 1265 157 1228 c 128,-1,12
 145 1191 145 1191 145 1135 c 2,13,-1
 145 258 l 2,0,1
70 1102 m 2,14,15
 70 1135 70 1135 71.5 1170 c 128,-1,16
 73 1205 73 1205 80 1237 c 128,-1,17
 87 1269 87 1269 103 1297.5 c 128,-1,18
 119 1326 119 1326 147.5 1347.5 c 128,-1,19
 176 1369 176 1369 220.5 1381 c 128,-1,20
 265 1393 265 1393 330 1393 c 2,21,-1
 858 1393 l 1,22,-1
 858 1326 l 1,23,-1
 513 1326 l 1,24,-1
 513 788 l 1,25,-1
 720 788 l 1,26,-1
 720 721 l 1,27,-1
 513 721 l 1,28,-1
 513 67 l 1,29,-1
 858 67 l 1,30,-1
 858 0 l 1,31,-1
 330 0 l 2,32,33
 265 0 265 0 220.5 12 c 128,-1,34
 176 24 176 24 147.5 45.5 c 128,-1,35
 119 67 119 67 103 95.5 c 128,-1,36
 87 124 87 124 80 156 c 128,-1,37
 73 188 73 188 71.5 222.5 c 128,-1,38
 70 257 70 257 70 291 c 2,39,-1
 70 1102 l 2,14,15
EndSplineSet
EndChar

StartChar: oe
Encoding: 339 339 194
Width: 739
Flags: W
LayerCount: 2
Fore
SplineSet
689 1018 m 1,0,-1
 689 604 l 2,1,2
 689 564 689 564 678 530.5 c 128,-1,3
 667 497 667 497 645 472.5 c 128,-1,4
 623 448 623 448 590.5 434.5 c 128,-1,5
 558 421 558 421 516 421 c 2,6,-1
 417 421 l 1,7,-1
 417 156 l 2,8,9
 417 110 417 110 442.5 78.5 c 128,-1,10
 468 47 468 47 516 47 c 0,11,12
 563 47 563 47 588.5 83 c 128,-1,13
 614 119 614 119 614 171 c 1,14,-1
 688 182 l 1,15,16
 688 139 688 139 677 102 c 128,-1,17
 666 65 666 65 644.5 38 c 128,-1,18
 623 11 623 11 590.5 -4.5 c 128,-1,19
 558 -20 558 -20 516 -20 c 0,20,21
 468 -20 468 -20 433.5 -3 c 128,-1,22
 399 14 399 14 377 43 c 1,23,24
 355 13 355 13 321.5 -3.5 c 128,-1,25
 288 -20 288 -20 243 -20 c 0,26,27
 200 -20 200 -20 167.5 -6.5 c 128,-1,28
 135 7 135 7 113.5 31.5 c 128,-1,29
 92 56 92 56 81 89.5 c 128,-1,30
 70 123 70 123 70 163 c 2,31,-1
 70 836 l 2,32,33
 70 875 70 875 81 908.5 c 128,-1,34
 92 942 92 942 114 966.5 c 128,-1,35
 136 991 136 991 168.5 1004.5 c 128,-1,36
 201 1018 201 1018 244 1018 c 2,37,-1
 689 1018 l 1,0,-1
145 157 m 2,38,39
 145 111 145 111 170.5 79 c 128,-1,40
 196 47 196 47 244 47 c 0,41,42
 291 47 291 47 316.5 83.5 c 128,-1,43
 342 120 342 120 342 172 c 2,44,-1
 342 951 l 1,45,-1
 244 951 l 2,46,47
 196 951 196 951 170.5 919 c 128,-1,48
 145 887 145 887 145 841 c 2,49,-1
 145 157 l 2,38,39
417 951 m 1,50,-1
 417 488 l 1,51,-1
 516 488 l 2,52,53
 563 488 563 488 588.5 519 c 128,-1,54
 614 550 614 550 614 597 c 2,55,-1
 614 951 l 1,56,-1
 417 951 l 1,50,-1
EndSplineSet
EndChar

StartChar: florin
Encoding: 402 402 200
Width: 297
Flags: W
LayerCount: 2
Fore
SplineSet
84 951 m 1,0,-1
 0 951 l 1,1,-1
 0 1018 l 1,2,-1
 84 1018 l 1,3,-1
 84 1401 l 2,4,5
 84 1441 84 1441 95 1474.5 c 128,-1,6
 106 1508 106 1508 127.5 1532.5 c 128,-1,7
 149 1557 149 1557 181.5 1570.5 c 128,-1,8
 214 1584 214 1584 257 1584 c 0,9,10
 276 1584 276 1584 298.5 1579.5 c 128,-1,11
 321 1575 321 1575 337 1566 c 1,12,-1
 337 1508 l 1,13,14
 321 1512 321 1512 305 1514.5 c 128,-1,15
 289 1517 289 1517 269 1517 c 0,16,17
 221 1517 221 1517 190 1487.5 c 128,-1,18
 159 1458 159 1458 159 1407 c 2,19,-1
 159 1018 l 1,20,-1
 307 1018 l 1,21,-1
 307 951 l 1,22,-1
 159 951 l 1,23,-1
 159 -266 l 2,24,25
 159 -306 159 -306 148 -339.5 c 128,-1,26
 137 -373 137 -373 115.5 -397.5 c 128,-1,27
 94 -422 94 -422 61.5 -435.5 c 128,-1,28
 29 -449 29 -449 -14 -449 c 0,29,30
 -33 -449 -33 -449 -55.5 -444.5 c 128,-1,31
 -78 -440 -78 -440 -94 -431 c 1,32,-1
 -94 -373 l 1,33,34
 -78 -377 -78 -377 -62 -379.5 c 128,-1,35
 -46 -382 -46 -382 -26 -382 c 0,36,37
 22 -382 22 -382 53 -352.5 c 128,-1,38
 84 -323 84 -323 84 -272 c 2,39,-1
 84 951 l 1,0,-1
EndSplineSet
EndChar

StartChar: circumflex
Encoding: 710 710 201
Width: 502
Flags: W
LayerCount: 2
Fore
SplineSet
407 1104 m 1,0,-1
 334 1104 l 1,1,-1
 245 1312 l 1,2,-1
 157 1104 l 1,3,-1
 84 1104 l 1,4,-1
 211 1393 l 1,5,-1
 280 1393 l 1,6,-1
 407 1104 l 1,0,-1
EndSplineSet
EndChar

StartChar: caron
Encoding: 711 711 202
Width: 523
Flags: W
LayerCount: 2
Fore
SplineSet
296 1104 m 1,0,-1
 227 1104 l 1,1,-1
 100 1393 l 1,2,-1
 173 1393 l 1,3,-1
 261 1185 l 1,4,-1
 350 1393 l 1,5,-1
 423 1393 l 1,6,-1
 296 1104 l 1,0,-1
EndSplineSet
EndChar

StartChar: breve
Encoding: 728 728 203
Width: 600
Flags: W
LayerCount: 2
Fore
SplineSet
304 1150 m 256,0,1
 259 1150 259 1150 221.5 1164 c 128,-1,2
 184 1178 184 1178 157 1203.5 c 128,-1,3
 130 1229 130 1229 115 1265 c 128,-1,4
 100 1301 100 1301 100 1343 c 1,5,-1
 178 1343 l 1,6,7
 186 1292 186 1292 215.5 1260 c 128,-1,8
 245 1228 245 1228 304 1228 c 256,9,10
 363 1228 363 1228 392.5 1260 c 128,-1,11
 422 1292 422 1292 430 1343 c 1,12,-1
 508 1343 l 1,13,14
 508 1301 508 1301 493 1265 c 128,-1,15
 478 1229 478 1229 451 1203.5 c 128,-1,16
 424 1178 424 1178 386.5 1164 c 128,-1,17
 349 1150 349 1150 304 1150 c 256,0,1
EndSplineSet
EndChar

StartChar: dotaccent
Encoding: 729 729 204
Width: 301
Flags: W
LayerCount: 2
Fore
SplineSet
100 1200 m 0,0,1
 100 1251 100 1251 150 1251 c 0,2,3
 173 1251 173 1251 187 1239.5 c 128,-1,4
 201 1228 201 1228 201 1200 c 0,5,6
 201 1180 201 1180 188.5 1165 c 128,-1,7
 176 1150 176 1150 150 1150 c 0,8,9
 125 1150 125 1150 112.5 1165 c 128,-1,10
 100 1180 100 1180 100 1200 c 0,0,1
EndSplineSet
EndChar

StartChar: ring
Encoding: 730 730 205
Width: 431
Flags: W
LayerCount: 2
Fore
SplineSet
155 1274 m 0,0,1
 155 1245 155 1245 176.5 1224 c 128,-1,2
 198 1203 198 1203 230 1203 c 0,3,4
 261 1203 261 1203 283 1224 c 128,-1,5
 305 1245 305 1245 305 1274 c 0,6,7
 305 1304 305 1304 283 1325.5 c 128,-1,8
 261 1347 261 1347 230 1347 c 0,9,10
 198 1347 198 1347 176.5 1325.5 c 128,-1,11
 155 1304 155 1304 155 1274 c 0,0,1
100 1274 m 256,12,13
 100 1300 100 1300 110 1323 c 128,-1,14
 120 1346 120 1346 137.5 1363.5 c 128,-1,15
 155 1381 155 1381 179 1391 c 128,-1,16
 203 1401 203 1401 230 1401 c 0,17,18
 256 1401 256 1401 280 1391 c 128,-1,19
 304 1381 304 1381 321 1363.5 c 128,-1,20
 338 1346 338 1346 349 1323 c 128,-1,21
 360 1300 360 1300 360 1274 c 256,22,23
 360 1248 360 1248 349 1225.5 c 128,-1,24
 338 1203 338 1203 321 1186 c 128,-1,25
 304 1169 304 1169 280 1159 c 128,-1,26
 256 1149 256 1149 230 1149 c 0,27,28
 203 1149 203 1149 179 1159 c 128,-1,29
 155 1169 155 1169 137.5 1186 c 128,-1,30
 120 1203 120 1203 110 1225.5 c 128,-1,31
 100 1248 100 1248 100 1274 c 256,12,13
EndSplineSet
EndChar

StartChar: tilde
Encoding: 732 732 206
Width: 661
Flags: W
LayerCount: 2
Fore
SplineSet
431 1151 m 0,0,1
 406 1151 406 1151 385.5 1165.5 c 128,-1,2
 365 1180 365 1180 347.5 1202 c 128,-1,3
 330 1224 330 1224 315.5 1249.5 c 128,-1,4
 301 1275 301 1275 287 1297 c 128,-1,5
 273 1319 273 1319 259 1333.5 c 128,-1,6
 245 1348 245 1348 230 1348 c 0,7,8
 210 1348 210 1348 195.5 1329 c 128,-1,9
 181 1310 181 1310 165 1260 c 1,10,-1
 100 1260 l 1,11,12
 106 1288 106 1288 116.5 1315.5 c 128,-1,13
 127 1343 127 1343 143 1364.5 c 128,-1,14
 159 1386 159 1386 180 1399.5 c 128,-1,15
 201 1413 201 1413 230 1413 c 0,16,17
 255 1413 255 1413 276.5 1398.5 c 128,-1,18
 298 1384 298 1384 317 1362 c 128,-1,19
 336 1340 336 1340 352 1314.5 c 128,-1,20
 368 1289 368 1289 382 1267 c 128,-1,21
 396 1245 396 1245 408 1230.5 c 128,-1,22
 420 1216 420 1216 431 1216 c 0,23,24
 451 1216 451 1216 465.5 1235 c 128,-1,25
 480 1254 480 1254 496 1304 c 1,26,-1
 561 1304 l 1,27,28
 555 1276 555 1276 544.5 1248.5 c 128,-1,29
 534 1221 534 1221 518 1199.5 c 128,-1,30
 502 1178 502 1178 480.5 1164.5 c 128,-1,31
 459 1151 459 1151 431 1151 c 0,0,1
EndSplineSet
EndChar

StartChar: hungarumlaut
Encoding: 733 733 207
Width: 603
Flags: W
LayerCount: 2
Fore
SplineSet
227 1393 m 1,0,-1
 311 1393 l 1,1,-1
 173 1104 l 1,2,-1
 100 1104 l 1,3,-1
 227 1393 l 1,0,-1
419 1393 m 1,4,-1
 503 1393 l 1,5,-1
 365 1104 l 1,6,-1
 292 1104 l 1,7,-1
 419 1393 l 1,4,-1
EndSplineSet
EndChar

StartChar: endash
Encoding: 8211 8211 208
Width: 395
Flags: W
LayerCount: 2
Fore
SplineSet
20 511 m 1,0,-1
 375 511 l 1,1,-1
 375 442 l 1,2,-1
 20 442 l 1,3,-1
 20 511 l 1,0,-1
EndSplineSet
EndChar

StartChar: emdash
Encoding: 8212 8212 209
Width: 696
Flags: W
LayerCount: 2
Fore
SplineSet
20 511 m 1,0,-1
 676 511 l 1,1,-1
 676 442 l 1,2,-1
 20 442 l 1,3,-1
 20 511 l 1,0,-1
EndSplineSet
EndChar

StartChar: quoteleft
Encoding: 8216 8216 210
Width: 209
Flags: W
LayerCount: 2
Fore
SplineSet
60 1305 m 1,0,1
 63 1332 63 1332 72 1361 c 0,2,3
 80 1386 80 1386 93 1416.5 c 128,-1,4
 106 1447 106 1447 128 1478 c 1,5,-1
 179 1478 l 1,6,-1
 179 1444 l 1,7,8
 170 1433 170 1433 160.5 1416.5 c 128,-1,9
 151 1400 151 1400 143.5 1381 c 128,-1,10
 136 1362 136 1362 131 1342.5 c 128,-1,11
 126 1323 126 1323 125 1305 c 1,12,-1
 159 1305 l 1,13,-1
 159 1213 l 1,14,-1
 60 1213 l 1,15,-1
 60 1305 l 1,0,1
EndSplineSet
EndChar

StartChar: quoteright
Encoding: 8217 8217 211
Width: 209
Flags: W
LayerCount: 2
Fore
SplineSet
149 1386 m 1,0,1
 146 1359 146 1359 137 1330 c 0,2,3
 129 1305 129 1305 116 1274.5 c 128,-1,4
 103 1244 103 1244 81 1213 c 1,5,-1
 30 1213 l 1,6,-1
 30 1247 l 1,7,8
 39 1258 39 1258 48.5 1274.5 c 128,-1,9
 58 1291 58 1291 65.5 1309.5 c 128,-1,10
 73 1328 73 1328 78 1348 c 128,-1,11
 83 1368 83 1368 84 1386 c 1,12,-1
 50 1386 l 1,13,-1
 50 1478 l 1,14,-1
 149 1478 l 1,15,-1
 149 1386 l 1,0,1
EndSplineSet
EndChar

StartChar: quotesinglbase
Encoding: 8218 8218 212
Width: 199
Flags: W
LayerCount: 2
Fore
SplineSet
139 0 m 1,0,1
 136 -27 136 -27 127 -56 c 0,2,3
 119 -81 119 -81 106 -111.5 c 128,-1,4
 93 -142 93 -142 71 -173 c 1,5,-1
 20 -173 l 1,6,-1
 20 -139 l 1,7,8
 29 -128 29 -128 38.5 -111.5 c 128,-1,9
 48 -95 48 -95 55.5 -76.5 c 128,-1,10
 63 -58 63 -58 68 -38 c 128,-1,11
 73 -18 73 -18 74 0 c 1,12,-1
 40 0 l 1,13,-1
 40 92 l 1,14,-1
 139 92 l 1,15,-1
 139 0 l 1,0,1
EndSplineSet
EndChar

StartChar: quotedblleft
Encoding: 8220 8220 213
Width: 418
Flags: W
LayerCount: 2
Fore
SplineSet
60 1305 m 1,0,1
 63 1332 63 1332 72 1361 c 0,2,3
 80 1386 80 1386 93 1416.5 c 128,-1,4
 106 1447 106 1447 128 1478 c 1,5,-1
 179 1478 l 1,6,-1
 179 1444 l 1,7,8
 170 1433 170 1433 160.5 1416.5 c 128,-1,9
 151 1400 151 1400 143.5 1381 c 128,-1,10
 136 1362 136 1362 131 1342.5 c 128,-1,11
 126 1323 126 1323 125 1305 c 1,12,-1
 159 1305 l 1,13,-1
 159 1213 l 1,14,-1
 60 1213 l 1,15,-1
 60 1305 l 1,0,1
211 1305 m 1,16,17
 214 1332 214 1332 223 1361 c 0,18,19
 231 1386 231 1386 244 1416.5 c 128,-1,20
 257 1447 257 1447 279 1478 c 1,21,-1
 330 1478 l 1,22,-1
 330 1444 l 1,23,24
 321 1433 321 1433 311.5 1416.5 c 128,-1,25
 302 1400 302 1400 294.5 1381 c 128,-1,26
 287 1362 287 1362 282 1342.5 c 128,-1,27
 277 1323 277 1323 276 1305 c 1,28,-1
 310 1305 l 1,29,-1
 310 1213 l 1,30,-1
 211 1213 l 1,31,-1
 211 1305 l 1,16,17
EndSplineSet
EndChar

StartChar: quotedblright
Encoding: 8221 8221 214
Width: 360
Flags: W
LayerCount: 2
Fore
SplineSet
149 1386 m 1,0,1
 146 1359 146 1359 137 1330 c 0,2,3
 129 1305 129 1305 116 1274.5 c 128,-1,4
 103 1244 103 1244 81 1213 c 1,5,-1
 30 1213 l 1,6,-1
 30 1247 l 1,7,8
 39 1258 39 1258 48.5 1274.5 c 128,-1,9
 58 1291 58 1291 65.5 1309.5 c 128,-1,10
 73 1328 73 1328 78 1348 c 128,-1,11
 83 1368 83 1368 84 1386 c 1,12,-1
 50 1386 l 1,13,-1
 50 1478 l 1,14,-1
 149 1478 l 1,15,-1
 149 1386 l 1,0,1
300 1386 m 1,16,17
 297 1359 297 1359 288 1330 c 0,18,19
 280 1305 280 1305 267 1274.5 c 128,-1,20
 254 1244 254 1244 232 1213 c 1,21,-1
 181 1213 l 1,22,-1
 181 1247 l 1,23,24
 190 1258 190 1258 199.5 1274.5 c 128,-1,25
 209 1291 209 1291 216.5 1309.5 c 128,-1,26
 224 1328 224 1328 229 1348 c 128,-1,27
 234 1368 234 1368 235 1386 c 1,28,-1
 201 1386 l 1,29,-1
 201 1478 l 1,30,-1
 300 1478 l 1,31,-1
 300 1386 l 1,16,17
EndSplineSet
EndChar

StartChar: quotedblbase
Encoding: 8222 8222 215
Width: 398
Flags: W
LayerCount: 2
Fore
SplineSet
139 0 m 1,0,1
 136 -27 136 -27 127 -56 c 0,2,3
 119 -81 119 -81 106 -111.5 c 128,-1,4
 93 -142 93 -142 71 -173 c 1,5,-1
 20 -173 l 1,6,-1
 20 -139 l 1,7,8
 29 -128 29 -128 38.5 -111.5 c 128,-1,9
 48 -95 48 -95 55.5 -76.5 c 128,-1,10
 63 -58 63 -58 68 -38 c 128,-1,11
 73 -18 73 -18 74 0 c 1,12,-1
 40 0 l 1,13,-1
 40 92 l 1,14,-1
 139 92 l 1,15,-1
 139 0 l 1,0,1
338 0 m 1,16,17
 335 -27 335 -27 326 -56 c 0,18,19
 318 -81 318 -81 305 -111.5 c 128,-1,20
 292 -142 292 -142 270 -173 c 1,21,-1
 219 -173 l 1,22,-1
 219 -139 l 1,23,24
 228 -128 228 -128 237.5 -111.5 c 128,-1,25
 247 -95 247 -95 254.5 -76.5 c 128,-1,26
 262 -58 262 -58 267 -38 c 128,-1,27
 272 -18 272 -18 273 0 c 1,28,-1
 239 0 l 1,29,-1
 239 92 l 1,30,-1
 338 92 l 1,31,-1
 338 0 l 1,16,17
EndSplineSet
EndChar

StartChar: dagger
Encoding: 8224 8224 216
Width: 255
Flags: W
LayerCount: 2
Fore
SplineSet
-52 685 m 1,0,-1
 90 685 l 1,1,-1
 90 1019 l 1,2,-1
 165 1019 l 1,3,-1
 165 685 l 1,4,-1
 303 685 l 1,5,-1
 303 616 l 1,6,-1
 165 616 l 1,7,-1
 165 115 l 1,8,-1
 137 -444 l 1,9,-1
 117 -444 l 1,10,-1
 90 115 l 1,11,-1
 90 616 l 1,12,-1
 -52 616 l 1,13,-1
 -52 685 l 1,0,-1
EndSplineSet
EndChar

StartChar: bullet
Encoding: 8226 8226 217
Width: 413
Flags: W
LayerCount: 2
Fore
SplineSet
30 435 m 0,0,1
 30 471 30 471 44 503 c 128,-1,2
 58 535 58 535 82 558.5 c 128,-1,3
 106 582 106 582 138 595.5 c 128,-1,4
 170 609 170 609 206 609 c 0,5,6
 243 609 243 609 275 595.5 c 128,-1,7
 307 582 307 582 331 558.5 c 128,-1,8
 355 535 355 535 369 503 c 128,-1,9
 383 471 383 471 383 435 c 0,10,11
 383 400 383 400 369 368.5 c 128,-1,12
 355 337 355 337 331 313.5 c 128,-1,13
 307 290 307 290 275 276.5 c 128,-1,14
 243 263 243 263 206 263 c 0,15,16
 170 263 170 263 138 276.5 c 128,-1,17
 106 290 106 290 82 313.5 c 128,-1,18
 58 337 58 337 44 368.5 c 128,-1,19
 30 400 30 400 30 435 c 0,0,1
EndSplineSet
EndChar

StartChar: ellipsis
Encoding: 8230 8230 218
Width: 647
Flags: W
LayerCount: 2
Fore
SplineSet
100 42 m 0,0,1
 100 58 100 58 113 72 c 128,-1,2
 126 86 126 86 149 86 c 256,3,4
 172 86 172 86 184.5 72 c 128,-1,5
 197 58 197 58 197 42 c 0,6,7
 197 22 197 22 184.5 9 c 128,-1,8
 172 -4 172 -4 149 -4 c 0,9,10
 129 -4 129 -4 114.5 9 c 128,-1,11
 100 22 100 22 100 42 c 0,0,1
275 42 m 0,12,13
 275 58 275 58 288 72 c 128,-1,14
 301 86 301 86 324 86 c 256,15,16
 347 86 347 86 359.5 72 c 128,-1,17
 372 58 372 58 372 42 c 0,18,19
 372 22 372 22 359.5 9 c 128,-1,20
 347 -4 347 -4 324 -4 c 0,21,22
 304 -4 304 -4 289.5 9 c 128,-1,23
 275 22 275 22 275 42 c 0,12,13
450 42 m 0,24,25
 450 58 450 58 463 72 c 128,-1,26
 476 86 476 86 499 86 c 0,27,28
 524 86 524 86 535.5 72 c 128,-1,29
 547 58 547 58 547 42 c 0,30,31
 547 22 547 22 535.5 9 c 128,-1,32
 524 -4 524 -4 499 -4 c 0,33,34
 479 -4 479 -4 464.5 9 c 128,-1,35
 450 22 450 22 450 42 c 0,24,25
EndSplineSet
EndChar

StartChar: perthousand
Encoding: 8240 8240 219
Width: 1272
Flags: W
LayerCount: 2
Fore
SplineSet
600 1393 m 1,0,-1
 669 1393 l 1,1,-1
 322 0 l 1,2,-1
 253 0 l 1,3,-1
 600 1393 l 1,0,-1
324 557 m 2,4,5
 324 491 324 491 284 450.5 c 128,-1,6
 244 410 244 410 179 410 c 0,7,8
 113 410 113 410 74 450.5 c 128,-1,9
 35 491 35 491 35 557 c 2,10,-1
 35 1266 l 2,11,12
 35 1332 35 1332 74 1372.5 c 128,-1,13
 113 1413 113 1413 179 1413 c 0,14,15
 244 1413 244 1413 284 1372.5 c 128,-1,16
 324 1332 324 1332 324 1266 c 2,17,-1
 324 557 l 2,4,5
259 1267 m 2,18,19
 259 1306 259 1306 237 1330.5 c 128,-1,20
 215 1355 215 1355 179 1355 c 256,21,22
 143 1355 143 1355 121.5 1330.5 c 128,-1,23
 100 1306 100 1306 100 1267 c 2,24,-1
 100 556 l 2,25,26
 100 517 100 517 121.5 492.5 c 128,-1,27
 143 468 143 468 179 468 c 256,28,29
 215 468 215 468 237 492.5 c 128,-1,30
 259 517 259 517 259 556 c 2,31,-1
 259 1267 l 2,18,19
887 127 m 2,32,33
 887 61 887 61 847 20.5 c 128,-1,34
 807 -20 807 -20 742 -20 c 0,35,36
 676 -20 676 -20 637 20.5 c 128,-1,37
 598 61 598 61 598 127 c 2,38,-1
 598 836 l 2,39,40
 598 902 598 902 637 942.5 c 128,-1,41
 676 983 676 983 742 983 c 0,42,43
 807 983 807 983 847 942.5 c 128,-1,44
 887 902 887 902 887 836 c 2,45,-1
 887 127 l 2,32,33
822 837 m 2,46,47
 822 876 822 876 800 900.5 c 128,-1,48
 778 925 778 925 742 925 c 256,49,50
 706 925 706 925 684.5 900.5 c 128,-1,51
 663 876 663 876 663 837 c 2,52,-1
 663 126 l 2,53,54
 663 87 663 87 684.5 62.5 c 128,-1,55
 706 38 706 38 742 38 c 256,56,57
 778 38 778 38 800 62.5 c 128,-1,58
 822 87 822 87 822 126 c 2,59,-1
 822 837 l 2,46,47
1237 127 m 2,60,61
 1237 61 1237 61 1197 20.5 c 128,-1,62
 1157 -20 1157 -20 1092 -20 c 0,63,64
 1026 -20 1026 -20 987 20.5 c 128,-1,65
 948 61 948 61 948 127 c 2,66,-1
 948 836 l 2,67,68
 948 902 948 902 987 942.5 c 128,-1,69
 1026 983 1026 983 1092 983 c 0,70,71
 1157 983 1157 983 1197 942.5 c 128,-1,72
 1237 902 1237 902 1237 836 c 2,73,-1
 1237 127 l 2,60,61
1172 837 m 2,74,75
 1172 876 1172 876 1150 900.5 c 128,-1,76
 1128 925 1128 925 1092 925 c 256,77,78
 1056 925 1056 925 1034.5 900.5 c 128,-1,79
 1013 876 1013 876 1013 837 c 2,80,-1
 1013 126 l 2,81,82
 1013 87 1013 87 1034.5 62.5 c 128,-1,83
 1056 38 1056 38 1092 38 c 256,84,85
 1128 38 1128 38 1150 62.5 c 128,-1,86
 1172 87 1172 87 1172 126 c 2,87,-1
 1172 837 l 2,74,75
EndSplineSet
EndChar

StartChar: guilsinglleft
Encoding: 8249 8249 220
Width: 328
Flags: W
LayerCount: 2
Fore
SplineSet
250 458 m 1,0,-1
 25 786 l 1,1,-1
 250 1114 l 1,2,-1
 303 1114 l 1,3,-1
 303 1071 l 1,4,-1
 125 786 l 1,5,-1
 303 499 l 1,6,-1
 303 458 l 1,7,-1
 250 458 l 1,0,-1
EndSplineSet
EndChar

StartChar: guilsinglright
Encoding: 8250 8250 221
Width: 328
Flags: W
LayerCount: 2
Fore
SplineSet
25 458 m 1,0,-1
 25 499 l 1,1,-1
 203 786 l 1,2,-1
 25 1071 l 1,3,-1
 25 1114 l 1,4,-1
 78 1114 l 1,5,-1
 303 786 l 1,6,-1
 78 458 l 1,7,-1
 25 458 l 1,0,-1
EndSplineSet
EndChar

StartChar: fraction
Encoding: 8260 8260 222
Width: 346
Flags: W
LayerCount: 2
Fore
SplineSet
312 1393 m 1,0,-1
 381 1393 l 1,1,-1
 34 0 l 1,2,-1
 -35 0 l 1,3,-1
 312 1393 l 1,0,-1
EndSplineSet
EndChar

StartChar: Euro
Encoding: 8364 8364 223
Width: 529
Flags: W
LayerCount: 2
Fore
SplineSet
15 571 m 1,0,-1
 105 571 l 1,1,-1
 105 661 l 1,2,-1
 15 661 l 1,3,-1
 15 730 l 1,4,-1
 105 730 l 1,5,-1
 105 948 l 2,6,7
 105 1002 105 1002 117.5 1049.5 c 128,-1,8
 130 1097 130 1097 158 1132.5 c 128,-1,9
 186 1168 186 1168 229.5 1188.5 c 128,-1,10
 273 1209 273 1209 336 1209 c 0,11,12
 396 1209 396 1209 440.5 1187.5 c 128,-1,13
 485 1166 485 1166 514 1125 c 1,14,-1
 461 1067 l 1,15,16
 437 1103 437 1103 404.5 1122.5 c 128,-1,17
 372 1142 372 1142 334 1142 c 0,18,19
 292 1142 292 1142 263 1127 c 128,-1,20
 234 1112 234 1112 215.5 1086 c 128,-1,21
 197 1060 197 1060 189 1024.5 c 128,-1,22
 181 989 181 989 181 947 c 2,23,-1
 181 730 l 1,24,-1
 462 730 l 1,25,-1
 462 661 l 1,26,-1
 181 661 l 1,27,-1
 181 571 l 1,28,-1
 462 571 l 1,29,-1
 462 503 l 1,30,-1
 181 503 l 1,31,-1
 181 243 l 2,32,33
 181 201 181 201 189 165.5 c 128,-1,34
 197 130 197 130 215.5 103.5 c 128,-1,35
 234 77 234 77 263 62.5 c 128,-1,36
 292 48 292 48 334 48 c 0,37,38
 413 48 413 48 463 118 c 1,39,-1
 514 65 l 1,40,41
 482 27 482 27 439 3.5 c 128,-1,42
 396 -20 396 -20 336 -20 c 0,43,44
 273 -20 273 -20 229.5 1 c 128,-1,45
 186 22 186 22 158 57.5 c 128,-1,46
 130 93 130 93 117.5 140.5 c 128,-1,47
 105 188 105 188 105 241 c 2,48,-1
 105 503 l 1,49,-1
 15 503 l 1,50,-1
 15 571 l 1,0,-1
EndSplineSet
EndChar

StartChar: minus
Encoding: 8722 8722 224
Width: 697
Flags: W
LayerCount: 2
Fore
SplineSet
672 408 m 1,0,-1
 672 339 l 1,1,-1
 25 339 l 1,2,-1
 25 408 l 1,3,-1
 672 408 l 1,0,-1
EndSplineSet
EndChar

StartChar: notequal
Encoding: 8800 8800 225
Width: 697
Flags: W
LayerCount: 2
Fore
SplineSet
526 1215 m 1,0,-1
 592 1215 l 1,1,-1
 476 890 l 1,2,-1
 672 890 l 1,3,-1
 672 821 l 1,4,-1
 451 821 l 1,5,-1
 361 568 l 1,6,-1
 672 568 l 1,7,-1
 672 499 l 1,8,-1
 336 499 l 1,9,-1
 205 130 l 1,10,-1
 135 130 l 1,11,-1
 268 499 l 1,12,-1
 25 499 l 1,13,-1
 25 568 l 1,14,-1
 293 568 l 1,15,-1
 384 821 l 1,16,-1
 25 821 l 1,17,-1
 25 890 l 1,18,-1
 409 890 l 1,19,-1
 526 1215 l 1,0,-1
EndSplineSet
EndChar

StartChar: fi
Encoding: 64257 64257 226
Width: 541
Flags: W
LayerCount: 2
Fore
SplineSet
396 0 m 1,0,-1
 396 951 l 1,1,-1
 215 951 l 1,2,-1
 215 -443 l 1,3,-1
 140 -443 l 1,4,-1
 140 951 l 1,5,-1
 20 951 l 1,6,-1
 20 1018 l 1,7,-1
 140 1018 l 1,8,-1
 140 1401 l 2,9,10
 140 1441 140 1441 151 1474.5 c 128,-1,11
 162 1508 162 1508 183.5 1532.5 c 128,-1,12
 205 1557 205 1557 237.5 1570.5 c 128,-1,13
 270 1584 270 1584 313 1584 c 0,14,15
 332 1584 332 1584 354.5 1579.5 c 128,-1,16
 377 1575 377 1575 393 1566 c 1,17,-1
 393 1508 l 1,18,19
 377 1512 377 1512 361 1514.5 c 128,-1,20
 345 1517 345 1517 325 1517 c 0,21,22
 277 1517 277 1517 246 1487.5 c 128,-1,23
 215 1458 215 1458 215 1407 c 2,24,-1
 215 1018 l 1,25,-1
 471 1018 l 1,26,-1
 471 0 l 1,27,-1
 396 0 l 1,0,-1
383 1363 m 0,28,29
 383 1413 383 1413 431 1413 c 0,30,31
 454 1413 454 1413 467.5 1400.5 c 128,-1,32
 481 1388 481 1388 481 1363 c 0,33,34
 481 1344 481 1344 468.5 1330 c 128,-1,35
 456 1316 456 1316 431 1316 c 0,36,37
 408 1316 408 1316 395.5 1330 c 128,-1,38
 383 1344 383 1344 383 1363 c 0,28,29
EndSplineSet
EndChar

StartChar: fl
Encoding: 64258 64258 227
Width: 512
Flags: W
LayerCount: 2
Fore
SplineSet
357 0 m 1,0,-1
 357 1502 l 1,1,2
 346 1506 346 1506 324.5 1511.5 c 128,-1,3
 303 1517 303 1517 269 1517 c 0,4,5
 221 1517 221 1517 190 1487.5 c 128,-1,6
 159 1458 159 1458 159 1407 c 2,7,-1
 159 1018 l 1,8,-1
 307 1018 l 1,9,-1
 307 951 l 1,10,-1
 159 951 l 1,11,-1
 159 -443 l 1,12,-1
 84 -443 l 1,13,-1
 84 951 l 1,14,-1
 0 951 l 1,15,-1
 0 1018 l 1,16,-1
 84 1018 l 1,17,-1
 84 1401 l 2,18,19
 84 1441 84 1441 95 1474.5 c 128,-1,20
 106 1508 106 1508 127.5 1532.5 c 128,-1,21
 149 1557 149 1557 181.5 1570.5 c 128,-1,22
 214 1584 214 1584 257 1584 c 0,23,24
 291 1584 291 1584 317 1577 c 128,-1,25
 343 1570 343 1570 357 1564 c 1,26,-1
 432 1564 l 1,27,-1
 432 0 l 1,28,-1
 357 0 l 1,0,-1
EndSplineSet
EndChar

StartChar: circumflex.lc
Encoding: 65539 -1 228
Width: 502
Flags: W
LayerCount: 2
Fore
SplineSet
407 1104 m 1,0,-1
 334 1104 l 1,1,-1
 245 1312 l 1,2,-1
 157 1104 l 1,3,-1
 84 1104 l 1,4,-1
 211 1393 l 1,5,-1
 280 1393 l 1,6,-1
 407 1104 l 1,0,-1
EndSplineSet
EndChar

